CourierBadi-Regular.ufo
<glyph name="exclam" format="2">
  <advance width="1228"/>
  <unicode hex="0021"/>
  <outline>
    <contour>
      <point x="549.0" y="1269.0" type="line" smooth="yes"/>
      <point x="519.0" y="1269.0"/>
      <point x="505.0" y="1254.0"/>
      <point x="508.0" y="1219.0" type="curve" smooth="yes"/>
      <point x="556.0" y="512.0" type="line" smooth="yes"/>
      <point x="558.0" y="481.0"/>
      <point x="580.0" y="464.0"/>
      <point x="614.0" y="464.0" type="curve" smooth="yes"/>
      <point x="649.0" y="464.0"/>
      <point x="669.0" y="481.0"/>
      <point x="671.0" y="512.0" type="curve" smooth="yes"/>
      <point x="720.0" y="1219.0" type="line" smooth="yes"/>
      <point x="723.0" y="1254.0"/>
      <point x="709.0" y="1269.0"/>
      <point x="679.0" y="1269.0" type="curve" smooth="yes"/>
    </contour>
    <contour>
      <point x="489.0" y="207.0" type="curve" smooth="yes"/>
      <point x="489.0" y="53.0" type="line" smooth="yes"/>
      <point x="489.0" y="8.0"/>
      <point x="526.0" y="-10.0"/>
      <point x="614.0" y="-10.0" type="curve" smooth="yes"/>
      <point x="702.0" y="-10.0"/>
      <point x="739.0" y="8.0"/>
      <point x="739.0" y="53.0" type="curve" smooth="yes"/>
      <point x="739.0" y="207.0" type="line" smooth="yes"/>
      <point x="739.0" y="252.0"/>
      <point x="702.0" y="270.0"/>
      <point x="614.0" y="270.0" type="curve" smooth="yes"/>
      <point x="526.0" y="270.0"/>
      <point x="489.0" y="252.0"/>
    </contour>
  </outline>
</glyph>
<glyph name="numbersign" format="2">
  <advance width="1228"/>
  <unicode hex="0023"/>
  <outline>
    <contour>
      <point x="896.0" y="1176.0" type="curve" smooth="yes"/>
      <point x="815.156494140625" y="865.0" type="line"/>
      <point x="553.9946899414062" y="865.0" type="line"/>
      <point x="626.0" y="1142.0" type="line" smooth="yes"/>
      <point x="637.0" y="1184.0"/>
      <point x="595.0" y="1209.0"/>
      <point x="556.0" y="1209.0" type="curve" smooth="yes"/>
      <point x="532.0" y="1209.0"/>
      <point x="508.0" y="1199.0"/>
      <point x="502.0" y="1176.0" type="curve" smooth="yes"/>
      <point x="421.156494140625" y="865.0" type="line"/>
      <point x="193.0" y="865.0" type="line" smooth="yes"/>
      <point x="148.0" y="865.0"/>
      <point x="130.0" y="845.0"/>
      <point x="130.0" y="793.0" type="curve" smooth="yes"/>
      <point x="130.0" y="741.0"/>
      <point x="148.0" y="721.0"/>
      <point x="193.0" y="721.0" type="curve" smooth="yes"/>
      <point x="383.7241516113281" y="721.0" type="line"/>
      <point x="320.0371398925781" y="476.0" type="line"/>
      <point x="123.0" y="476.0" type="line" smooth="yes"/>
      <point x="78.0" y="476.0"/>
      <point x="60.0" y="456.0"/>
      <point x="60.0" y="404.0" type="curve" smooth="yes"/>
      <point x="60.0" y="352.0"/>
      <point x="78.0" y="332.0"/>
      <point x="123.0" y="332.0" type="curve" smooth="yes"/>
      <point x="282.6047668457031" y="332.0" type="line"/>
      <point x="208.0" y="45.0" type="line" smooth="yes"/>
      <point x="197.0" y="3.0"/>
      <point x="239.0" y="-22.0"/>
      <point x="278.0" y="-22.0" type="curve" smooth="yes"/>
      <point x="302.0" y="-22.0"/>
      <point x="326.0" y="-12.0"/>
      <point x="332.0" y="11.0" type="curve" smooth="yes"/>
      <point x="415.4429626464844" y="332.0" type="line"/>
      <point x="676.6047973632812" y="332.0" type="line"/>
      <point x="602.0" y="45.0" type="line" smooth="yes"/>
      <point x="591.0" y="3.0"/>
      <point x="633.0" y="-22.0"/>
      <point x="672.0" y="-22.0" type="curve" smooth="yes"/>
      <point x="696.0" y="-22.0"/>
      <point x="720.0" y="-12.0"/>
      <point x="726.0" y="11.0" type="curve" smooth="yes"/>
      <point x="809.4429931640625" y="332.0" type="line"/>
      <point x="1035.0" y="332.0" type="line" smooth="yes"/>
      <point x="1080.0" y="332.0"/>
      <point x="1098.0" y="352.0"/>
      <point x="1098.0" y="404.0" type="curve" smooth="yes"/>
      <point x="1098.0" y="456.0"/>
      <point x="1080.0" y="476.0"/>
      <point x="1035.0" y="476.0" type="curve" smooth="yes"/>
      <point x="846.8753051757812" y="476.0" type="line"/>
      <point x="910.5623168945312" y="721.0" type="line"/>
      <point x="1105.0" y="721.0" type="line" smooth="yes"/>
      <point x="1150.0" y="721.0"/>
      <point x="1168.0" y="741.0"/>
      <point x="1168.0" y="793.0" type="curve" smooth="yes"/>
      <point x="1168.0" y="845.0"/>
      <point x="1150.0" y="865.0"/>
      <point x="1105.0" y="865.0" type="curve" smooth="yes"/>
      <point x="947.9946899414062" y="865.0" type="line"/>
      <point x="1020.0" y="1142.0" type="line" smooth="yes"/>
      <point x="1031.0" y="1184.0"/>
      <point x="989.0" y="1209.0"/>
      <point x="950.0" y="1209.0" type="curve" smooth="yes"/>
      <point x="926.0" y="1209.0"/>
      <point x="902.0" y="1199.0"/>
    </contour>
    <contour>
      <point x="516.5623168945312" y="721.0" type="line"/>
      <point x="777.72412109375" y="721.0" type="line"/>
      <point x="714.037109375" y="476.0" type="line"/>
      <point x="452.8753356933594" y="476.0" type="line"/>
    </contour>
  </outline>
</glyph>
<glyph name="dollar" format="2">
  <advance width="1228"/>
  <unicode hex="0024"/>
  <outline>
    <contour>
      <point x="185.0" y="817.0" type="curve" smooth="yes"/>
      <point x="185.0" y="694.0"/>
      <point x="249.0" y="629.0"/>
      <point x="339.0" y="592.0" type="curve" smooth="yes"/>
      <point x="481.0" y="533.0"/>
      <point x="688.0" y="543.0"/>
      <point x="805.0" y="500.0" type="curve" smooth="yes"/>
      <point x="862.0" y="479.0"/>
      <point x="898.0" y="447.0"/>
      <point x="898.0" y="388.0" type="curve" smooth="yes"/>
      <point x="898.0" y="289.0"/>
      <point x="814.0" y="220.0"/>
      <point x="637.0" y="220.0" type="curve" smooth="yes"/>
      <point x="506.0" y="220.0"/>
      <point x="378.0" y="256.0"/>
      <point x="273.0" y="317.0" type="curve" smooth="yes"/>
      <point x="243.0" y="335.0"/>
      <point x="213.0" y="332.0"/>
      <point x="187.0" y="281.0" type="curve" smooth="yes"/>
      <point x="163.0" y="232.0"/>
      <point x="174.0" y="200.0"/>
      <point x="212.0" y="179.0" type="curve" smooth="yes"/>
      <point x="308.7440185546875" y="124.04940032958984"/>
      <point x="419.26507568359375" y="91.26187133789062"/>
      <point x="538.0" y="79.24661254882812" type="curve"/>
      <point x="538.0" y="-160.0" type="line" smooth="yes"/>
      <point x="538.0" y="-206.0"/>
      <point x="559.0" y="-225.0"/>
      <point x="608.0" y="-225.0" type="curve" smooth="yes"/>
      <point x="657.0" y="-225.0"/>
      <point x="678.0" y="-206.0"/>
      <point x="678.0" y="-160.0" type="curve" smooth="yes"/>
      <point x="678.0" y="74.69508361816406" type="line"/>
      <point x="925.5797119140625" y="85.00043487548828"/>
      <point x="1052.0" y="209.01754760742188"/>
      <point x="1052.0" y="388.0" type="curve" smooth="yes"/>
      <point x="1052.0" y="529.0"/>
      <point x="977.0" y="599.0"/>
      <point x="876.0" y="638.0" type="curve" smooth="yes"/>
      <point x="728.0" y="694.0"/>
      <point x="525.0" y="684.0"/>
      <point x="416.0" y="725.0" type="curve" smooth="yes"/>
      <point x="368.0" y="743.0"/>
      <point x="339.0" y="770.0"/>
      <point x="339.0" y="817.0" type="curve" smooth="yes"/>
      <point x="339.0" y="919.0"/>
      <point x="427.0" y="975.0"/>
      <point x="572.0" y="975.0" type="curve" smooth="yes"/>
      <point x="695.0" y="975.0"/>
      <point x="812.0" y="944.0"/>
      <point x="915.0" y="889.0" type="curve" smooth="yes"/>
      <point x="947.0" y="872.0"/>
      <point x="977.0" y="876.0"/>
      <point x="1000.0" y="928.0" type="curve" smooth="yes"/>
      <point x="1023.0" y="978.0"/>
      <point x="1011.0" y="1010.0"/>
      <point x="973.0" y="1030.0" type="curve" smooth="yes"/>
      <point x="882.9819946289062" y="1076.868896484375"/>
      <point x="783.0016479492188" y="1104.3665771484375"/>
      <point x="678.0" y="1115.3753662109375" type="curve"/>
      <point x="678.0" y="1347.0" type="line" smooth="yes"/>
      <point x="678.0" y="1393.0"/>
      <point x="657.0" y="1412.0"/>
      <point x="608.0" y="1412.0" type="curve" smooth="yes"/>
      <point x="559.0" y="1412.0"/>
      <point x="538.0" y="1393.0"/>
      <point x="538.0" y="1347.0" type="curve" smooth="yes"/>
      <point x="538.0" y="1120.3218994140625" type="line"/>
      <point x="333.3430480957031" y="1110.96142578125"/>
      <point x="185.0" y="1004.9342651367188"/>
    </contour>
  </outline>
</glyph>
<glyph name="ampersand" format="2">
  <advance width="1228"/>
  <unicode hex="0026"/>
  <outline>
    <contour>
      <point x="264.0" y="920.0" type="curve" smooth="yes"/>
      <point x="264.0" y="814.8869018554688"/>
      <point x="297.4046325683594" y="735.7551879882812"/>
      <point x="355.8994140625" y="661.4988403320312" type="curve"/>
      <point x="238.81039428710938" y="576.6770629882812"/>
      <point x="157.0" y="472.4951477050781"/>
      <point x="157.0" y="320.0" type="curve" smooth="yes"/>
      <point x="157.0" y="136.0"/>
      <point x="288.0" y="-22.0"/>
      <point x="516.0" y="-22.0" type="curve" smooth="yes"/>
      <point x="644.7356567382812" y="-22.0"/>
      <point x="749.0641479492188" y="38.045814514160156"/>
      <point x="833.5027465820312" y="135.95297241210938" type="curve"/>
      <point x="954.0" y="4.0" type="line" smooth="yes"/>
      <point x="980.0" y="-24.0"/>
      <point x="1006.0" y="-24.0"/>
      <point x="1049.0" y="0.0" type="curve" smooth="yes"/>
      <point x="1097.0" y="27.0"/>
      <point x="1104.0" y="56.0"/>
      <point x="1073.0" y="90.0" type="curve" smooth="yes"/>
      <point x="919.045654296875" y="258.6298522949219" type="line"/>
      <point x="974.1432495117188" y="354.7789306640625"/>
      <point x="1018.072265625" y="469.1168518066406"/>
      <point x="1053.0" y="591.0" type="curve" smooth="yes"/>
      <point x="1066.0" y="637.0"/>
      <point x="1058.0" y="664.0"/>
      <point x="998.0" y="673.0" type="curve" smooth="yes"/>
      <point x="944.0" y="681.0"/>
      <point x="921.0" y="673.0"/>
      <point x="908.0" y="628.0" type="curve" smooth="yes"/>
      <point x="883.564697265625" y="537.58935546875"/>
      <point x="853.1585693359375" y="449.12841796875"/>
      <point x="815.2927856445312" y="372.2728271484375" type="curve"/>
      <point x="517.0" y="699.0" type="line" smooth="yes"/>
      <point x="454.0" y="769.0"/>
      <point x="418.0" y="832.0"/>
      <point x="418.0" y="920.0" type="curve" smooth="yes"/>
      <point x="418.0" y="1028.0"/>
      <point x="491.0" y="1121.0"/>
      <point x="617.0" y="1121.0" type="curve" smooth="yes"/>
      <point x="701.0" y="1121.0"/>
      <point x="778.0" y="1095.0"/>
      <point x="846.0" y="1050.0" type="curve" smooth="yes"/>
      <point x="875.0" y="1031.0"/>
      <point x="906.0" y="1031.0"/>
      <point x="933.0" y="1081.0" type="curve" smooth="yes"/>
      <point x="960.0" y="1132.0"/>
      <point x="951.0" y="1160.0"/>
      <point x="915.0" y="1182.0" type="curve" smooth="yes"/>
      <point x="829.0" y="1236.0"/>
      <point x="729.0" y="1269.0"/>
      <point x="618.0" y="1269.0" type="curve" smooth="yes"/>
      <point x="401.0" y="1269.0"/>
      <point x="264.0" y="1116.0"/>
    </contour>
    <contour>
      <point x="734.96826171875" y="243.85519409179688" type="line"/>
      <point x="675.7868041992188" y="171.3944854736328"/>
      <point x="603.7393798828125" y="126.0"/>
      <point x="516.0" y="126.0" type="curve" smooth="yes"/>
      <point x="396.0" y="126.0"/>
      <point x="311.0" y="204.0"/>
      <point x="311.0" y="320.0" type="curve" smooth="yes"/>
      <point x="311.0" y="417.8015441894531"/>
      <point x="357.9942626953125" y="486.0810546875"/>
      <point x="451.0474853515625" y="554.7684326171875" type="curve"/>
    </contour>
  </outline>
</glyph>
<glyph name="quotesingle" format="2">
  <advance width="1228"/>
  <unicode hex="0027"/>
  <outline>
    <contour>
      <point x="532.0" y="1269.0" type="line" smooth="yes"/>
      <point x="502.0" y="1269.0"/>
      <point x="487.0" y="1254.0"/>
      <point x="491.0" y="1219.0" type="curve" smooth="yes"/>
      <point x="546.0" y="769.0" type="line" smooth="yes"/>
      <point x="550.0" y="735.0"/>
      <point x="575.0" y="715.0"/>
      <point x="614.0" y="715.0" type="curve" smooth="yes"/>
      <point x="654.0" y="715.0"/>
      <point x="678.0" y="735.0"/>
      <point x="682.0" y="769.0" type="curve" smooth="yes"/>
      <point x="737.0" y="1219.0" type="line" smooth="yes"/>
      <point x="741.0" y="1254.0"/>
      <point x="726.0" y="1269.0"/>
      <point x="696.0" y="1269.0" type="curve" smooth="yes"/>
    </contour>
  </outline>
</glyph>
<glyph name="parenleft" format="2">
  <advance width="1228"/>
  <unicode hex="0028"/>
  <outline>
    <contour>
      <point x="297.0" y="517.0" type="curve" smooth="yes"/>
      <point x="297.0" y="94.0"/>
      <point x="547.0" y="-203.0"/>
      <point x="771.0" y="-337.0" type="curve" smooth="yes"/>
      <point x="800.0" y="-354.0"/>
      <point x="830.0" y="-333.0"/>
      <point x="848.0" y="-303.0" type="curve" smooth="yes"/>
      <point x="866.0" y="-273.0"/>
      <point x="873.0" y="-234.0"/>
      <point x="852.0" y="-220.0" type="curve" smooth="yes"/>
      <point x="654.0" y="-90.0"/>
      <point x="445.0" y="146.0"/>
      <point x="445.0" y="517.0" type="curve" smooth="yes"/>
      <point x="445.0" y="888.0"/>
      <point x="654.0" y="1128.0"/>
      <point x="852.0" y="1258.0" type="curve" smooth="yes"/>
      <point x="873.0" y="1272.0"/>
      <point x="866.0" y="1311.0"/>
      <point x="848.0" y="1341.0" type="curve" smooth="yes"/>
      <point x="830.0" y="1371.0"/>
      <point x="800.0" y="1392.0"/>
      <point x="771.0" y="1375.0" type="curve" smooth="yes"/>
      <point x="547.0" y="1241.0"/>
      <point x="297.0" y="940.0"/>
    </contour>
  </outline>
</glyph>
<glyph name="parenright" format="2">
  <advance width="1228"/>
  <unicode hex="0029"/>
  <outline>
    <contour>
      <point x="380.0" y="1341.0" type="curve" smooth="yes"/>
      <point x="362.0" y="1311.0"/>
      <point x="355.0" y="1272.0"/>
      <point x="376.0" y="1258.0" type="curve" smooth="yes"/>
      <point x="574.0" y="1128.0"/>
      <point x="783.0" y="888.0"/>
      <point x="783.0" y="517.0" type="curve" smooth="yes"/>
      <point x="783.0" y="146.0"/>
      <point x="574.0" y="-90.0"/>
      <point x="376.0" y="-220.0" type="curve" smooth="yes"/>
      <point x="355.0" y="-234.0"/>
      <point x="362.0" y="-273.0"/>
      <point x="380.0" y="-303.0" type="curve" smooth="yes"/>
      <point x="398.0" y="-333.0"/>
      <point x="428.0" y="-354.0"/>
      <point x="457.0" y="-337.0" type="curve" smooth="yes"/>
      <point x="681.0" y="-203.0"/>
      <point x="931.0" y="94.0"/>
      <point x="931.0" y="517.0" type="curve" smooth="yes"/>
      <point x="931.0" y="940.0"/>
      <point x="681.0" y="1241.0"/>
      <point x="457.0" y="1375.0" type="curve" smooth="yes"/>
      <point x="428.0" y="1392.0"/>
      <point x="398.0" y="1371.0"/>
    </contour>
  </outline>
</glyph>
<glyph name="asterisk" format="2">
  <advance width="1228"/>
  <unicode hex="002A"/>
  <outline>
    <contour>
      <point x="1050.0" y="647.0" type="line" smooth="yes"/>
      <point x="1108.0" y="660.0"/>
      <point x="1135.0" y="701.0"/>
      <point x="1115.0" y="765.0" type="curve" smooth="yes"/>
      <point x="1094.0" y="829.0"/>
      <point x="1049.0" y="848.0"/>
      <point x="995.0" y="824.0" type="curve" smooth="yes"/>
      <point x="665.1486206054688" y="673.5414428710938" type="line"/>
      <point x="707.0" y="1030.0" type="line" smooth="yes"/>
      <point x="713.0" y="1089.0"/>
      <point x="681.0" y="1127.0"/>
      <point x="614.0" y="1127.0" type="curve" smooth="yes"/>
      <point x="547.0" y="1127.0"/>
      <point x="514.0" y="1089.0"/>
      <point x="521.0" y="1030.0" type="curve" smooth="yes"/>
      <point x="562.1299438476562" y="673.5405883789062" type="line"/>
      <point x="233.0" y="824.0" type="line" smooth="yes"/>
      <point x="179.0" y="848.0"/>
      <point x="133.0" y="829.0"/>
      <point x="113.0" y="765.0" type="curve" smooth="yes"/>
      <point x="92.0" y="701.0"/>
      <point x="119.0" y="660.0"/>
      <point x="177.0" y="647.0" type="curve" smooth="yes"/>
      <point x="530.2037353515625" y="575.4924926757812" type="line"/>
      <point x="279.0" y="298.0" type="line" smooth="yes"/>
      <point x="239.0" y="254.0"/>
      <point x="243.0" y="207.0"/>
      <point x="298.0" y="167.0" type="curve" smooth="yes"/>
      <point x="353.0" y="128.0"/>
      <point x="400.0" y="143.0"/>
      <point x="431.0" y="194.0" type="curve" smooth="yes"/>
      <point x="613.6361694335938" y="514.1590576171875" type="line"/>
      <point x="797.0" y="194.0" type="line" smooth="yes"/>
      <point x="827.0" y="143.0"/>
      <point x="875.0" y="127.0"/>
      <point x="930.0" y="167.0" type="curve" smooth="yes"/>
      <point x="984.0" y="206.0"/>
      <point x="988.0" y="254.0"/>
      <point x="948.0" y="298.0" type="curve" smooth="yes"/>
      <point x="696.9083251953125" y="575.3687133789062" type="line"/>
    </contour>
  </outline>
</glyph>
<glyph name="plus" format="2">
  <advance width="1228"/>
  <unicode hex="002B"/>
  <outline>
    <contour>
      <point x="233.0" y="654.0" type="line" smooth="yes"/>
      <point x="188.0" y="654.0"/>
      <point x="170.0" y="634.0"/>
      <point x="170.0" y="582.0" type="curve" smooth="yes"/>
      <point x="170.0" y="530.0"/>
      <point x="188.0" y="510.0"/>
      <point x="233.0" y="510.0" type="curve" smooth="yes"/>
      <point x="542.0" y="510.0" type="line"/>
      <point x="542.0" y="201.0" type="line" smooth="yes"/>
      <point x="542.0" y="156.0"/>
      <point x="562.0" y="138.0"/>
      <point x="614.0" y="138.0" type="curve" smooth="yes"/>
      <point x="666.0" y="138.0"/>
      <point x="686.0" y="156.0"/>
      <point x="686.0" y="201.0" type="curve" smooth="yes"/>
      <point x="686.0" y="510.0" type="line"/>
      <point x="995.0" y="510.0" type="line" smooth="yes"/>
      <point x="1040.0" y="510.0"/>
      <point x="1058.0" y="530.0"/>
      <point x="1058.0" y="582.0" type="curve" smooth="yes"/>
      <point x="1058.0" y="634.0"/>
      <point x="1040.0" y="654.0"/>
      <point x="995.0" y="654.0" type="curve" smooth="yes"/>
      <point x="686.0" y="654.0" type="line"/>
      <point x="686.0" y="963.0" type="line" smooth="yes"/>
      <point x="686.0" y="1008.0"/>
      <point x="666.0" y="1026.0"/>
      <point x="614.0" y="1026.0" type="curve" smooth="yes"/>
      <point x="562.0" y="1026.0"/>
      <point x="542.0" y="1008.0"/>
      <point x="542.0" y="963.0" type="curve" smooth="yes"/>
      <point x="542.0" y="654.0" type="line"/>
    </contour>
  </outline>
</glyph>
<glyph name="comma" format="2">
  <advance width="1228"/>
  <unicode hex="002C"/>
  <outline>
    <contour>
      <point x="520.0" y="294.0" type="line" smooth="yes"/>
      <point x="492.0" y="294.0"/>
      <point x="473.0" y="280.0"/>
      <point x="468.0" y="254.0" type="curve" smooth="yes"/>
      <point x="374.0" y="-228.0" type="line" smooth="yes"/>
      <point x="366.0" y="-270.0"/>
      <point x="388.0" y="-294.0"/>
      <point x="444.0" y="-294.0" type="curve" smooth="yes"/>
      <point x="490.0" y="-294.0"/>
      <point x="518.0" y="-281.0"/>
      <point x="530.0" y="-253.0" type="curve" smooth="yes"/>
      <point x="742.0" y="231.0" type="line" smooth="yes"/>
      <point x="757.0" y="266.0"/>
      <point x="747.0" y="294.0"/>
      <point x="714.0" y="294.0" type="curve" smooth="yes"/>
    </contour>
  </outline>
</glyph>
<glyph name="slash" format="2">
  <advance width="1228"/>
  <unicode hex="002F"/>
  <outline>
    <contour>
      <point x="873.0" y="1358.0" type="curve" smooth="yes"/>
      <point x="201.0" y="-285.0" type="line" smooth="yes"/>
      <point x="185.0" y="-325.0"/>
      <point x="227.0" y="-355.0"/>
      <point x="290.0" y="-355.0" type="curve" smooth="yes"/>
      <point x="322.0" y="-355.0"/>
      <point x="346.0" y="-340.0"/>
      <point x="355.0" y="-319.0" type="curve" smooth="yes"/>
      <point x="1027.0" y="1324.0" type="line" smooth="yes"/>
      <point x="1043.0" y="1364.0"/>
      <point x="1001.0" y="1394.0"/>
      <point x="938.0" y="1394.0" type="curve" smooth="yes"/>
      <point x="906.0" y="1394.0"/>
      <point x="882.0" y="1379.0"/>
    </contour>
  </outline>
</glyph>
<glyph name="zero" format="2">
  <advance width="1228"/>
  <unicode hex="0030"/>
  <outline>
    <contour>
      <point x="190.0" y="593.0" type="curve" smooth="yes"/>
      <point x="190.0" y="223.0"/>
      <point x="354.0" y="-22.0"/>
      <point x="614.0" y="-22.0" type="curve" smooth="yes"/>
      <point x="874.0" y="-22.0"/>
      <point x="1038.0" y="223.0"/>
      <point x="1038.0" y="593.0" type="curve" smooth="yes"/>
      <point x="1038.0" y="963.0"/>
      <point x="874.0" y="1209.0"/>
      <point x="614.0" y="1209.0" type="curve" smooth="yes"/>
      <point x="354.0" y="1209.0"/>
      <point x="190.0" y="963.0"/>
    </contour>
    <contour>
      <point x="360.1667175292969" y="412.95269775390625" type="line"/>
      <point x="349.645751953125" y="466.2254943847656"/>
      <point x="344.0" y="526.39013671875"/>
      <point x="344.0" y="593.0" type="curve" smooth="yes"/>
      <point x="344.0" y="891.0"/>
      <point x="457.0" y="1061.0"/>
      <point x="614.0" y="1061.0" type="curve" smooth="yes"/>
      <point x="697.3623046875" y="1061.0"/>
      <point x="768.3197021484375" y="1013.072021484375"/>
      <point x="816.543212890625" y="923.5033569335938" type="curve"/>
    </contour>
    <contour>
      <point x="884.0" y="593.0" type="curve" smooth="yes"/>
      <point x="884.0" y="295.0"/>
      <point x="771.0" y="126.0"/>
      <point x="614.0" y="126.0" type="curve" smooth="yes"/>
      <point x="530.8135986328125" y="126.0"/>
      <point x="459.9798278808594" y="173.44515991210938"/>
      <point x="411.76239013671875" y="262.38543701171875" type="curve"/>
      <point x="867.8856811523438" y="772.9087524414062" type="line"/>
      <point x="878.3729858398438" y="719.624267578125"/>
      <point x="884.0" y="659.4991455078125"/>
    </contour>
  </outline>
</glyph>
<glyph name="one" format="2">
  <advance width="1228"/>
  <unicode hex="0031"/>
  <outline>
    <contour>
      <point x="251.0" y="968.0" type="line" smooth="yes"/>
      <point x="221.0" y="950.0"/>
      <point x="208.0" y="915.0"/>
      <point x="234.0" y="870.0" type="curve" smooth="yes"/>
      <point x="261.0" y="823.0"/>
      <point x="294.0" y="823.0"/>
      <point x="320.0" y="839.0" type="curve" smooth="yes"/>
      <point x="569.0" y="994.0" type="line"/>
      <point x="569.0" y="144.0" type="line"/>
      <point x="300.0" y="144.0" type="line" smooth="yes"/>
      <point x="255.0" y="144.0"/>
      <point x="237.0" y="124.0"/>
      <point x="237.0" y="72.0" type="curve" smooth="yes"/>
      <point x="237.0" y="20.0"/>
      <point x="255.0" y="0.0"/>
      <point x="300.0" y="0.0" type="curve" smooth="yes"/>
      <point x="974.0" y="0.0" type="line" smooth="yes"/>
      <point x="1019.0" y="0.0"/>
      <point x="1037.0" y="20.0"/>
      <point x="1037.0" y="72.0" type="curve" smooth="yes"/>
      <point x="1037.0" y="124.0"/>
      <point x="1019.0" y="144.0"/>
      <point x="974.0" y="144.0" type="curve" smooth="yes"/>
      <point x="719.0" y="144.0" type="line"/>
      <point x="719.0" y="1157.0" type="line" smooth="yes"/>
      <point x="719.0" y="1211.0"/>
      <point x="668.0" y="1224.0"/>
      <point x="628.0" y="1200.0" type="curve" smooth="yes"/>
    </contour>
  </outline>
</glyph>
<glyph name="two" format="2">
  <advance width="1228"/>
  <unicode hex="0032"/>
  <outline>
    <contour>
      <point x="241.0" y="1095.0" type="curve" smooth="yes"/>
      <point x="209.0" y="1072.0"/>
      <point x="200.0" y="1042.0"/>
      <point x="228.0" y="996.0" type="curve" smooth="yes"/>
      <point x="257.0" y="950.0"/>
      <point x="291.0" y="946.0"/>
      <point x="320.0" y="967.0" type="curve" smooth="yes"/>
      <point x="403.0" y="1026.0"/>
      <point x="502.0" y="1061.0"/>
      <point x="591.0" y="1061.0" type="curve" smooth="yes"/>
      <point x="739.0" y="1061.0"/>
      <point x="819.0" y="981.0"/>
      <point x="819.0" y="859.0" type="curve" smooth="yes"/>
      <point x="819.0" y="760.0"/>
      <point x="769.0" y="687.0"/>
      <point x="652.0" y="568.0" type="curve" smooth="yes"/>
      <point x="212.0" y="122.0" type="line" smooth="yes"/>
      <point x="202.0" y="111.0"/>
      <point x="197.0" y="94.0"/>
      <point x="197.0" y="68.0" type="curve" smooth="yes"/>
      <point x="197.0" y="18.0"/>
      <point x="215.0" y="0.0"/>
      <point x="260.0" y="0.0" type="curve" smooth="yes"/>
      <point x="954.0" y="0.0" type="line" smooth="yes"/>
      <point x="999.0" y="0.0"/>
      <point x="1017.0" y="20.0"/>
      <point x="1017.0" y="72.0" type="curve" smooth="yes"/>
      <point x="1017.0" y="124.0"/>
      <point x="999.0" y="144.0"/>
      <point x="954.0" y="144.0" type="curve" smooth="yes"/>
      <point x="440.8826904296875" y="144.0" type="line"/>
      <point x="769.0" y="477.0" type="line" smooth="yes"/>
      <point x="898.0" y="608.0"/>
      <point x="973.0" y="714.0"/>
      <point x="973.0" y="859.0" type="curve" smooth="yes"/>
      <point x="973.0" y="1080.0"/>
      <point x="823.0" y="1209.0"/>
      <point x="590.0" y="1209.0" type="curve" smooth="yes"/>
      <point x="471.0" y="1209.0"/>
      <point x="342.0" y="1166.0"/>
    </contour>
  </outline>
</glyph>
<glyph name="three" format="2">
  <advance width="1228"/>
  <unicode hex="0033"/>
  <outline>
    <contour>
      <point x="247.0" y="1113.0" type="curve" smooth="yes"/>
      <point x="214.0" y="1093.0"/>
      <point x="203.0" y="1063.0"/>
      <point x="229.0" y="1014.0" type="curve" smooth="yes"/>
      <point x="255.0" y="967.0"/>
      <point x="287.0" y="963.0"/>
      <point x="317.0" y="981.0" type="curve" smooth="yes"/>
      <point x="406.0" y="1035.0"/>
      <point x="494.0" y="1061.0"/>
      <point x="581.0" y="1061.0" type="curve" smooth="yes"/>
      <point x="726.0" y="1061.0"/>
      <point x="807.0" y="991.0"/>
      <point x="807.0" y="879.0" type="curve" smooth="yes"/>
      <point x="807.0" y="757.0"/>
      <point x="728.0" y="691.0"/>
      <point x="575.0" y="691.0" type="curve" smooth="yes"/>
      <point x="520.0" y="691.0" type="line" smooth="yes"/>
      <point x="475.0" y="691.0"/>
      <point x="457.0" y="673.0"/>
      <point x="457.0" y="623.0" type="curve" smooth="yes"/>
      <point x="457.0" y="573.0"/>
      <point x="475.0" y="555.0"/>
      <point x="520.0" y="555.0" type="curve" smooth="yes"/>
      <point x="593.0" y="555.0" type="line" smooth="yes"/>
      <point x="748.0" y="555.0"/>
      <point x="844.0" y="484.0"/>
      <point x="844.0" y="345.0" type="curve" smooth="yes"/>
      <point x="844.0" y="213.0"/>
      <point x="757.0" y="126.0"/>
      <point x="588.0" y="126.0" type="curve" smooth="yes"/>
      <point x="482.0" y="126.0"/>
      <point x="375.0" y="168.0"/>
      <point x="290.0" y="232.0" type="curve" smooth="yes"/>
      <point x="261.0" y="254.0"/>
      <point x="227.0" y="249.0"/>
      <point x="198.0" y="203.0" type="curve" smooth="yes"/>
      <point x="170.0" y="157.0"/>
      <point x="179.0" y="127.0"/>
      <point x="211.0" y="104.0" type="curve" smooth="yes"/>
      <point x="315.0" y="28.0"/>
      <point x="455.0" y="-22.0"/>
      <point x="588.0" y="-22.0" type="curve" smooth="yes"/>
      <point x="850.0" y="-22.0"/>
      <point x="998.0" y="128.0"/>
      <point x="998.0" y="345.0" type="curve" smooth="yes"/>
      <point x="998.0" y="484.0"/>
      <point x="926.0" y="582.0"/>
      <point x="808.0" y="631.0" type="curve"/>
      <point x="901.0" y="679.0"/>
      <point x="961.0" y="760.0"/>
      <point x="961.0" y="879.0" type="curve" smooth="yes"/>
      <point x="961.0" y="1080.0"/>
      <point x="811.0" y="1209.0"/>
      <point x="580.0" y="1209.0" type="curve" smooth="yes"/>
      <point x="466.0" y="1209.0"/>
      <point x="354.0" y="1176.0"/>
    </contour>
  </outline>
</glyph>
<glyph name="four" format="2">
  <advance width="1228"/>
  <unicode hex="0034"/>
  <outline>
    <contour>
      <point x="641.0" y="1148.0" type="curve" smooth="yes"/>
      <point x="157.0" y="425.0" type="line" smooth="yes"/>
      <point x="150.0" y="415.0"/>
      <point x="145.0" y="397.0"/>
      <point x="145.0" y="376.0" type="curve" smooth="yes"/>
      <point x="145.0" y="326.0"/>
      <point x="165.0" y="302.0"/>
      <point x="210.0" y="302.0" type="curve" smooth="yes"/>
      <point x="688.0" y="302.0" type="line"/>
      <point x="688.0" y="55.0" type="line" smooth="yes"/>
      <point x="688.0" y="9.0"/>
      <point x="706.0" y="-10.0"/>
      <point x="762.0" y="-10.0" type="curve" smooth="yes"/>
      <point x="764.0" y="-10.0" type="line" smooth="yes"/>
      <point x="820.0" y="-10.0"/>
      <point x="838.0" y="9.0"/>
      <point x="838.0" y="55.0" type="curve" smooth="yes"/>
      <point x="838.0" y="302.0" type="line"/>
      <point x="1000.0" y="302.0" type="line" smooth="yes"/>
      <point x="1045.0" y="302.0"/>
      <point x="1063.0" y="322.0"/>
      <point x="1063.0" y="374.0" type="curve" smooth="yes"/>
      <point x="1063.0" y="426.0"/>
      <point x="1045.0" y="446.0"/>
      <point x="1000.0" y="446.0" type="curve" smooth="yes"/>
      <point x="838.0" y="446.0" type="line"/>
      <point x="838.0" y="1131.0" type="line" smooth="yes"/>
      <point x="838.0" y="1178.0"/>
      <point x="813.0" y="1209.0"/>
      <point x="751.0" y="1209.0" type="curve" smooth="yes"/>
      <point x="699.0" y="1209.0"/>
      <point x="668.0" y="1189.0"/>
    </contour>
    <contour>
      <point x="688.227783203125" y="446.0" type="line"/>
      <point x="342.0" y="446.0" type="line"/>
      <point x="696.0" y="992.0" type="line"/>
    </contour>
  </outline>
</glyph>
<glyph name="five" format="2">
  <advance width="1228"/>
  <unicode hex="0035"/>
  <outline>
    <contour>
      <point x="351.0" y="1187.0" type="line" smooth="yes"/>
      <point x="295.0" y="1187.0"/>
      <point x="278.0" y="1168.0"/>
      <point x="276.0" y="1122.0" type="curve" smooth="yes"/>
      <point x="256.0" y="622.0" type="line" smooth="yes"/>
      <point x="254.0" y="576.0"/>
      <point x="275.0" y="557.0"/>
      <point x="331.0" y="557.0" type="curve" smooth="yes"/>
      <point x="354.0" y="557.0"/>
      <point x="370.0" y="560.0"/>
      <point x="381.0" y="567.0" type="curve" smooth="yes"/>
      <point x="446.0" y="612.0"/>
      <point x="513.0" y="638.0"/>
      <point x="608.0" y="638.0" type="curve" smooth="yes"/>
      <point x="759.0" y="638.0"/>
      <point x="854.0" y="534.0"/>
      <point x="854.0" y="386.0" type="curve" smooth="yes"/>
      <point x="854.0" y="230.0"/>
      <point x="753.0" y="126.0"/>
      <point x="588.0" y="126.0" type="curve" smooth="yes"/>
      <point x="485.0" y="126.0"/>
      <point x="380.0" y="166.0"/>
      <point x="296.0" y="226.0" type="curve" smooth="yes"/>
      <point x="267.0" y="248.0"/>
      <point x="233.0" y="243.0"/>
      <point x="204.0" y="197.0" type="curve" smooth="yes"/>
      <point x="176.0" y="151.0"/>
      <point x="187.0" y="120.0"/>
      <point x="219.0" y="97.0" type="curve" smooth="yes"/>
      <point x="322.0" y="25.0"/>
      <point x="458.0" y="-22.0"/>
      <point x="588.0" y="-22.0" type="curve" smooth="yes"/>
      <point x="846.0" y="-22.0"/>
      <point x="1008.0" y="152.0"/>
      <point x="1008.0" y="386.0" type="curve" smooth="yes"/>
      <point x="1008.0" y="619.0"/>
      <point x="865.0" y="786.0"/>
      <point x="621.0" y="786.0" type="curve" smooth="yes"/>
      <point x="542.0" y="786.0"/>
      <point x="470.0" y="766.0"/>
      <point x="406.0" y="730.0" type="curve"/>
      <point x="418.676025390625" y="1043.0" type="line"/>
      <point x="885.0" y="1043.0" type="line" smooth="yes"/>
      <point x="930.0" y="1043.0"/>
      <point x="948.0" y="1063.0"/>
      <point x="948.0" y="1115.0" type="curve" smooth="yes"/>
      <point x="948.0" y="1167.0"/>
      <point x="930.0" y="1187.0"/>
      <point x="885.0" y="1187.0" type="curve" smooth="yes"/>
    </contour>
  </outline>
</glyph>
<glyph name="six" format="2">
  <advance width="1228"/>
  <unicode hex="0036"/>
  <outline>
    <contour>
      <point x="203.0" y="512.0" type="curve" smooth="yes"/>
      <point x="203.0" y="368.0"/>
      <point x="229.0" y="259.0"/>
      <point x="279.0" y="173.0" type="curve" smooth="yes"/>
      <point x="355.0" y="43.0"/>
      <point x="484.0" y="-22.0"/>
      <point x="626.0" y="-22.0" type="curve" smooth="yes"/>
      <point x="873.0" y="-22.0"/>
      <point x="1034.0" y="136.0"/>
      <point x="1034.0" y="353.0" type="curve" smooth="yes"/>
      <point x="1034.0" y="581.0"/>
      <point x="869.0" y="731.0"/>
      <point x="648.0" y="731.0" type="curve" smooth="yes"/>
      <point x="534.0" y="731.0"/>
      <point x="428.0" y="681.0"/>
      <point x="358.0" y="589.0" type="curve"/>
      <point x="394.0" y="861.0"/>
      <point x="571.0" y="1043.0"/>
      <point x="938.0" y="1062.0" type="curve" smooth="yes"/>
      <point x="964.0" y="1063.0"/>
      <point x="979.0" y="1083.0"/>
      <point x="974.0" y="1142.0" type="curve" smooth="yes"/>
      <point x="969.0" y="1197.0"/>
      <point x="946.0" y="1210.0"/>
      <point x="917.0" y="1209.0" type="curve" smooth="yes"/>
      <point x="393.0" y="1185.0"/>
      <point x="203.0" y="834.0"/>
    </contour>
    <contour>
      <point x="880.0" y="353.0" type="curve" smooth="yes"/>
      <point x="880.0" y="216.0"/>
      <point x="779.0" y="126.0"/>
      <point x="626.0" y="126.0" type="curve" smooth="yes"/>
      <point x="472.0" y="126.0"/>
      <point x="372.0" y="227.0"/>
      <point x="372.0" y="368.0" type="curve" smooth="yes"/>
      <point x="372.0" y="495.0"/>
      <point x="478.0" y="583.0"/>
      <point x="626.0" y="583.0" type="curve" smooth="yes"/>
      <point x="783.0" y="583.0"/>
      <point x="880.0" y="492.0"/>
    </contour>
  </outline>
</glyph>
<glyph name="seven" format="2">
  <advance width="1228"/>
  <unicode hex="0037"/>
  <outline>
    <contour>
      <point x="262.0" y="1187.0" type="line" smooth="yes"/>
      <point x="217.0" y="1187.0"/>
      <point x="199.0" y="1167.0"/>
      <point x="199.0" y="1115.0" type="curve" smooth="yes"/>
      <point x="199.0" y="1063.0"/>
      <point x="217.0" y="1043.0"/>
      <point x="262.0" y="1043.0" type="curve" smooth="yes"/>
      <point x="849.7276611328125" y="1043.0" type="line"/>
      <point x="446.0" y="56.0" type="line" smooth="yes"/>
      <point x="430.0" y="15.0"/>
      <point x="454.0" y="-12.0"/>
      <point x="499.0" y="-20.0" type="curve" smooth="yes"/>
      <point x="545.0" y="-28.0"/>
      <point x="582.0" y="-13.0"/>
      <point x="597.0" y="24.0" type="curve" smooth="yes"/>
      <point x="1023.0" y="1079.0" type="line" smooth="yes"/>
      <point x="1026.0" y="1087.0"/>
      <point x="1029.0" y="1102.0"/>
      <point x="1029.0" y="1119.0" type="curve" smooth="yes"/>
      <point x="1029.0" y="1169.0"/>
      <point x="1011.0" y="1187.0"/>
      <point x="966.0" y="1187.0" type="curve" smooth="yes"/>
    </contour>
  </outline>
</glyph>
<glyph name="eight" format="2">
  <advance width="1228"/>
  <unicode hex="0038"/>
  <outline>
    <contour>
      <point x="247.0" y="879.0" type="curve" smooth="yes"/>
      <point x="247.0" y="766.0"/>
      <point x="317.0" y="680.0"/>
      <point x="410.0" y="630.0" type="curve"/>
      <point x="293.0" y="577.0"/>
      <point x="210.0" y="476.0"/>
      <point x="210.0" y="340.0" type="curve" smooth="yes"/>
      <point x="210.0" y="131.0"/>
      <point x="380.0" y="-22.0"/>
      <point x="614.0" y="-22.0" type="curve" smooth="yes"/>
      <point x="848.0" y="-22.0"/>
      <point x="1018.0" y="131.0"/>
      <point x="1018.0" y="340.0" type="curve" smooth="yes"/>
      <point x="1018.0" y="476.0"/>
      <point x="935.0" y="577.0"/>
      <point x="817.0" y="630.0" type="curve"/>
      <point x="910.0" y="680.0"/>
      <point x="981.0" y="766.0"/>
      <point x="981.0" y="879.0" type="curve" smooth="yes"/>
      <point x="981.0" y="1064.0"/>
      <point x="826.0" y="1209.0"/>
      <point x="614.0" y="1209.0" type="curve" smooth="yes"/>
      <point x="402.0" y="1209.0"/>
      <point x="247.0" y="1064.0"/>
    </contour>
    <contour>
      <point x="864.0" y="341.0" type="curve" smooth="yes"/>
      <point x="864.0" y="215.0"/>
      <point x="761.0" y="126.0"/>
      <point x="614.0" y="126.0" type="curve" smooth="yes"/>
      <point x="467.0" y="126.0"/>
      <point x="364.0" y="215.0"/>
      <point x="364.0" y="341.0" type="curve" smooth="yes"/>
      <point x="364.0" y="467.0"/>
      <point x="467.0" y="554.0"/>
      <point x="614.0" y="554.0" type="curve" smooth="yes"/>
      <point x="761.0" y="554.0"/>
      <point x="864.0" y="467.0"/>
    </contour>
    <contour>
      <point x="829.0" y="876.0" type="curve" smooth="yes"/>
      <point x="829.0" y="773.0"/>
      <point x="737.0" y="693.0"/>
      <point x="614.0" y="693.0" type="curve" smooth="yes"/>
      <point x="491.0" y="693.0"/>
      <point x="399.0" y="773.0"/>
      <point x="399.0" y="876.0" type="curve" smooth="yes"/>
      <point x="399.0" y="990.0"/>
      <point x="491.0" y="1061.0"/>
      <point x="614.0" y="1061.0" type="curve" smooth="yes"/>
      <point x="737.0" y="1061.0"/>
      <point x="829.0" y="990.0"/>
    </contour>
  </outline>
</glyph>
<glyph name="nine" format="2">
  <advance width="1228"/>
  <unicode hex="0039"/>
  <outline>
    <contour>
      <point x="194.0" y="834.0" type="curve" smooth="yes"/>
      <point x="194.0" y="606.0"/>
      <point x="359.0" y="456.0"/>
      <point x="580.0" y="456.0" type="curve" smooth="yes"/>
      <point x="694.0" y="456.0"/>
      <point x="800.0" y="506.0"/>
      <point x="870.0" y="598.0" type="curve"/>
      <point x="834.0" y="326.0"/>
      <point x="657.0" y="144.0"/>
      <point x="290.0" y="125.0" type="curve" smooth="yes"/>
      <point x="264.0" y="124.0"/>
      <point x="249.0" y="104.0"/>
      <point x="254.0" y="45.0" type="curve" smooth="yes"/>
      <point x="259.0" y="-10.0"/>
      <point x="282.0" y="-23.0"/>
      <point x="311.0" y="-22.0" type="curve" smooth="yes"/>
      <point x="835.0" y="2.0"/>
      <point x="1025.0" y="353.0"/>
      <point x="1025.0" y="675.0" type="curve" smooth="yes"/>
      <point x="1025.0" y="819.0"/>
      <point x="999.0" y="928.0"/>
      <point x="949.0" y="1014.0" type="curve" smooth="yes"/>
      <point x="873.0" y="1144.0"/>
      <point x="744.0" y="1209.0"/>
      <point x="602.0" y="1209.0" type="curve" smooth="yes"/>
      <point x="355.0" y="1209.0"/>
      <point x="194.0" y="1051.0"/>
    </contour>
    <contour>
      <point x="856.0" y="819.0" type="curve" smooth="yes"/>
      <point x="856.0" y="692.0"/>
      <point x="750.0" y="604.0"/>
      <point x="602.0" y="604.0" type="curve" smooth="yes"/>
      <point x="445.0" y="604.0"/>
      <point x="348.0" y="695.0"/>
      <point x="348.0" y="834.0" type="curve" smooth="yes"/>
      <point x="348.0" y="971.0"/>
      <point x="449.0" y="1061.0"/>
      <point x="602.0" y="1061.0" type="curve" smooth="yes"/>
      <point x="756.0" y="1061.0"/>
      <point x="856.0" y="960.0"/>
    </contour>
  </outline>
</glyph>
<glyph name="less" format="2">
  <advance width="1228"/>
  <unicode hex="003C"/>
  <outline>
    <contour>
      <point x="340.0" y="583.0" type="line"/>
      <point x="1012.0" y="905.0" type="line" smooth="yes"/>
      <point x="1054.0" y="925.0"/>
      <point x="1064.0" y="954.0"/>
      <point x="1041.0" y="1000.0" type="curve" smooth="yes"/>
      <point x="1019.0" y="1044.0"/>
      <point x="990.0" y="1058.0"/>
      <point x="949.0" y="1038.0" type="curve" smooth="yes"/>
      <point x="172.0" y="657.0" type="line" smooth="yes"/>
      <point x="140.0" y="641.0"/>
      <point x="125.0" y="623.0"/>
      <point x="125.0" y="583.0" type="curve" smooth="yes"/>
      <point x="125.0" y="543.0"/>
      <point x="140.0" y="525.0"/>
      <point x="172.0" y="509.0" type="curve" smooth="yes"/>
      <point x="949.0" y="128.0" type="line" smooth="yes"/>
      <point x="990.0" y="108.0"/>
      <point x="1019.0" y="122.0"/>
      <point x="1041.0" y="166.0" type="curve" smooth="yes"/>
      <point x="1064.0" y="212.0"/>
      <point x="1054.0" y="241.0"/>
      <point x="1012.0" y="261.0" type="curve" smooth="yes"/>
    </contour>
  </outline>
</glyph>
<glyph name="greater" format="2">
  <advance width="1228"/>
  <unicode hex="003E"/>
  <outline>
    <contour>
      <point x="888.0" y="583.0" type="line"/>
      <point x="216.0" y="261.0" type="line" smooth="yes"/>
      <point x="174.0" y="241.0"/>
      <point x="164.0" y="212.0"/>
      <point x="187.0" y="166.0" type="curve" smooth="yes"/>
      <point x="209.0" y="122.0"/>
      <point x="238.0" y="108.0"/>
      <point x="279.0" y="128.0" type="curve" smooth="yes"/>
      <point x="1056.0" y="509.0" type="line" smooth="yes"/>
      <point x="1088.0" y="525.0"/>
      <point x="1103.0" y="543.0"/>
      <point x="1103.0" y="583.0" type="curve" smooth="yes"/>
      <point x="1103.0" y="623.0"/>
      <point x="1088.0" y="641.0"/>
      <point x="1056.0" y="657.0" type="curve" smooth="yes"/>
      <point x="279.0" y="1038.0" type="line" smooth="yes"/>
      <point x="238.0" y="1058.0"/>
      <point x="209.0" y="1044.0"/>
      <point x="187.0" y="1000.0" type="curve" smooth="yes"/>
      <point x="164.0" y="954.0"/>
      <point x="174.0" y="925.0"/>
      <point x="216.0" y="905.0" type="curve" smooth="yes"/>
    </contour>
  </outline>
</glyph>
<glyph name="question" format="2">
  <advance width="1228"/>
  <unicode hex="003F"/>
  <outline>
    <contour>
      <point x="300.0" y="1191.0" type="curve" smooth="yes"/>
      <point x="263.0" y="1171.0"/>
      <point x="250.0" y="1144.0"/>
      <point x="274.0" y="1091.0" type="curve" smooth="yes"/>
      <point x="297.0" y="1039.0"/>
      <point x="328.0" y="1038.0"/>
      <point x="358.0" y="1054.0" type="curve" smooth="yes"/>
      <point x="442.0" y="1098.0"/>
      <point x="528.0" y="1121.0"/>
      <point x="619.0" y="1121.0" type="curve" smooth="yes"/>
      <point x="744.0" y="1121.0"/>
      <point x="812.0" y="1053.0"/>
      <point x="812.0" y="956.0" type="curve" smooth="yes"/>
      <point x="812.0" y="856.0"/>
      <point x="746.0" y="806.0"/>
      <point x="594.0" y="744.0" type="curve" smooth="yes"/>
      <point x="525.0" y="716.0" type="line" smooth="yes"/>
      <point x="502.0" y="707.0"/>
      <point x="494.0" y="691.0"/>
      <point x="495.0" y="665.0" type="curve" smooth="yes"/>
      <point x="505.0" y="440.0" type="line" smooth="yes"/>
      <point x="507.0" y="409.0"/>
      <point x="532.0" y="389.0"/>
      <point x="574.0" y="389.0" type="curve" smooth="yes"/>
      <point x="616.0" y="389.0"/>
      <point x="641.0" y="409.0"/>
      <point x="643.0" y="440.0" type="curve" smooth="yes"/>
      <point x="653.0" y="611.0" type="line"/>
      <point x="859.0" y="695.0"/>
      <point x="966.0" y="780.0"/>
      <point x="966.0" y="956.0" type="curve" smooth="yes"/>
      <point x="966.0" y="1141.0"/>
      <point x="838.0" y="1269.0"/>
      <point x="618.0" y="1269.0" type="curve" smooth="yes"/>
      <point x="503.0" y="1269.0"/>
      <point x="398.0" y="1244.0"/>
    </contour>
    <contour>
      <point x="459.0" y="167.0" type="curve" smooth="yes"/>
      <point x="459.0" y="53.0" type="line" smooth="yes"/>
      <point x="459.0" y="8.0"/>
      <point x="493.0" y="-10.0"/>
      <point x="574.0" y="-10.0" type="curve" smooth="yes"/>
      <point x="655.0" y="-10.0"/>
      <point x="689.0" y="8.0"/>
      <point x="689.0" y="53.0" type="curve" smooth="yes"/>
      <point x="689.0" y="167.0" type="line" smooth="yes"/>
      <point x="689.0" y="212.0"/>
      <point x="655.0" y="230.0"/>
      <point x="574.0" y="230.0" type="curve" smooth="yes"/>
      <point x="493.0" y="230.0"/>
      <point x="459.0" y="212.0"/>
    </contour>
  </outline>
</glyph>
<glyph name="at" format="2">
  <advance width="1228"/>
  <unicode hex="0040"/>
  <outline>
    <contour>
      <point x="50.0" y="389.0" type="curve" smooth="yes"/>
      <point x="50.0" y="54.0"/>
      <point x="242.0" y="-153.0"/>
      <point x="562.0" y="-153.0" type="curve" smooth="yes"/>
      <point x="672.0" y="-153.0"/>
      <point x="778.0" y="-132.0"/>
      <point x="848.0" y="-101.0" type="curve" smooth="yes"/>
      <point x="869.0" y="-92.0"/>
      <point x="878.0" y="-72.0"/>
      <point x="867.0" y="-36.0" type="curve" smooth="yes"/>
      <point x="856.0" y="0.0"/>
      <point x="838.0" y="14.0"/>
      <point x="815.0" y="7.0" type="curve" smooth="yes"/>
      <point x="748.0" y="-14.0"/>
      <point x="656.0" y="-30.0"/>
      <point x="560.0" y="-30.0" type="curve" smooth="yes"/>
      <point x="311.0" y="-30.0"/>
      <point x="173.0" y="133.0"/>
      <point x="173.0" y="389.0" type="curve" smooth="yes"/>
      <point x="173.0" y="710.0"/>
      <point x="378.0" y="955.0"/>
      <point x="655.0" y="955.0" type="curve" smooth="yes"/>
      <point x="898.0" y="955.0"/>
      <point x="1049.0" y="792.0"/>
      <point x="1049.0" y="531.0" type="curve" smooth="yes"/>
      <point x="1049.0" y="372.0"/>
      <point x="989.0" y="263.0"/>
      <point x="888.0" y="263.0" type="curve" smooth="yes"/>
      <point x="828.0" y="263.0"/>
      <point x="798.0" y="318.0"/>
      <point x="820.0" y="404.0" type="curve" smooth="yes"/>
      <point x="897.0" y="706.0" type="line" smooth="yes"/>
      <point x="902.0" y="726.0"/>
      <point x="882.0" y="743.0"/>
      <point x="858.0" y="752.0" type="curve" smooth="yes"/>
      <point x="834.0" y="761.0"/>
      <point x="806.0" y="762.0"/>
      <point x="799.0" y="748.0" type="curve" smooth="yes"/>
      <point x="768.0" y="685.0" type="line"/>
      <point x="743.0" y="744.0"/>
      <point x="704.0" y="785.0"/>
      <point x="640.0" y="785.0" type="curve" smooth="yes"/>
      <point x="460.0" y="785.0"/>
      <point x="323.0" y="536.0"/>
      <point x="323.0" y="357.0" type="curve" smooth="yes"/>
      <point x="323.0" y="214.0"/>
      <point x="401.0" y="132.0"/>
      <point x="499.0" y="132.0" type="curve" smooth="yes"/>
      <point x="589.0" y="132.0"/>
      <point x="647.0" y="187.0"/>
      <point x="708.0" y="266.0" type="curve"/>
      <point x="739.0" y="182.0"/>
      <point x="802.0" y="137.0"/>
      <point x="889.0" y="137.0" type="curve" smooth="yes"/>
      <point x="1057.0" y="137.0"/>
      <point x="1170.0" y="296.0"/>
      <point x="1170.0" y="531.0" type="curve" smooth="yes"/>
      <point x="1170.0" y="852.0"/>
      <point x="970.0" y="1078.0"/>
      <point x="660.0" y="1078.0" type="curve" smooth="yes"/>
      <point x="309.0" y="1078.0"/>
      <point x="50.0" y="781.0"/>
    </contour>
    <contour>
      <point x="712.0" y="561.0" type="curve" smooth="yes"/>
      <point x="712.0" y="430.0"/>
      <point x="627.0" y="266.0"/>
      <point x="524.0" y="266.0" type="curve" smooth="yes"/>
      <point x="486.0" y="266.0"/>
      <point x="458.0" y="294.0"/>
      <point x="458.0" y="359.0" type="curve" smooth="yes"/>
      <point x="458.0" y="508.0"/>
      <point x="563.0" y="658.0"/>
      <point x="636.0" y="658.0" type="curve" smooth="yes"/>
      <point x="683.0" y="658.0"/>
      <point x="712.0" y="623.0"/>
    </contour>
  </outline>
</glyph>
<glyph name="B" format="2">
  <advance width="1228"/>
  <unicode hex="0042"/>
  <outline>
    <contour>
      <point x="268.0" y="1187.0" type="line" smooth="yes"/>
      <point x="223.0" y="1187.0"/>
      <point x="205.0" y="1169.0"/>
      <point x="205.0" y="1119.0" type="curve" smooth="yes"/>
      <point x="205.0" y="68.0" type="line" smooth="yes"/>
      <point x="205.0" y="18.0"/>
      <point x="223.0" y="0.0"/>
      <point x="268.0" y="0.0" type="curve" smooth="yes"/>
      <point x="690.0" y="0.0" type="line" smooth="yes"/>
      <point x="936.0" y="0.0"/>
      <point x="1074.0" y="126.0"/>
      <point x="1074.0" y="336.0" type="curve" smooth="yes"/>
      <point x="1074.0" y="480.0"/>
      <point x="1000.0" y="576.0"/>
      <point x="874.0" y="623.0" type="curve"/>
      <point x="957.0" y="671.0"/>
      <point x="1008.0" y="750.0"/>
      <point x="1008.0" y="858.0" type="curve" smooth="yes"/>
      <point x="1008.0" y="1051.0"/>
      <point x="883.0" y="1187.0"/>
      <point x="644.0" y="1187.0" type="curve" smooth="yes"/>
    </contour>
    <contour>
      <point x="920.0" y="336.0" type="curve" smooth="yes"/>
      <point x="920.0" y="207.0"/>
      <point x="825.0" y="144.0"/>
      <point x="670.0" y="144.0" type="curve" smooth="yes"/>
      <point x="355.0" y="144.0" type="line"/>
      <point x="355.0" y="531.0" type="line"/>
      <point x="665.0" y="531.0" type="line" smooth="yes"/>
      <point x="832.0" y="531.0"/>
      <point x="920.0" y="467.0"/>
    </contour>
    <contour>
      <point x="854.0" y="858.0" type="curve" smooth="yes"/>
      <point x="854.0" y="742.0"/>
      <point x="778.0" y="675.0"/>
      <point x="622.0" y="675.0" type="curve" smooth="yes"/>
      <point x="355.0" y="675.0" type="line"/>
      <point x="355.0" y="1043.0" type="line"/>
      <point x="622.0" y="1043.0" type="line" smooth="yes"/>
      <point x="779.0" y="1043.0"/>
      <point x="854.0" y="979.0"/>
    </contour>
  </outline>
</glyph>
<glyph name="C" format="2">
  <advance width="1228"/>
  <unicode hex="0043"/>
  <outline>
    <contour>
      <point x="150.0" y="594.0" type="curve" smooth="yes"/>
      <point x="150.0" y="224.0"/>
      <point x="355.0" y="-22.0"/>
      <point x="664.0" y="-22.0" type="curve" smooth="yes"/>
      <point x="797.0" y="-22.0"/>
      <point x="916.0" y="10.0"/>
      <point x="1037.0" y="79.0" type="curve" smooth="yes"/>
      <point x="1075.0" y="101.0"/>
      <point x="1084.0" y="133.0"/>
      <point x="1061.0" y="183.0" type="curve" smooth="yes"/>
      <point x="1037.0" y="235.0"/>
      <point x="1003.0" y="233.0"/>
      <point x="974.0" y="216.0" type="curve" smooth="yes"/>
      <point x="877.0" y="158.0"/>
      <point x="775.0" y="126.0"/>
      <point x="664.0" y="126.0" type="curve" smooth="yes"/>
      <point x="447.0" y="126.0"/>
      <point x="304.0" y="306.0"/>
      <point x="304.0" y="594.0" type="curve" smooth="yes"/>
      <point x="304.0" y="882.0"/>
      <point x="447.0" y="1061.0"/>
      <point x="664.0" y="1061.0" type="curve" smooth="yes"/>
      <point x="775.0" y="1061.0"/>
      <point x="877.0" y="1029.0"/>
      <point x="974.0" y="971.0" type="curve" smooth="yes"/>
      <point x="1003.0" y="954.0"/>
      <point x="1037.0" y="952.0"/>
      <point x="1061.0" y="1004.0" type="curve" smooth="yes"/>
      <point x="1084.0" y="1054.0"/>
      <point x="1075.0" y="1086.0"/>
      <point x="1037.0" y="1108.0" type="curve" smooth="yes"/>
      <point x="916.0" y="1177.0"/>
      <point x="797.0" y="1209.0"/>
      <point x="664.0" y="1209.0" type="curve" smooth="yes"/>
      <point x="355.0" y="1209.0"/>
      <point x="150.0" y="964.0"/>
    </contour>
  </outline>
</glyph>
<glyph name="D" format="2">
  <advance width="1228"/>
  <unicode hex="0044"/>
  <outline>
    <contour>
      <point x="238.0" y="1187.0" type="line" smooth="yes"/>
      <point x="193.0" y="1187.0"/>
      <point x="175.0" y="1169.0"/>
      <point x="175.0" y="1119.0" type="curve" smooth="yes"/>
      <point x="175.0" y="68.0" type="line" smooth="yes"/>
      <point x="175.0" y="18.0"/>
      <point x="193.0" y="0.0"/>
      <point x="238.0" y="0.0" type="curve" smooth="yes"/>
      <point x="574.0" y="0.0" type="line" smooth="yes"/>
      <point x="889.0" y="0.0"/>
      <point x="1100.0" y="223.0"/>
      <point x="1100.0" y="593.0" type="curve" smooth="yes"/>
      <point x="1100.0" y="963.0"/>
      <point x="889.0" y="1187.0"/>
      <point x="574.0" y="1187.0" type="curve" smooth="yes"/>
    </contour>
    <contour>
      <point x="946.0" y="593.0" type="curve" smooth="yes"/>
      <point x="946.0" y="295.0"/>
      <point x="792.0" y="144.0"/>
      <point x="555.0" y="144.0" type="curve" smooth="yes"/>
      <point x="325.0" y="144.0" type="line"/>
      <point x="325.0" y="1043.0" type="line"/>
      <point x="555.0" y="1043.0" type="line" smooth="yes"/>
      <point x="792.0" y="1043.0"/>
      <point x="946.0" y="891.0"/>
    </contour>
  </outline>
</glyph>
<glyph name="E" format="2">
  <advance width="1228"/>
  <unicode hex="0045"/>
  <outline>
    <contour>
      <point x="288.0" y="1187.0" type="line" smooth="yes"/>
      <point x="243.0" y="1187.0"/>
      <point x="225.0" y="1169.0"/>
      <point x="225.0" y="1119.0" type="curve" smooth="yes"/>
      <point x="225.0" y="68.0" type="line" smooth="yes"/>
      <point x="225.0" y="18.0"/>
      <point x="243.0" y="0.0"/>
      <point x="288.0" y="0.0" type="curve" smooth="yes"/>
      <point x="977.0" y="0.0" type="line" smooth="yes"/>
      <point x="1022.0" y="0.0"/>
      <point x="1040.0" y="20.0"/>
      <point x="1040.0" y="72.0" type="curve" smooth="yes"/>
      <point x="1040.0" y="124.0"/>
      <point x="1022.0" y="144.0"/>
      <point x="977.0" y="144.0" type="curve" smooth="yes"/>
      <point x="375.0" y="144.0" type="line"/>
      <point x="375.0" y="540.0" type="line"/>
      <point x="832.0" y="540.0" type="line" smooth="yes"/>
      <point x="877.0" y="540.0"/>
      <point x="895.0" y="560.0"/>
      <point x="895.0" y="612.0" type="curve" smooth="yes"/>
      <point x="895.0" y="664.0"/>
      <point x="877.0" y="684.0"/>
      <point x="832.0" y="684.0" type="curve" smooth="yes"/>
      <point x="375.0" y="684.0" type="line"/>
      <point x="375.0" y="1043.0" type="line"/>
      <point x="957.0" y="1043.0" type="line" smooth="yes"/>
      <point x="1002.0" y="1043.0"/>
      <point x="1020.0" y="1063.0"/>
      <point x="1020.0" y="1115.0" type="curve" smooth="yes"/>
      <point x="1020.0" y="1167.0"/>
      <point x="1002.0" y="1187.0"/>
      <point x="957.0" y="1187.0" type="curve" smooth="yes"/>
    </contour>
  </outline>
</glyph>
<glyph name="F" format="2">
  <advance width="1228"/>
  <unicode hex="0046"/>
  <outline>
    <contour>
      <point x="308.0" y="1187.0" type="line" smooth="yes"/>
      <point x="266.0" y="1187.0"/>
      <point x="245.0" y="1169.0"/>
      <point x="245.0" y="1119.0" type="curve" smooth="yes"/>
      <point x="245.0" y="55.0" type="line" smooth="yes"/>
      <point x="245.0" y="9.0"/>
      <point x="263.0" y="-10.0"/>
      <point x="319.0" y="-10.0" type="curve" smooth="yes"/>
      <point x="321.0" y="-10.0" type="line" smooth="yes"/>
      <point x="377.0" y="-10.0"/>
      <point x="395.0" y="9.0"/>
      <point x="395.0" y="55.0" type="curve" smooth="yes"/>
      <point x="395.0" y="500.0" type="line"/>
      <point x="862.0" y="500.0" type="line" smooth="yes"/>
      <point x="907.0" y="500.0"/>
      <point x="925.0" y="520.0"/>
      <point x="925.0" y="572.0" type="curve" smooth="yes"/>
      <point x="925.0" y="624.0"/>
      <point x="907.0" y="644.0"/>
      <point x="862.0" y="644.0" type="curve" smooth="yes"/>
      <point x="395.0" y="644.0" type="line"/>
      <point x="395.0" y="1043.0" type="line"/>
      <point x="977.0" y="1043.0" type="line" smooth="yes"/>
      <point x="1022.0" y="1043.0"/>
      <point x="1040.0" y="1063.0"/>
      <point x="1040.0" y="1115.0" type="curve" smooth="yes"/>
      <point x="1040.0" y="1167.0"/>
      <point x="1022.0" y="1187.0"/>
      <point x="977.0" y="1187.0" type="curve" smooth="yes"/>
    </contour>
  </outline>
</glyph>
<glyph name="G" format="2">
  <advance width="1228"/>
  <unicode hex="0047"/>
  <outline>
    <contour>
      <point x="110.0" y="594.0" type="curve" smooth="yes"/>
      <point x="110.0" y="224.0"/>
      <point x="319.0" y="-22.0"/>
      <point x="634.0" y="-22.0" type="curve" smooth="yes"/>
      <point x="788.0" y="-22.0"/>
      <point x="937.0" y="11.0"/>
      <point x="1047.0" y="74.0" type="curve" smooth="yes"/>
      <point x="1070.0" y="87.0"/>
      <point x="1083.0" y="111.0"/>
      <point x="1083.0" y="143.0" type="curve" smooth="yes"/>
      <point x="1083.0" y="526.0" type="line" smooth="yes"/>
      <point x="1083.0" y="576.0"/>
      <point x="1065.0" y="594.0"/>
      <point x="1020.0" y="594.0" type="curve" smooth="yes"/>
      <point x="666.0" y="594.0" type="line" smooth="yes"/>
      <point x="621.0" y="594.0"/>
      <point x="603.0" y="574.0"/>
      <point x="603.0" y="522.0" type="curve" smooth="yes"/>
      <point x="603.0" y="470.0"/>
      <point x="621.0" y="450.0"/>
      <point x="666.0" y="450.0" type="curve" smooth="yes"/>
      <point x="933.0" y="450.0" type="line"/>
      <point x="933.0" y="182.67604064941406" type="line"/>
      <point x="845.9449462890625" y="142.61952209472656"/>
      <point x="747.0357666015625" y="126.0"/>
      <point x="634.0" y="126.0" type="curve" smooth="yes"/>
      <point x="412.0" y="126.0"/>
      <point x="264.0" y="306.0"/>
      <point x="264.0" y="594.0" type="curve" smooth="yes"/>
      <point x="264.0" y="882.0"/>
      <point x="427.0" y="1061.0"/>
      <point x="644.0" y="1061.0" type="curve" smooth="yes"/>
      <point x="755.0" y="1061.0"/>
      <point x="857.0" y="1036.0"/>
      <point x="955.0" y="980.0" type="curve" smooth="yes"/>
      <point x="985.0" y="963.0"/>
      <point x="1019.0" y="962.0"/>
      <point x="1042.0" y="1015.0" type="curve" smooth="yes"/>
      <point x="1063.0" y="1065.0"/>
      <point x="1054.0" y="1097.0"/>
      <point x="1015.0" y="1118.0" type="curve" smooth="yes"/>
      <point x="893.0" y="1184.0"/>
      <point x="777.0" y="1209.0"/>
      <point x="644.0" y="1209.0" type="curve" smooth="yes"/>
      <point x="335.0" y="1209.0"/>
      <point x="110.0" y="964.0"/>
    </contour>
  </outline>
</glyph>
<glyph name="H" format="2">
  <advance width="1228"/>
  <unicode hex="0048"/>
  <outline>
    <contour>
      <point x="977.0" y="1197.0" type="line" smooth="yes"/>
      <point x="921.0" y="1197.0"/>
      <point x="903.0" y="1178.0"/>
      <point x="903.0" y="1132.0" type="curve" smooth="yes"/>
      <point x="903.0" y="684.0" type="line"/>
      <point x="325.0" y="684.0" type="line"/>
      <point x="325.0" y="1132.0" type="line" smooth="yes"/>
      <point x="325.0" y="1178.0"/>
      <point x="307.0" y="1197.0"/>
      <point x="251.0" y="1197.0" type="curve" smooth="yes"/>
      <point x="249.0" y="1197.0" type="line" smooth="yes"/>
      <point x="193.0" y="1197.0"/>
      <point x="175.0" y="1178.0"/>
      <point x="175.0" y="1132.0" type="curve" smooth="yes"/>
      <point x="175.0" y="55.0" type="line" smooth="yes"/>
      <point x="175.0" y="9.0"/>
      <point x="193.0" y="-10.0"/>
      <point x="249.0" y="-10.0" type="curve" smooth="yes"/>
      <point x="251.0" y="-10.0" type="line" smooth="yes"/>
      <point x="307.0" y="-10.0"/>
      <point x="325.0" y="9.0"/>
      <point x="325.0" y="55.0" type="curve" smooth="yes"/>
      <point x="325.0" y="540.0" type="line"/>
      <point x="903.0" y="540.0" type="line"/>
      <point x="903.0" y="55.0" type="line" smooth="yes"/>
      <point x="903.0" y="9.0"/>
      <point x="921.0" y="-10.0"/>
      <point x="977.0" y="-10.0" type="curve" smooth="yes"/>
      <point x="979.0" y="-10.0" type="line" smooth="yes"/>
      <point x="1035.0" y="-10.0"/>
      <point x="1053.0" y="9.0"/>
      <point x="1053.0" y="55.0" type="curve" smooth="yes"/>
      <point x="1053.0" y="1132.0" type="line" smooth="yes"/>
      <point x="1053.0" y="1178.0"/>
      <point x="1035.0" y="1197.0"/>
      <point x="979.0" y="1197.0" type="curve" smooth="yes"/>
    </contour>
  </outline>
</glyph>
<glyph name="J" format="2">
  <advance width="1228"/>
  <unicode hex="004A"/>
  <outline>
    <contour>
      <point x="443.0" y="1187.0" type="line" smooth="yes"/>
      <point x="398.0" y="1187.0"/>
      <point x="380.0" y="1167.0"/>
      <point x="380.0" y="1115.0" type="curve" smooth="yes"/>
      <point x="380.0" y="1063.0"/>
      <point x="398.0" y="1043.0"/>
      <point x="443.0" y="1043.0" type="curve" smooth="yes"/>
      <point x="804.0" y="1043.0" type="line"/>
      <point x="804.0" y="363.0" type="line" smooth="yes"/>
      <point x="804.0" y="210.0"/>
      <point x="734.0" y="126.0"/>
      <point x="582.0" y="126.0" type="curve" smooth="yes"/>
      <point x="478.0" y="126.0"/>
      <point x="377.0" y="160.0"/>
      <point x="294.0" y="222.0" type="curve" smooth="yes"/>
      <point x="268.0" y="242.0"/>
      <point x="234.0" y="246.0"/>
      <point x="202.0" y="197.0" type="curve" smooth="yes"/>
      <point x="173.0" y="151.0"/>
      <point x="179.0" y="118.0"/>
      <point x="214.0" y="92.0" type="curve" smooth="yes"/>
      <point x="315.0" y="17.0"/>
      <point x="449.0" y="-22.0"/>
      <point x="581.0" y="-22.0" type="curve" smooth="yes"/>
      <point x="817.0" y="-22.0"/>
      <point x="954.0" y="104.0"/>
      <point x="954.0" y="333.0" type="curve" smooth="yes"/>
      <point x="954.0" y="1119.0" type="line" smooth="yes"/>
      <point x="954.0" y="1169.0"/>
      <point x="933.0" y="1187.0"/>
      <point x="891.0" y="1187.0" type="curve" smooth="yes"/>
    </contour>
  </outline>
</glyph>
<glyph name="K" format="2">
  <advance width="1228"/>
  <unicode hex="004B"/>
  <outline>
    <contour>
      <point x="289.0" y="1197.0" type="line" smooth="yes"/>
      <point x="233.0" y="1197.0"/>
      <point x="215.0" y="1178.0"/>
      <point x="215.0" y="1132.0" type="curve" smooth="yes"/>
      <point x="215.0" y="55.0" type="line" smooth="yes"/>
      <point x="215.0" y="9.0"/>
      <point x="233.0" y="-10.0"/>
      <point x="289.0" y="-10.0" type="curve" smooth="yes"/>
      <point x="291.0" y="-10.0" type="line" smooth="yes"/>
      <point x="347.0" y="-10.0"/>
      <point x="365.0" y="9.0"/>
      <point x="365.0" y="55.0" type="curve" smooth="yes"/>
      <point x="365.0" y="365.58740234375" type="line"/>
      <point x="538.9578857421875" y="549.763427734375" type="line"/>
      <point x="953.0" y="6.0" type="line" smooth="yes"/>
      <point x="978.0" y="-27.0"/>
      <point x="1008.0" y="-25.0"/>
      <point x="1052.0" y="0.0" type="curve" smooth="yes"/>
      <point x="1101.0" y="28.0"/>
      <point x="1106.0" y="55.0"/>
      <point x="1078.0" y="92.0" type="curve" smooth="yes"/>
      <point x="643.9754028320312" y="660.9496459960938" type="line"/>
      <point x="1053.0" y="1094.0" type="line" smooth="yes"/>
      <point x="1085.0" y="1127.0"/>
      <point x="1083.0" y="1156.0"/>
      <point x="1036.0" y="1187.0" type="curve" smooth="yes"/>
      <point x="996.0" y="1213.0"/>
      <point x="959.0" y="1216.0"/>
      <point x="936.0" y="1191.0" type="curve" smooth="yes"/>
      <point x="365.0" y="583.9022827148438" type="line"/>
      <point x="365.0" y="1132.0" type="line" smooth="yes"/>
      <point x="365.0" y="1178.0"/>
      <point x="347.0" y="1197.0"/>
      <point x="291.0" y="1197.0" type="curve" smooth="yes"/>
    </contour>
  </outline>
</glyph>
<glyph name="M" format="2">
  <advance width="1228"/>
  <unicode hex="004D"/>
  <outline>
    <contour>
      <point x="976.0" y="1197.0" type="line" smooth="yes"/>
      <point x="929.0" y="1197.0"/>
      <point x="900.0" y="1177.0"/>
      <point x="879.0" y="1132.0" type="curve" smooth="yes"/>
      <point x="614.0" y="562.0" type="line"/>
      <point x="349.0" y="1132.0" type="line" smooth="yes"/>
      <point x="328.0" y="1177.0"/>
      <point x="300.0" y="1197.0"/>
      <point x="253.0" y="1197.0" type="curve" smooth="yes"/>
      <point x="251.0" y="1197.0" type="line" smooth="yes"/>
      <point x="204.0" y="1197.0"/>
      <point x="176.0" y="1182.0"/>
      <point x="175.0" y="1132.0" type="curve" smooth="yes"/>
      <point x="145.0" y="55.0" type="line" smooth="yes"/>
      <point x="144.0" y="9.0"/>
      <point x="162.0" y="-10.0"/>
      <point x="218.0" y="-10.0" type="curve" smooth="yes"/>
      <point x="220.0" y="-10.0" type="line" smooth="yes"/>
      <point x="276.0" y="-10.0"/>
      <point x="293.0" y="9.0"/>
      <point x="294.0" y="55.0" type="curve" smooth="yes"/>
      <point x="315.0" y="868.0" type="line"/>
      <point x="522.0" y="422.0" type="line" smooth="yes"/>
      <point x="544.0" y="375.0"/>
      <point x="569.0" y="358.0"/>
      <point x="614.0" y="358.0" type="curve" smooth="yes"/>
      <point x="659.0" y="358.0"/>
      <point x="684.0" y="375.0"/>
      <point x="706.0" y="422.0" type="curve" smooth="yes"/>
      <point x="913.0" y="868.0" type="line"/>
      <point x="934.0" y="55.0" type="line" smooth="yes"/>
      <point x="935.0" y="9.0"/>
      <point x="952.0" y="-10.0"/>
      <point x="1008.0" y="-10.0" type="curve" smooth="yes"/>
      <point x="1010.0" y="-10.0" type="line" smooth="yes"/>
      <point x="1066.0" y="-10.0"/>
      <point x="1084.0" y="9.0"/>
      <point x="1083.0" y="55.0" type="curve" smooth="yes"/>
      <point x="1053.0" y="1132.0" type="line" smooth="yes"/>
      <point x="1052.0" y="1182.0"/>
      <point x="1025.0" y="1197.0"/>
      <point x="978.0" y="1197.0" type="curve" smooth="yes"/>
    </contour>
  </outline>
</glyph>
<glyph name="N" format="2">
  <advance width="1228"/>
  <unicode hex="004E"/>
  <outline>
    <contour>
      <point x="979.0" y="1197.0" type="line" smooth="yes"/>
      <point x="925.0" y="1197.0"/>
      <point x="907.0" y="1178.0"/>
      <point x="907.0" y="1132.0" type="curve" smooth="yes"/>
      <point x="907.0" y="287.0" type="line"/>
      <point x="903.0" y="287.0" type="line"/>
      <point x="339.0" y="1169.0" type="line" smooth="yes"/>
      <point x="327.0" y="1187.0"/>
      <point x="306.0" y="1197.0"/>
      <point x="277.0" y="1197.0" type="curve" smooth="yes"/>
      <point x="250.0" y="1197.0" type="line" smooth="yes"/>
      <point x="194.0" y="1197.0"/>
      <point x="175.0" y="1178.0"/>
      <point x="175.0" y="1132.0" type="curve" smooth="yes"/>
      <point x="175.0" y="55.0" type="line" smooth="yes"/>
      <point x="175.0" y="9.0"/>
      <point x="193.0" y="-10.0"/>
      <point x="247.0" y="-10.0" type="curve" smooth="yes"/>
      <point x="249.0" y="-10.0" type="line" smooth="yes"/>
      <point x="303.0" y="-10.0"/>
      <point x="321.0" y="9.0"/>
      <point x="321.0" y="55.0" type="curve" smooth="yes"/>
      <point x="321.0" y="921.0" type="line"/>
      <point x="325.0" y="921.0" type="line"/>
      <point x="894.0" y="33.0" type="line" smooth="yes"/>
      <point x="916.0" y="-1.0"/>
      <point x="940.0" y="-22.0"/>
      <point x="978.0" y="-22.0" type="curve" smooth="yes"/>
      <point x="1030.0" y="-22.0"/>
      <point x="1053.0" y="2.0"/>
      <point x="1053.0" y="37.0" type="curve" smooth="yes"/>
      <point x="1053.0" y="1132.0" type="line" smooth="yes"/>
      <point x="1053.0" y="1178.0"/>
      <point x="1035.0" y="1197.0"/>
      <point x="981.0" y="1197.0" type="curve" smooth="yes"/>
    </contour>
  </outline>
</glyph>
<glyph name="P" format="2">
  <advance width="1228"/>
  <unicode hex="0050"/>
  <outline>
    <contour>
      <point x="298.0" y="1187.0" type="line" smooth="yes"/>
      <point x="253.0" y="1187.0"/>
      <point x="235.0" y="1169.0"/>
      <point x="235.0" y="1119.0" type="curve" smooth="yes"/>
      <point x="235.0" y="55.0" type="line" smooth="yes"/>
      <point x="235.0" y="9.0"/>
      <point x="253.0" y="-10.0"/>
      <point x="309.0" y="-10.0" type="curve" smooth="yes"/>
      <point x="311.0" y="-10.0" type="line" smooth="yes"/>
      <point x="367.0" y="-10.0"/>
      <point x="385.0" y="9.0"/>
      <point x="385.0" y="55.0" type="curve" smooth="yes"/>
      <point x="385.0" y="393.0" type="line"/>
      <point x="640.0" y="393.0" type="line" smooth="yes"/>
      <point x="920.0" y="393.0"/>
      <point x="1072.0" y="553.0"/>
      <point x="1072.0" y="788.0" type="curve" smooth="yes"/>
      <point x="1072.0" y="1024.0"/>
      <point x="920.0" y="1187.0"/>
      <point x="640.0" y="1187.0" type="curve" smooth="yes"/>
    </contour>
    <contour>
      <point x="385.0" y="537.0" type="line"/>
      <point x="385.0" y="1043.0" type="line"/>
      <point x="619.0" y="1043.0" type="line" smooth="yes"/>
      <point x="816.0" y="1043.0"/>
      <point x="918.0" y="949.0"/>
      <point x="918.0" y="788.0" type="curve" smooth="yes"/>
      <point x="918.0" y="629.0"/>
      <point x="816.0" y="537.0"/>
      <point x="619.0" y="537.0" type="curve" smooth="yes"/>
    </contour>
  </outline>
</glyph>
<glyph name="Q" format="2">
  <advance width="1228"/>
  <unicode hex="0051"/>
  <outline>
    <contour>
      <point x="597.0" y="300.0" type="curve" smooth="yes"/>
      <point x="728.0" y="95.0" type="line"/>
      <point x="754.0" y="54.0" type="line"/>
      <point x="876.0" y="-135.0" type="line" smooth="yes"/>
      <point x="901.0" y="-173.0"/>
      <point x="927.0" y="-179.0"/>
      <point x="974.0" y="-149.0" type="curve" smooth="yes"/>
      <point x="1022.0" y="-119.0"/>
      <point x="1027.0" y="-92.0"/>
      <point x="1002.0" y="-54.0" type="curve" smooth="yes"/>
      <point x="723.0" y="381.0" type="line" smooth="yes"/>
      <point x="698.0" y="420.0"/>
      <point x="672.0" y="426.0"/>
      <point x="625.0" y="396.0" type="curve" smooth="yes"/>
      <point x="578.0" y="365.0"/>
      <point x="572.0" y="339.0"/>
    </contour>
    <component base="O"/>
  </outline>
</glyph>
<glyph name="R" format="2">
  <advance width="1228"/>
  <unicode hex="0052"/>
  <outline>
    <contour>
      <point x="298.0" y="1187.0" type="line" smooth="yes"/>
      <point x="253.0" y="1187.0"/>
      <point x="235.0" y="1169.0"/>
      <point x="235.0" y="1119.0" type="curve" smooth="yes"/>
      <point x="235.0" y="55.0" type="line" smooth="yes"/>
      <point x="235.0" y="9.0"/>
      <point x="253.0" y="-10.0"/>
      <point x="309.0" y="-10.0" type="curve" smooth="yes"/>
      <point x="311.0" y="-10.0" type="line" smooth="yes"/>
      <point x="367.0" y="-10.0"/>
      <point x="385.0" y="9.0"/>
      <point x="385.0" y="55.0" type="curve" smooth="yes"/>
      <point x="385.0" y="473.0" type="line"/>
      <point x="606.8355712890625" y="473.0" type="line"/>
      <point x="905.0" y="13.0" type="line" smooth="yes"/>
      <point x="926.0" y="-20.0"/>
      <point x="953.0" y="-22.0"/>
      <point x="1002.0" y="0.0" type="curve" smooth="yes"/>
      <point x="1053.0" y="23.0"/>
      <point x="1060.0" y="49.0"/>
      <point x="1035.0" y="88.0" type="curve" smooth="yes"/>
      <point x="770.9830932617188" y="490.392333984375" type="line"/>
      <point x="942.6657104492188" y="534.12158203125"/>
      <point x="1032.0" y="657.468994140625"/>
      <point x="1032.0" y="828.0" type="curve" smooth="yes"/>
      <point x="1032.0" y="1044.0"/>
      <point x="890.0" y="1187.0"/>
      <point x="620.0" y="1187.0" type="curve" smooth="yes"/>
    </contour>
    <contour>
      <point x="385.0" y="1043.0" type="line"/>
      <point x="599.0" y="1043.0" type="line" smooth="yes"/>
      <point x="786.0" y="1043.0"/>
      <point x="878.0" y="969.0"/>
      <point x="878.0" y="828.0" type="curve" smooth="yes"/>
      <point x="878.0" y="689.0"/>
      <point x="786.0" y="617.0"/>
      <point x="599.0" y="617.0" type="curve" smooth="yes"/>
      <point x="385.0" y="617.0" type="line"/>
    </contour>
  </outline>
</glyph>
<glyph name="S" format="2">
  <advance width="1228"/>
  <unicode hex="0053"/>
  <outline>
    <contour>
      <point x="172.0" y="863.0" type="curve" smooth="yes"/>
      <point x="172.0" y="724.0"/>
      <point x="241.0" y="651.0"/>
      <point x="336.0" y="608.0" type="curve" smooth="yes"/>
      <point x="473.0" y="546.0"/>
      <point x="664.0" y="544.0"/>
      <point x="787.0" y="492.0" type="curve" smooth="yes"/>
      <point x="859.0" y="461.0"/>
      <point x="908.0" y="414.0"/>
      <point x="908.0" y="327.0" type="curve" smooth="yes"/>
      <point x="908.0" y="209.0"/>
      <point x="817.0" y="126.0"/>
      <point x="622.0" y="126.0" type="curve" smooth="yes"/>
      <point x="491.0" y="126.0"/>
      <point x="365.0" y="171.0"/>
      <point x="270.0" y="232.0" type="curve" smooth="yes"/>
      <point x="242.0" y="250.0"/>
      <point x="208.0" y="251.0"/>
      <point x="181.0" y="199.0" type="curve" smooth="yes"/>
      <point x="156.0" y="151.0"/>
      <point x="164.0" y="117.0"/>
      <point x="201.0" y="94.0" type="curve" smooth="yes"/>
      <point x="319.0" y="21.0"/>
      <point x="469.0" y="-22.0"/>
      <point x="622.0" y="-22.0" type="curve" smooth="yes"/>
      <point x="916.0" y="-22.0"/>
      <point x="1062.0" y="121.0"/>
      <point x="1062.0" y="327.0" type="curve" smooth="yes"/>
      <point x="1062.0" y="503.0"/>
      <point x="973.0" y="587.0"/>
      <point x="856.0" y="634.0" type="curve" smooth="yes"/>
      <point x="705.0" y="695.0"/>
      <point x="509.0" y="694.0"/>
      <point x="403.0" y="748.0" type="curve" smooth="yes"/>
      <point x="355.0" y="772.0"/>
      <point x="326.0" y="807.0"/>
      <point x="326.0" y="863.0" type="curve" smooth="yes"/>
      <point x="326.0" y="985.0"/>
      <point x="418.0" y="1061.0"/>
      <point x="578.0" y="1061.0" type="curve" smooth="yes"/>
      <point x="709.0" y="1061.0"/>
      <point x="826.0" y="1027.0"/>
      <point x="923.0" y="969.0" type="curve" smooth="yes"/>
      <point x="952.0" y="952.0"/>
      <point x="987.0" y="952.0"/>
      <point x="1011.0" y="1004.0" type="curve" smooth="yes"/>
      <point x="1034.0" y="1054.0"/>
      <point x="1026.0" y="1087.0"/>
      <point x="988.0" y="1109.0" type="curve" smooth="yes"/>
      <point x="867.0" y="1178.0"/>
      <point x="731.0" y="1209.0"/>
      <point x="578.0" y="1209.0" type="curve" smooth="yes"/>
      <point x="338.0" y="1209.0"/>
      <point x="172.0" y="1080.0"/>
    </contour>
  </outline>
</glyph>
<glyph name="V" format="2">
  <advance width="1228"/>
  <unicode hex="0056"/>
  <outline>
    <contour>
      <point x="973.0" y="1151.0" type="curve" smooth="yes"/>
      <point x="612.0" y="182.0" type="line"/>
      <point x="251.0" y="1151.0" type="line" smooth="yes"/>
      <point x="235.0" y="1195.0"/>
      <point x="210.0" y="1207.0"/>
      <point x="157.0" y="1189.0" type="curve" smooth="yes"/>
      <point x="103.0" y="1171.0"/>
      <point x="89.0" y="1147.0"/>
      <point x="106.0" y="1103.0" type="curve" smooth="yes"/>
      <point x="505.0" y="43.0" type="line" smooth="yes"/>
      <point x="523.0" y="-4.0"/>
      <point x="555.0" y="-22.0"/>
      <point x="612.0" y="-22.0" type="curve" smooth="yes"/>
      <point x="669.0" y="-22.0"/>
      <point x="701.0" y="-4.0"/>
      <point x="719.0" y="43.0" type="curve" smooth="yes"/>
      <point x="1118.0" y="1103.0" type="line" smooth="yes"/>
      <point x="1135.0" y="1147.0"/>
      <point x="1121.0" y="1171.0"/>
      <point x="1067.0" y="1189.0" type="curve" smooth="yes"/>
      <point x="1014.0" y="1207.0"/>
      <point x="989.0" y="1195.0"/>
    </contour>
  </outline>
</glyph>
<glyph name="W" format="2">
  <advance width="1228"/>
  <unicode hex="0057"/>
  <outline>
    <contour>
      <point x="1003.0" y="1139.0" type="curve" smooth="yes"/>
      <point x="891.0" y="258.0" type="line"/>
      <point x="684.0" y="845.0" type="line" smooth="yes"/>
      <point x="675.0" y="871.0"/>
      <point x="654.0" y="885.0"/>
      <point x="610.0" y="885.0" type="curve" smooth="yes"/>
      <point x="566.0" y="885.0"/>
      <point x="545.0" y="871.0"/>
      <point x="536.0" y="845.0" type="curve" smooth="yes"/>
      <point x="329.0" y="258.0" type="line"/>
      <point x="217.0" y="1139.0" type="line" smooth="yes"/>
      <point x="211.0" y="1186.0"/>
      <point x="191.0" y="1202.0"/>
      <point x="135.0" y="1196.0" type="curve" smooth="yes"/>
      <point x="79.0" y="1189.0"/>
      <point x="61.0" y="1169.0"/>
      <point x="68.0" y="1122.0" type="curve" smooth="yes"/>
      <point x="217.0" y="43.0" type="line" smooth="yes"/>
      <point x="224.0" y="-6.0"/>
      <point x="252.0" y="-22.0"/>
      <point x="303.0" y="-22.0" type="curve" smooth="yes"/>
      <point x="354.0" y="-22.0"/>
      <point x="387.0" y="-2.0"/>
      <point x="403.0" y="43.0" type="curve" smooth="yes"/>
      <point x="610.0" y="629.0" type="line"/>
      <point x="817.0" y="43.0" type="line" smooth="yes"/>
      <point x="833.0" y="-2.0"/>
      <point x="866.0" y="-22.0"/>
      <point x="917.0" y="-22.0" type="curve" smooth="yes"/>
      <point x="968.0" y="-22.0"/>
      <point x="996.0" y="-6.0"/>
      <point x="1003.0" y="43.0" type="curve" smooth="yes"/>
      <point x="1152.0" y="1122.0" type="line" smooth="yes"/>
      <point x="1159.0" y="1169.0"/>
      <point x="1141.0" y="1189.0"/>
      <point x="1085.0" y="1196.0" type="curve" smooth="yes"/>
      <point x="1029.0" y="1202.0"/>
      <point x="1009.0" y="1186.0"/>
    </contour>
  </outline>
</glyph>
<glyph name="X" format="2">
  <advance width="1228"/>
  <unicode hex="0058"/>
  <outline>
    <contour>
      <point x="916.0" y="1172.0" type="curve" smooth="yes"/>
      <point x="620.7265014648438" y="724.7474975585938" type="line"/>
      <point x="324.0" y="1172.0" type="line" smooth="yes"/>
      <point x="297.0" y="1211.0"/>
      <point x="268.0" y="1210.0"/>
      <point x="217.0" y="1187.0" type="curve" smooth="yes"/>
      <point x="171.0" y="1166.0"/>
      <point x="159.0" y="1138.0"/>
      <point x="187.0" y="1098.0" type="curve" smooth="yes"/>
      <point x="526.116943359375" y="604.654541015625" type="line"/>
      <point x="164.0" y="89.0" type="line" smooth="yes"/>
      <point x="137.0" y="49.0"/>
      <point x="148.0" y="21.0"/>
      <point x="194.0" y="0.0" type="curve" smooth="yes"/>
      <point x="245.0" y="-23.0"/>
      <point x="274.0" y="-25.0"/>
      <point x="301.0" y="15.0" type="curve" smooth="yes"/>
      <point x="618.249755859375" y="486.63836669921875" type="line"/>
      <point x="939.0" y="15.0" type="line" smooth="yes"/>
      <point x="965.0" y="-25.0"/>
      <point x="995.0" y="-23.0"/>
      <point x="1046.0" y="0.0" type="curve" smooth="yes"/>
      <point x="1092.0" y="21.0"/>
      <point x="1104.0" y="50.0"/>
      <point x="1076.0" y="89.0" type="curve" smooth="yes"/>
      <point x="712.8641967773438" y="604.0794067382812" type="line"/>
      <point x="1053.0" y="1098.0" type="line" smooth="yes"/>
      <point x="1081.0" y="1138.0"/>
      <point x="1069.0" y="1166.0"/>
      <point x="1023.0" y="1187.0" type="curve" smooth="yes"/>
      <point x="972.0" y="1210.0"/>
      <point x="943.0" y="1211.0"/>
    </contour>
  </outline>
</glyph>
<glyph name="Y" format="2">
  <advance width="1228"/>
  <unicode hex="0059"/>
  <outline>
    <contour>
      <point x="955.0" y="1172.0" type="curve" smooth="yes"/>
      <point x="614.1995849609375" y="646.019775390625" type="line"/>
      <point x="273.0" y="1172.0" type="line" smooth="yes"/>
      <point x="252.0" y="1205.0"/>
      <point x="223.0" y="1210.0"/>
      <point x="173.0" y="1187.0" type="curve" smooth="yes"/>
      <point x="121.0" y="1163.0"/>
      <point x="114.0" y="1136.0"/>
      <point x="140.0" y="1096.0" type="curve" smooth="yes"/>
      <point x="539.0" y="486.7426452636719" type="line"/>
      <point x="539.0" y="55.0" type="line" smooth="yes"/>
      <point x="539.0" y="9.0"/>
      <point x="557.0" y="-10.0"/>
      <point x="613.0" y="-10.0" type="curve" smooth="yes"/>
      <point x="615.0" y="-10.0" type="line" smooth="yes"/>
      <point x="671.0" y="-10.0"/>
      <point x="689.0" y="9.0"/>
      <point x="689.0" y="55.0" type="curve" smooth="yes"/>
      <point x="689.0" y="487.4532470703125" type="line"/>
      <point x="1088.0" y="1096.0" type="line" smooth="yes"/>
      <point x="1114.0" y="1136.0"/>
      <point x="1107.0" y="1163.0"/>
      <point x="1055.0" y="1187.0" type="curve" smooth="yes"/>
      <point x="1005.0" y="1210.0"/>
      <point x="977.0" y="1205.0"/>
    </contour>
  </outline>
</glyph>
<glyph name="Z" format="2">
  <advance width="1228"/>
  <unicode hex="005A"/>
  <outline>
    <contour>
      <point x="256.0" y="1187.0" type="line" smooth="yes"/>
      <point x="211.0" y="1187.0"/>
      <point x="193.0" y="1167.0"/>
      <point x="193.0" y="1115.0" type="curve" smooth="yes"/>
      <point x="193.0" y="1063.0"/>
      <point x="211.0" y="1043.0"/>
      <point x="256.0" y="1043.0" type="curve" smooth="yes"/>
      <point x="821.5021362304688" y="1043.0" type="line"/>
      <point x="181.0" y="111.0" type="line" smooth="yes"/>
      <point x="173.0" y="99.0"/>
      <point x="167.0" y="86.0"/>
      <point x="167.0" y="68.0" type="curve" smooth="yes"/>
      <point x="167.0" y="18.0"/>
      <point x="185.0" y="0.0"/>
      <point x="230.0" y="0.0" type="curve" smooth="yes"/>
      <point x="996.0" y="0.0" type="line" smooth="yes"/>
      <point x="1041.0" y="0.0"/>
      <point x="1059.0" y="20.0"/>
      <point x="1059.0" y="72.0" type="curve" smooth="yes"/>
      <point x="1059.0" y="124.0"/>
      <point x="1041.0" y="144.0"/>
      <point x="996.0" y="144.0" type="curve" smooth="yes"/>
      <point x="387.5" y="144.0" type="line"/>
      <point x="1031.0" y="1080.0" type="line" smooth="yes"/>
      <point x="1038.0" y="1090.0"/>
      <point x="1041.0" y="1103.0"/>
      <point x="1041.0" y="1119.0" type="curve" smooth="yes"/>
      <point x="1041.0" y="1169.0"/>
      <point x="1023.0" y="1187.0"/>
      <point x="978.0" y="1187.0" type="curve" smooth="yes"/>
    </contour>
  </outline>
</glyph>
<glyph name="bracketleft" format="2">
  <advance width="1228"/>
  <unicode hex="005B"/>
  <outline>
    <contour>
      <point x="393.0" y="1372.0" type="line" smooth="yes"/>
      <point x="348.0" y="1372.0"/>
      <point x="330.0" y="1354.0"/>
      <point x="330.0" y="1304.0" type="curve" smooth="yes"/>
      <point x="330.0" y="-265.0" type="line" smooth="yes"/>
      <point x="330.0" y="-315.0"/>
      <point x="348.0" y="-333.0"/>
      <point x="393.0" y="-333.0" type="curve" smooth="yes"/>
      <point x="807.0" y="-333.0" type="line" smooth="yes"/>
      <point x="852.0" y="-333.0"/>
      <point x="870.0" y="-313.0"/>
      <point x="870.0" y="-261.0" type="curve" smooth="yes"/>
      <point x="870.0" y="-209.0"/>
      <point x="852.0" y="-189.0"/>
      <point x="807.0" y="-189.0" type="curve" smooth="yes"/>
      <point x="480.0" y="-189.0" type="line"/>
      <point x="480.0" y="1228.0" type="line"/>
      <point x="807.0" y="1228.0" type="line" smooth="yes"/>
      <point x="852.0" y="1228.0"/>
      <point x="870.0" y="1248.0"/>
      <point x="870.0" y="1300.0" type="curve" smooth="yes"/>
      <point x="870.0" y="1352.0"/>
      <point x="852.0" y="1372.0"/>
      <point x="807.0" y="1372.0" type="curve" smooth="yes"/>
    </contour>
  </outline>
</glyph>
<glyph name="bracketright" format="2">
  <advance width="1228"/>
  <unicode hex="005D"/>
  <outline>
    <contour>
      <point x="421.0" y="-189.0" type="line" smooth="yes"/>
      <point x="376.0" y="-189.0"/>
      <point x="358.0" y="-209.0"/>
      <point x="358.0" y="-261.0" type="curve" smooth="yes"/>
      <point x="358.0" y="-313.0"/>
      <point x="376.0" y="-333.0"/>
      <point x="421.0" y="-333.0" type="curve" smooth="yes"/>
      <point x="835.0" y="-333.0" type="line" smooth="yes"/>
      <point x="880.0" y="-333.0"/>
      <point x="898.0" y="-315.0"/>
      <point x="898.0" y="-265.0" type="curve" smooth="yes"/>
      <point x="898.0" y="1304.0" type="line" smooth="yes"/>
      <point x="898.0" y="1354.0"/>
      <point x="880.0" y="1372.0"/>
      <point x="835.0" y="1372.0" type="curve" smooth="yes"/>
      <point x="421.0" y="1372.0" type="line" smooth="yes"/>
      <point x="376.0" y="1372.0"/>
      <point x="358.0" y="1352.0"/>
      <point x="358.0" y="1300.0" type="curve" smooth="yes"/>
      <point x="358.0" y="1248.0"/>
      <point x="376.0" y="1228.0"/>
      <point x="421.0" y="1228.0" type="curve" smooth="yes"/>
      <point x="748.0" y="1228.0" type="line"/>
      <point x="748.0" y="-189.0" type="line"/>
    </contour>
  </outline>
</glyph>
<glyph name="asciicircum" format="2">
  <advance width="1228"/>
  <unicode hex="005E"/>
  <outline>
    <contour>
      <point x="546.0" y="1172.0" type="curve" smooth="yes"/>
      <point x="238.0" y="581.0" type="line" smooth="yes"/>
      <point x="220.0" y="547.0"/>
      <point x="247.0" y="520.0"/>
      <point x="283.0" y="509.0" type="curve" smooth="yes"/>
      <point x="319.0" y="497.0"/>
      <point x="363.0" y="500.0"/>
      <point x="377.0" y="527.0" type="curve" smooth="yes"/>
      <point x="614.0" y="1007.0" type="line"/>
      <point x="851.0" y="527.0" type="line" smooth="yes"/>
      <point x="865.0" y="499.0"/>
      <point x="912.0" y="496.0"/>
      <point x="949.0" y="510.0" type="curve" smooth="yes"/>
      <point x="982.0" y="522.0"/>
      <point x="1007.0" y="548.0"/>
      <point x="990.0" y="581.0" type="curve" smooth="yes"/>
      <point x="682.0" y="1172.0" type="line" smooth="yes"/>
      <point x="669.0" y="1196.0"/>
      <point x="653.0" y="1209.0"/>
      <point x="614.0" y="1209.0" type="curve" smooth="yes"/>
      <point x="575.0" y="1209.0"/>
      <point x="559.0" y="1196.0"/>
    </contour>
  </outline>
</glyph>
<glyph name="underscore" format="2">
  <advance width="1228"/>
  <unicode hex="005F"/>
  <outline>
    <contour>
      <point x="133.0" y="-249.0" type="line" smooth="yes"/>
      <point x="88.0" y="-249.0"/>
      <point x="70.0" y="-269.0"/>
      <point x="70.0" y="-321.0" type="curve" smooth="yes"/>
      <point x="70.0" y="-373.0"/>
      <point x="88.0" y="-393.0"/>
      <point x="133.0" y="-393.0" type="curve" smooth="yes"/>
      <point x="1095.0" y="-393.0" type="line" smooth="yes"/>
      <point x="1140.0" y="-393.0"/>
      <point x="1158.0" y="-373.0"/>
      <point x="1158.0" y="-321.0" type="curve" smooth="yes"/>
      <point x="1158.0" y="-269.0"/>
      <point x="1140.0" y="-249.0"/>
      <point x="1095.0" y="-249.0" type="curve" smooth="yes"/>
    </contour>
  </outline>
</glyph>
<glyph name="a" format="2">
  <advance width="1228"/>
  <unicode hex="0061"/>
  <outline>
    <contour>
      <point x="264.0" y="855.0" type="curve" smooth="yes"/>
      <point x="230.0" y="837.0"/>
      <point x="216.0" y="807.0"/>
      <point x="238.0" y="761.0" type="curve" smooth="yes"/>
      <point x="260.0" y="715.0"/>
      <point x="287.0" y="703.0"/>
      <point x="324.0" y="722.0" type="curve" smooth="yes"/>
      <point x="420.0" y="771.0"/>
      <point x="533.0" y="801.0"/>
      <point x="634.0" y="801.0" type="curve" smooth="yes"/>
      <point x="797.0" y="801.0"/>
      <point x="864.0" y="741.0"/>
      <point x="864.0" y="613.0" type="curve" smooth="yes"/>
      <point x="864.0" y="528.3604125976562" type="line"/>
      <point x="770.1140747070312" y="560.9797973632812"/>
      <point x="668.2105712890625" y="579.0"/>
      <point x="560.0" y="579.0" type="curve" smooth="yes"/>
      <point x="341.0" y="579.0"/>
      <point x="159.0" y="494.0"/>
      <point x="159.0" y="270.0" type="curve" smooth="yes"/>
      <point x="159.0" y="84.0"/>
      <point x="299.0" y="-22.0"/>
      <point x="499.0" y="-22.0" type="curve" smooth="yes"/>
      <point x="643.3889770507812" y="-22.0"/>
      <point x="770.1728515625" y="33.59513473510742"/>
      <point x="874.0" y="123.37921142578125" type="curve"/>
      <point x="874.0" y="55.0" type="line" smooth="yes"/>
      <point x="874.0" y="9.0"/>
      <point x="890.0" y="-10.0"/>
      <point x="943.0" y="-10.0" type="curve" smooth="yes"/>
      <point x="945.0" y="-10.0" type="line" smooth="yes"/>
      <point x="998.0" y="-10.0"/>
      <point x="1014.0" y="9.0"/>
      <point x="1014.0" y="55.0" type="curve" smooth="yes"/>
      <point x="1014.0" y="613.0" type="line" smooth="yes"/>
      <point x="1014.0" y="832.0"/>
      <point x="889.0" y="946.0"/>
      <point x="638.0" y="946.0" type="curve" smooth="yes"/>
      <point x="509.0" y="946.0"/>
      <point x="376.0" y="914.0"/>
    </contour>
    <contour>
      <point x="864.0" y="284.3707580566406" type="line"/>
      <point x="766.090087890625" y="183.07154846191406"/>
      <point x="647.6165161132812" y="119.0"/>
      <point x="505.0" y="119.0" type="curve" smooth="yes"/>
      <point x="384.0" y="119.0"/>
      <point x="313.0" y="176.0"/>
      <point x="313.0" y="273.0" type="curve" smooth="yes"/>
      <point x="313.0" y="394.0"/>
      <point x="417.0" y="438.0"/>
      <point x="561.0" y="438.0" type="curve" smooth="yes"/>
      <point x="663.7448120117188" y="438.0"/>
      <point x="771.9198608398438" y="422.6141662597656"/>
      <point x="864.0" y="392.7035217285156" type="curve"/>
    </contour>
  </outline>
</glyph>
<glyph name="b" format="2">
  <advance width="1228"/>
  <unicode hex="0062"/>
  <outline>
    <contour>
      <point x="266.0" y="1322.0" type="line" smooth="yes"/>
      <point x="210.0" y="1322.0"/>
      <point x="192.0" y="1303.0"/>
      <point x="192.0" y="1257.0" type="curve" smooth="yes"/>
      <point x="192.0" y="55.0" type="line" smooth="yes"/>
      <point x="192.0" y="9.0"/>
      <point x="208.0" y="-10.0"/>
      <point x="261.0" y="-10.0" type="curve" smooth="yes"/>
      <point x="263.0" y="-10.0" type="line" smooth="yes"/>
      <point x="316.0" y="-10.0"/>
      <point x="332.0" y="9.0"/>
      <point x="332.0" y="55.0" type="curve" smooth="yes"/>
      <point x="332.0" y="148.0" type="line"/>
      <point x="414.0" y="41.0"/>
      <point x="526.0" y="-22.0"/>
      <point x="659.0" y="-22.0" type="curve" smooth="yes"/>
      <point x="906.0" y="-22.0"/>
      <point x="1089.0" y="160.0"/>
      <point x="1089.0" y="462.0" type="curve" smooth="yes"/>
      <point x="1089.0" y="764.0"/>
      <point x="906.0" y="946.0"/>
      <point x="659.0" y="946.0" type="curve" smooth="yes"/>
      <point x="526.0" y="946.0"/>
      <point x="422.0" y="883.0"/>
      <point x="342.0" y="781.0" type="curve"/>
      <point x="342.0" y="1257.0" type="line" smooth="yes"/>
      <point x="342.0" y="1303.0"/>
      <point x="324.0" y="1322.0"/>
      <point x="268.0" y="1322.0" type="curve" smooth="yes"/>
    </contour>
    <contour>
      <point x="935.0" y="462.0" type="curve" smooth="yes"/>
      <point x="935.0" y="266.0"/>
      <point x="830.0" y="126.0"/>
      <point x="649.0" y="126.0" type="curve" smooth="yes"/>
      <point x="472.0" y="126.0"/>
      <point x="342.0" y="250.0"/>
      <point x="342.0" y="462.0" type="curve" smooth="yes"/>
      <point x="342.0" y="674.0"/>
      <point x="472.0" y="798.0"/>
      <point x="649.0" y="798.0" type="curve" smooth="yes"/>
      <point x="830.0" y="798.0"/>
      <point x="935.0" y="658.0"/>
    </contour>
  </outline>
</glyph>
<glyph name="c" format="2">
  <advance width="1228"/>
  <unicode hex="0063"/>
  <outline>
    <contour>
      <point x="147.0" y="462.0" type="curve" smooth="yes"/>
      <point x="147.0" y="185.0"/>
      <point x="337.0" y="-22.0"/>
      <point x="629.0" y="-22.0" type="curve" smooth="yes"/>
      <point x="781.0" y="-22.0"/>
      <point x="933.0" y="27.0"/>
      <point x="1041.0" y="106.0" type="curve" smooth="yes"/>
      <point x="1076.0" y="131.0"/>
      <point x="1084.0" y="167.0"/>
      <point x="1056.0" y="214.0" type="curve" smooth="yes"/>
      <point x="1027.0" y="263.0"/>
      <point x="992.0" y="258.0"/>
      <point x="965.0" y="237.0" type="curve" smooth="yes"/>
      <point x="870.0" y="164.0"/>
      <point x="751.0" y="126.0"/>
      <point x="629.0" y="126.0" type="curve" smooth="yes"/>
      <point x="434.0" y="126.0"/>
      <point x="305.0" y="267.0"/>
      <point x="305.0" y="462.0" type="curve" smooth="yes"/>
      <point x="305.0" y="657.0"/>
      <point x="434.0" y="798.0"/>
      <point x="629.0" y="798.0" type="curve" smooth="yes"/>
      <point x="741.0" y="798.0"/>
      <point x="849.0" y="769.0"/>
      <point x="948.0" y="701.0" type="curve" smooth="yes"/>
      <point x="976.0" y="681.0"/>
      <point x="1011.0" y="678.0"/>
      <point x="1037.0" y="729.0" type="curve" smooth="yes"/>
      <point x="1063.0" y="777.0"/>
      <point x="1053.0" y="813.0"/>
      <point x="1017.0" y="836.0" type="curve" smooth="yes"/>
      <point x="905.0" y="909.0"/>
      <point x="771.0" y="946.0"/>
      <point x="629.0" y="946.0" type="curve" smooth="yes"/>
      <point x="337.0" y="946.0"/>
      <point x="147.0" y="739.0"/>
    </contour>
  </outline>
</glyph>
<glyph name="d" format="2">
  <advance width="1228"/>
  <unicode hex="0064"/>
  <outline>
    <contour>
      <point x="960.0" y="1322.0" type="line" smooth="yes"/>
      <point x="904.0" y="1322.0"/>
      <point x="886.0" y="1303.0"/>
      <point x="886.0" y="1257.0" type="curve" smooth="yes"/>
      <point x="886.0" y="781.0" type="line"/>
      <point x="806.0" y="883.0"/>
      <point x="702.0" y="946.0"/>
      <point x="569.0" y="946.0" type="curve" smooth="yes"/>
      <point x="322.0" y="946.0"/>
      <point x="139.0" y="764.0"/>
      <point x="139.0" y="462.0" type="curve" smooth="yes"/>
      <point x="139.0" y="160.0"/>
      <point x="322.0" y="-22.0"/>
      <point x="569.0" y="-22.0" type="curve" smooth="yes"/>
      <point x="702.0" y="-22.0"/>
      <point x="814.0" y="41.0"/>
      <point x="896.0" y="148.0" type="curve"/>
      <point x="896.0" y="55.0" type="line" smooth="yes"/>
      <point x="896.0" y="9.0"/>
      <point x="912.0" y="-10.0"/>
      <point x="965.0" y="-10.0" type="curve" smooth="yes"/>
      <point x="967.0" y="-10.0" type="line" smooth="yes"/>
      <point x="1020.0" y="-10.0"/>
      <point x="1036.0" y="9.0"/>
      <point x="1036.0" y="55.0" type="curve" smooth="yes"/>
      <point x="1036.0" y="1257.0" type="line" smooth="yes"/>
      <point x="1036.0" y="1303.0"/>
      <point x="1018.0" y="1322.0"/>
      <point x="962.0" y="1322.0" type="curve" smooth="yes"/>
    </contour>
    <contour>
      <point x="886.0" y="462.0" type="curve" smooth="yes"/>
      <point x="886.0" y="250.0"/>
      <point x="756.0" y="126.0"/>
      <point x="579.0" y="126.0" type="curve" smooth="yes"/>
      <point x="398.0" y="126.0"/>
      <point x="293.0" y="266.0"/>
      <point x="293.0" y="462.0" type="curve" smooth="yes"/>
      <point x="293.0" y="658.0"/>
      <point x="398.0" y="798.0"/>
      <point x="579.0" y="798.0" type="curve" smooth="yes"/>
      <point x="756.0" y="798.0"/>
      <point x="886.0" y="674.0"/>
    </contour>
  </outline>
</glyph>
<glyph name="e" format="2">
  <advance width="1228"/>
  <unicode hex="0065"/>
  <outline>
    <contour>
      <point x="148.0" y="462.0" type="curve" smooth="yes"/>
      <point x="148.0" y="161.0"/>
      <point x="311.0" y="-22.0"/>
      <point x="603.0" y="-22.0" type="curve" smooth="yes"/>
      <point x="758.0" y="-22.0"/>
      <point x="912.0" y="15.0"/>
      <point x="1016.0" y="65.0" type="curve" smooth="yes"/>
      <point x="1057.0" y="85.0"/>
      <point x="1070.0" y="116.0"/>
      <point x="1053.0" y="162.0" type="curve" smooth="yes"/>
      <point x="1036.0" y="209.0"/>
      <point x="1004.0" y="231.0"/>
      <point x="963.0" y="209.0" type="curve" smooth="yes"/>
      <point x="872.0" y="156.0"/>
      <point x="737.0" y="123.0"/>
      <point x="603.0" y="123.0" type="curve" smooth="yes"/>
      <point x="418.0" y="123.0"/>
      <point x="312.0" y="225.0"/>
      <point x="302.0" y="425.0" type="curve"/>
      <point x="1026.0" y="425.0" type="line" smooth="yes"/>
      <point x="1071.0" y="425.0"/>
      <point x="1092.0" y="442.0"/>
      <point x="1089.0" y="487.0" type="curve" smooth="yes"/>
      <point x="1074.0" y="753.0"/>
      <point x="920.0" y="946.0"/>
      <point x="623.0" y="946.0" type="curve" smooth="yes"/>
      <point x="344.0" y="946.0"/>
      <point x="148.0" y="753.0"/>
    </contour>
    <contour>
      <point x="927.0" y="565.0" type="curve"/>
      <point x="312.0" y="565.0" type="line"/>
      <point x="345.0" y="712.0"/>
      <point x="457.0" y="801.0"/>
      <point x="623.0" y="801.0" type="curve" smooth="yes"/>
      <point x="799.0" y="801.0"/>
      <point x="899.0" y="715.0"/>
    </contour>
  </outline>
</glyph>
<glyph name="f" format="2">
  <advance width="1228"/>
  <unicode hex="0066"/>
  <outline>
    <contour>
      <point x="448.0" y="967.0" type="curve" smooth="yes"/>
      <point x="448.0" y="844.0" type="line"/>
      <point x="250.0" y="844.0" type="line" smooth="yes"/>
      <point x="205.0" y="844.0"/>
      <point x="187.0" y="824.0"/>
      <point x="187.0" y="772.0" type="curve" smooth="yes"/>
      <point x="187.0" y="720.0"/>
      <point x="205.0" y="700.0"/>
      <point x="250.0" y="700.0" type="curve" smooth="yes"/>
      <point x="448.0" y="700.0" type="line"/>
      <point x="448.0" y="55.0" type="line" smooth="yes"/>
      <point x="448.0" y="9.0"/>
      <point x="466.0" y="-10.0"/>
      <point x="522.0" y="-10.0" type="curve" smooth="yes"/>
      <point x="524.0" y="-10.0" type="line" smooth="yes"/>
      <point x="580.0" y="-10.0"/>
      <point x="598.0" y="9.0"/>
      <point x="598.0" y="55.0" type="curve" smooth="yes"/>
      <point x="598.0" y="700.0" type="line"/>
      <point x="944.0" y="700.0" type="line" smooth="yes"/>
      <point x="989.0" y="700.0"/>
      <point x="1007.0" y="720.0"/>
      <point x="1007.0" y="772.0" type="curve" smooth="yes"/>
      <point x="1007.0" y="824.0"/>
      <point x="989.0" y="844.0"/>
      <point x="944.0" y="844.0" type="curve" smooth="yes"/>
      <point x="598.0" y="844.0" type="line"/>
      <point x="598.0" y="954.0" type="line" smooth="yes"/>
      <point x="598.0" y="1091.0"/>
      <point x="659.0" y="1171.0"/>
      <point x="800.0" y="1171.0" type="curve" smooth="yes"/>
      <point x="879.0" y="1171.0"/>
      <point x="959.0" y="1152.0"/>
      <point x="1037.0" y="1122.0" type="curve" smooth="yes"/>
      <point x="1073.0" y="1108.0"/>
      <point x="1100.0" y="1126.0"/>
      <point x="1111.0" y="1173.0" type="curve" smooth="yes"/>
      <point x="1122.0" y="1219.0"/>
      <point x="1108.0" y="1250.0"/>
      <point x="1066.0" y="1266.0" type="curve" smooth="yes"/>
      <point x="986.0" y="1297.0"/>
      <point x="894.0" y="1317.0"/>
      <point x="800.0" y="1317.0" type="curve" smooth="yes"/>
      <point x="576.0" y="1317.0"/>
      <point x="448.0" y="1186.0"/>
    </contour>
  </outline>
</glyph>
<glyph name="h" format="2">
  <advance width="1228"/>
  <unicode hex="0068"/>
  <outline>
    <contour>
      <point x="276.0" y="1322.0" type="line" smooth="yes"/>
      <point x="220.0" y="1322.0"/>
      <point x="202.0" y="1303.0"/>
      <point x="202.0" y="1257.0" type="curve" smooth="yes"/>
      <point x="202.0" y="55.0" type="line" smooth="yes"/>
      <point x="202.0" y="9.0"/>
      <point x="220.0" y="-10.0"/>
      <point x="276.0" y="-10.0" type="curve" smooth="yes"/>
      <point x="278.0" y="-10.0" type="line" smooth="yes"/>
      <point x="334.0" y="-10.0"/>
      <point x="352.0" y="9.0"/>
      <point x="352.0" y="55.0" type="curve" smooth="yes"/>
      <point x="352.0" y="392.0" type="line" smooth="yes"/>
      <point x="352.0" y="620.0"/>
      <point x="541.0" y="798.0"/>
      <point x="712.0" y="798.0" type="curve" smooth="yes"/>
      <point x="841.0" y="798.0"/>
      <point x="894.0" y="720.0"/>
      <point x="894.0" y="605.0" type="curve" smooth="yes"/>
      <point x="894.0" y="55.0" type="line" smooth="yes"/>
      <point x="894.0" y="9.0"/>
      <point x="912.0" y="-10.0"/>
      <point x="968.0" y="-10.0" type="curve" smooth="yes"/>
      <point x="970.0" y="-10.0" type="line" smooth="yes"/>
      <point x="1026.0" y="-10.0"/>
      <point x="1044.0" y="9.0"/>
      <point x="1044.0" y="55.0" type="curve" smooth="yes"/>
      <point x="1044.0" y="620.0" type="line" smooth="yes"/>
      <point x="1044.0" y="820.0"/>
      <point x="931.0" y="946.0"/>
      <point x="727.0" y="946.0" type="curve" smooth="yes"/>
      <point x="592.0" y="946.0"/>
      <point x="444.0" y="855.0"/>
      <point x="352.0" y="720.0" type="curve"/>
      <point x="352.0" y="1257.0" type="line" smooth="yes"/>
      <point x="352.0" y="1303.0"/>
      <point x="334.0" y="1322.0"/>
      <point x="278.0" y="1322.0" type="curve" smooth="yes"/>
    </contour>
  </outline>
</glyph>
<glyph name="k" format="2">
  <advance width="1228"/>
  <unicode hex="006B"/>
  <outline>
    <contour>
      <point x="911.0" y="924.0" type="curve" smooth="yes"/>
      <point x="382.0" y="452.6474304199219" type="line"/>
      <point x="382.0" y="1257.0" type="line" smooth="yes"/>
      <point x="382.0" y="1303.0"/>
      <point x="364.0" y="1322.0"/>
      <point x="308.0" y="1322.0" type="curve" smooth="yes"/>
      <point x="306.0" y="1322.0" type="line" smooth="yes"/>
      <point x="250.0" y="1322.0"/>
      <point x="232.0" y="1303.0"/>
      <point x="232.0" y="1257.0" type="curve" smooth="yes"/>
      <point x="232.0" y="55.0" type="line" smooth="yes"/>
      <point x="232.0" y="9.0"/>
      <point x="250.0" y="-10.0"/>
      <point x="306.0" y="-10.0" type="curve" smooth="yes"/>
      <point x="308.0" y="-10.0" type="line" smooth="yes"/>
      <point x="364.0" y="-10.0"/>
      <point x="382.0" y="9.0"/>
      <point x="382.0" y="55.0" type="curve" smooth="yes"/>
      <point x="382.0" y="258.556396484375" type="line"/>
      <point x="562.3991088867188" y="417.25335693359375" type="line"/>
      <point x="938.0" y="3.0" type="line" smooth="yes"/>
      <point x="962.0" y="-24.0"/>
      <point x="991.0" y="-22.0"/>
      <point x="1038.0" y="5.0" type="curve" smooth="yes"/>
      <point x="1087.0" y="33.0"/>
      <point x="1091.0" y="61.0"/>
      <point x="1060.0" y="95.0" type="curve" smooth="yes"/>
      <point x="674.9321899414062" y="516.2486572265625" type="line"/>
      <point x="1035.0" y="833.0" type="line" smooth="yes"/>
      <point x="1070.0" y="863.0"/>
      <point x="1061.0" y="896.0"/>
      <point x="1014.0" y="924.0" type="curve" smooth="yes"/>
      <point x="972.0" y="949.0"/>
      <point x="936.0" y="946.0"/>
    </contour>
  </outline>
</glyph>
<glyph name="l" format="2">
  <advance width="1228"/>
  <unicode hex="006C"/>
  <outline>
    <contour>
      <point x="240.0" y="144.0" type="line" smooth="yes"/>
      <point x="195.0" y="144.0"/>
      <point x="177.0" y="124.0"/>
      <point x="177.0" y="72.0" type="curve" smooth="yes"/>
      <point x="177.0" y="20.0"/>
      <point x="195.0" y="0.0"/>
      <point x="240.0" y="0.0" type="curve" smooth="yes"/>
      <point x="1024.0" y="0.0" type="line" smooth="yes"/>
      <point x="1069.0" y="0.0"/>
      <point x="1087.0" y="20.0"/>
      <point x="1087.0" y="72.0" type="curve" smooth="yes"/>
      <point x="1087.0" y="124.0"/>
      <point x="1069.0" y="144.0"/>
      <point x="1024.0" y="144.0" type="curve" smooth="yes"/>
      <point x="703.0" y="144.0" type="line"/>
      <point x="703.0" y="1244.0" type="line" smooth="yes"/>
      <point x="703.0" y="1294.0"/>
      <point x="685.0" y="1312.0"/>
      <point x="640.0" y="1312.0" type="curve" smooth="yes"/>
      <point x="280.0" y="1312.0" type="line" smooth="yes"/>
      <point x="235.0" y="1312.0"/>
      <point x="217.0" y="1292.0"/>
      <point x="217.0" y="1240.0" type="curve" smooth="yes"/>
      <point x="217.0" y="1188.0"/>
      <point x="235.0" y="1168.0"/>
      <point x="280.0" y="1168.0" type="curve" smooth="yes"/>
      <point x="553.0" y="1168.0" type="line"/>
      <point x="553.0" y="144.0" type="line"/>
    </contour>
  </outline>
</glyph>
<glyph name="m" format="2">
  <advance width="1228"/>
  <unicode hex="006D"/>
  <outline>
    <contour>
      <point x="672.0" y="765.0" type="curve"/>
      <point x="647.0" y="888.0"/>
      <point x="571.0" y="946.0"/>
      <point x="484.0" y="946.0" type="curve" smooth="yes"/>
      <point x="393.0" y="946.0"/>
      <point x="309.0" y="885.0"/>
      <point x="251.0" y="757.0" type="curve"/>
      <point x="251.0" y="869.0" type="line" smooth="yes"/>
      <point x="251.0" y="915.0"/>
      <point x="237.0" y="934.0"/>
      <point x="187.0" y="934.0" type="curve" smooth="yes"/>
      <point x="185.0" y="934.0" type="line" smooth="yes"/>
      <point x="135.0" y="934.0"/>
      <point x="121.0" y="915.0"/>
      <point x="121.0" y="869.0" type="curve" smooth="yes"/>
      <point x="121.0" y="55.0" type="line" smooth="yes"/>
      <point x="121.0" y="9.0"/>
      <point x="139.0" y="-10.0"/>
      <point x="195.0" y="-10.0" type="curve" smooth="yes"/>
      <point x="197.0" y="-10.0" type="line" smooth="yes"/>
      <point x="253.0" y="-10.0"/>
      <point x="271.0" y="9.0"/>
      <point x="271.0" y="55.0" type="curve" smooth="yes"/>
      <point x="271.0" y="457.0" type="line" smooth="yes"/>
      <point x="271.0" y="659.0"/>
      <point x="350.0" y="798.0"/>
      <point x="445.0" y="798.0" type="curve" smooth="yes"/>
      <point x="513.0" y="798.0"/>
      <point x="540.0" y="749.0"/>
      <point x="540.0" y="660.0" type="curve" smooth="yes"/>
      <point x="540.0" y="55.0" type="line" smooth="yes"/>
      <point x="540.0" y="9.0"/>
      <point x="558.0" y="-10.0"/>
      <point x="614.0" y="-10.0" type="curve" smooth="yes"/>
      <point x="616.0" y="-10.0" type="line" smooth="yes"/>
      <point x="672.0" y="-10.0"/>
      <point x="690.0" y="9.0"/>
      <point x="690.0" y="55.0" type="curve" smooth="yes"/>
      <point x="690.0" y="457.0" type="line" smooth="yes"/>
      <point x="690.0" y="659.0"/>
      <point x="769.0" y="798.0"/>
      <point x="864.0" y="798.0" type="curve" smooth="yes"/>
      <point x="932.0" y="798.0"/>
      <point x="959.0" y="749.0"/>
      <point x="959.0" y="660.0" type="curve" smooth="yes"/>
      <point x="959.0" y="55.0" type="line" smooth="yes"/>
      <point x="959.0" y="9.0"/>
      <point x="977.0" y="-10.0"/>
      <point x="1033.0" y="-10.0" type="curve" smooth="yes"/>
      <point x="1035.0" y="-10.0" type="line" smooth="yes"/>
      <point x="1091.0" y="-10.0"/>
      <point x="1109.0" y="9.0"/>
      <point x="1109.0" y="55.0" type="curve" smooth="yes"/>
      <point x="1109.0" y="678.0" type="line" smooth="yes"/>
      <point x="1109.0" y="861.0"/>
      <point x="1016.0" y="946.0"/>
      <point x="902.0" y="946.0" type="curve" smooth="yes"/>
      <point x="810.0" y="946.0"/>
      <point x="732.0" y="887.0"/>
    </contour>
  </outline>
</glyph>
<glyph name="o" format="2">
  <advance width="1228"/>
  <unicode hex="006F"/>
  <outline>
    <contour>
      <point x="134.0" y="462.0" type="curve" smooth="yes"/>
      <point x="134.0" y="180.0"/>
      <point x="338.0" y="-22.0"/>
      <point x="614.0" y="-22.0" type="curve" smooth="yes"/>
      <point x="890.0" y="-22.0"/>
      <point x="1094.0" y="180.0"/>
      <point x="1094.0" y="462.0" type="curve" smooth="yes"/>
      <point x="1094.0" y="744.0"/>
      <point x="890.0" y="946.0"/>
      <point x="614.0" y="946.0" type="curve" smooth="yes"/>
      <point x="338.0" y="946.0"/>
      <point x="134.0" y="744.0"/>
    </contour>
    <contour>
      <point x="940.0" y="462.0" type="curve" smooth="yes"/>
      <point x="940.0" y="265.0"/>
      <point x="810.0" y="126.0"/>
      <point x="614.0" y="126.0" type="curve" smooth="yes"/>
      <point x="418.0" y="126.0"/>
      <point x="288.0" y="265.0"/>
      <point x="288.0" y="462.0" type="curve" smooth="yes"/>
      <point x="288.0" y="659.0"/>
      <point x="418.0" y="798.0"/>
      <point x="614.0" y="798.0" type="curve" smooth="yes"/>
      <point x="810.0" y="798.0"/>
      <point x="940.0" y="659.0"/>
    </contour>
  </outline>
</glyph>
<glyph name="p" format="2">
  <advance width="1228"/>
  <unicode hex="0070"/>
  <outline>
    <contour>
      <point x="332.0" y="776.0" type="curve"/>
      <point x="332.0" y="869.0" type="line" smooth="yes"/>
      <point x="332.0" y="915.0"/>
      <point x="316.0" y="934.0"/>
      <point x="263.0" y="934.0" type="curve" smooth="yes"/>
      <point x="261.0" y="934.0" type="line" smooth="yes"/>
      <point x="208.0" y="934.0"/>
      <point x="192.0" y="915.0"/>
      <point x="192.0" y="869.0" type="curve" smooth="yes"/>
      <point x="192.0" y="-333.0" type="line" smooth="yes"/>
      <point x="192.0" y="-379.0"/>
      <point x="210.0" y="-398.0"/>
      <point x="266.0" y="-398.0" type="curve" smooth="yes"/>
      <point x="268.0" y="-398.0" type="line" smooth="yes"/>
      <point x="324.0" y="-398.0"/>
      <point x="342.0" y="-379.0"/>
      <point x="342.0" y="-333.0" type="curve" smooth="yes"/>
      <point x="342.0" y="143.0" type="line"/>
      <point x="422.0" y="41.0"/>
      <point x="526.0" y="-22.0"/>
      <point x="659.0" y="-22.0" type="curve" smooth="yes"/>
      <point x="906.0" y="-22.0"/>
      <point x="1089.0" y="160.0"/>
      <point x="1089.0" y="462.0" type="curve" smooth="yes"/>
      <point x="1089.0" y="764.0"/>
      <point x="906.0" y="946.0"/>
      <point x="659.0" y="946.0" type="curve" smooth="yes"/>
      <point x="526.0" y="946.0"/>
      <point x="414.0" y="883.0"/>
    </contour>
    <contour>
      <point x="935.0" y="462.0" type="curve" smooth="yes"/>
      <point x="935.0" y="266.0"/>
      <point x="830.0" y="126.0"/>
      <point x="649.0" y="126.0" type="curve" smooth="yes"/>
      <point x="472.0" y="126.0"/>
      <point x="342.0" y="250.0"/>
      <point x="342.0" y="462.0" type="curve" smooth="yes"/>
      <point x="342.0" y="674.0"/>
      <point x="472.0" y="798.0"/>
      <point x="649.0" y="798.0" type="curve" smooth="yes"/>
      <point x="830.0" y="798.0"/>
      <point x="935.0" y="658.0"/>
    </contour>
  </outline>
</glyph>
<glyph name="q" format="2">
  <advance width="1228"/>
  <unicode hex="0071"/>
  <outline>
    <contour>
      <point x="139.0" y="462.0" type="curve" smooth="yes"/>
      <point x="139.0" y="160.0"/>
      <point x="322.0" y="-22.0"/>
      <point x="569.0" y="-22.0" type="curve" smooth="yes"/>
      <point x="702.0" y="-22.0"/>
      <point x="806.0" y="41.0"/>
      <point x="886.0" y="143.0" type="curve"/>
      <point x="886.0" y="-333.0" type="line" smooth="yes"/>
      <point x="886.0" y="-379.0"/>
      <point x="904.0" y="-398.0"/>
      <point x="960.0" y="-398.0" type="curve" smooth="yes"/>
      <point x="962.0" y="-398.0" type="line" smooth="yes"/>
      <point x="1018.0" y="-398.0"/>
      <point x="1036.0" y="-379.0"/>
      <point x="1036.0" y="-333.0" type="curve" smooth="yes"/>
      <point x="1036.0" y="869.0" type="line" smooth="yes"/>
      <point x="1036.0" y="915.0"/>
      <point x="1020.0" y="934.0"/>
      <point x="967.0" y="934.0" type="curve" smooth="yes"/>
      <point x="965.0" y="934.0" type="line" smooth="yes"/>
      <point x="912.0" y="934.0"/>
      <point x="896.0" y="915.0"/>
      <point x="896.0" y="869.0" type="curve" smooth="yes"/>
      <point x="896.0" y="776.0" type="line"/>
      <point x="814.0" y="883.0"/>
      <point x="702.0" y="946.0"/>
      <point x="569.0" y="946.0" type="curve" smooth="yes"/>
      <point x="322.0" y="946.0"/>
      <point x="139.0" y="764.0"/>
    </contour>
    <contour>
      <point x="886.0" y="462.0" type="curve" smooth="yes"/>
      <point x="886.0" y="250.0"/>
      <point x="756.0" y="126.0"/>
      <point x="579.0" y="126.0" type="curve" smooth="yes"/>
      <point x="398.0" y="126.0"/>
      <point x="293.0" y="266.0"/>
      <point x="293.0" y="462.0" type="curve" smooth="yes"/>
      <point x="293.0" y="658.0"/>
      <point x="398.0" y="798.0"/>
      <point x="579.0" y="798.0" type="curve" smooth="yes"/>
      <point x="756.0" y="798.0"/>
      <point x="886.0" y="674.0"/>
    </contour>
  </outline>
</glyph>
<glyph name="r" format="2">
  <advance width="1228"/>
  <unicode hex="0072"/>
  <outline>
    <contour>
      <point x="447.0" y="634.0" type="curve"/>
      <point x="447.0" y="869.0" type="line" smooth="yes"/>
      <point x="447.0" y="915.0"/>
      <point x="431.0" y="934.0"/>
      <point x="378.0" y="934.0" type="curve" smooth="yes"/>
      <point x="376.0" y="934.0" type="line" smooth="yes"/>
      <point x="323.0" y="934.0"/>
      <point x="307.0" y="915.0"/>
      <point x="307.0" y="869.0" type="curve" smooth="yes"/>
      <point x="307.0" y="55.0" type="line" smooth="yes"/>
      <point x="307.0" y="9.0"/>
      <point x="325.0" y="-10.0"/>
      <point x="381.0" y="-10.0" type="curve" smooth="yes"/>
      <point x="383.0" y="-10.0" type="line" smooth="yes"/>
      <point x="439.0" y="-10.0"/>
      <point x="457.0" y="9.0"/>
      <point x="457.0" y="55.0" type="curve" smooth="yes"/>
      <point x="457.0" y="270.0" type="line" smooth="yes"/>
      <point x="457.0" y="554.0"/>
      <point x="663.0" y="786.0"/>
      <point x="896.0" y="786.0" type="curve" smooth="yes"/>
      <point x="932.0" y="786.0"/>
      <point x="969.0" y="780.0"/>
      <point x="1006.0" y="768.0" type="curve" smooth="yes"/>
      <point x="1048.0" y="754.0"/>
      <point x="1068.0" y="778.0"/>
      <point x="1081.0" y="830.0" type="curve" smooth="yes"/>
      <point x="1093.0" y="880.0"/>
      <point x="1079.0" y="911.0"/>
      <point x="1036.0" y="925.0" type="curve" smooth="yes"/>
      <point x="992.0" y="939.0"/>
      <point x="948.0" y="946.0"/>
      <point x="905.0" y="946.0" type="curve" smooth="yes"/>
      <point x="726.0" y="946.0"/>
      <point x="561.0" y="828.0"/>
    </contour>
  </outline>
</glyph>
<glyph name="s" format="2">
  <advance width="1228"/>
  <unicode hex="0073"/>
  <outline>
    <contour>
      <point x="1048.0" y="277.0" type="curve" smooth="yes"/>
      <point x="1048.0" y="403.0"/>
      <point x="979.0" y="467.0"/>
      <point x="884.0" y="502.0" type="curve" smooth="yes"/>
      <point x="738.0" y="556.0"/>
      <point x="532.0" y="542.0"/>
      <point x="421.0" y="578.0" type="curve" smooth="yes"/>
      <point x="374.0" y="593.0"/>
      <point x="344.0" y="617.0"/>
      <point x="344.0" y="660.0" type="curve" smooth="yes"/>
      <point x="344.0" y="753.0"/>
      <point x="431.0" y="801.0"/>
      <point x="570.0" y="801.0" type="curve" smooth="yes"/>
      <point x="689.0" y="801.0"/>
      <point x="806.0" y="772.0"/>
      <point x="912.0" y="718.0" type="curve" smooth="yes"/>
      <point x="945.0" y="701.0"/>
      <point x="973.0" y="707.0"/>
      <point x="996.0" y="759.0" type="curve" smooth="yes"/>
      <point x="1018.0" y="809.0"/>
      <point x="1004.0" y="840.0"/>
      <point x="966.0" y="859.0" type="curve" smooth="yes"/>
      <point x="845.0" y="920.0"/>
      <point x="706.0" y="946.0"/>
      <point x="564.0" y="946.0" type="curve" smooth="yes"/>
      <point x="352.0" y="946.0"/>
      <point x="190.0" y="849.0"/>
      <point x="190.0" y="660.0" type="curve" smooth="yes"/>
      <point x="190.0" y="544.0"/>
      <point x="252.0" y="483.0"/>
      <point x="340.0" y="448.0" type="curve" smooth="yes"/>
      <point x="485.0" y="391.0"/>
      <point x="698.0" y="406.0"/>
      <point x="813.0" y="367.0" type="curve" smooth="yes"/>
      <point x="863.0" y="350.0"/>
      <point x="894.0" y="324.0"/>
      <point x="894.0" y="277.0" type="curve" smooth="yes"/>
      <point x="894.0" y="186.0"/>
      <point x="813.0" y="123.0"/>
      <point x="644.0" y="123.0" type="curve" smooth="yes"/>
      <point x="512.0" y="123.0"/>
      <point x="384.0" y="156.0"/>
      <point x="275.0" y="217.0" type="curve" smooth="yes"/>
      <point x="243.0" y="235.0"/>
      <point x="215.0" y="230.0"/>
      <point x="190.0" y="179.0" type="curve" smooth="yes"/>
      <point x="166.0" y="130.0"/>
      <point x="179.0" y="99.0"/>
      <point x="217.0" y="78.0" type="curve" smooth="yes"/>
      <point x="345.0" y="8.0"/>
      <point x="492.0" y="-22.0"/>
      <point x="654.0" y="-22.0" type="curve" smooth="yes"/>
      <point x="913.0" y="-22.0"/>
      <point x="1048.0" y="98.0"/>
    </contour>
  </outline>
</glyph>
<glyph name="v" format="2">
  <advance width="1228"/>
  <unicode hex="0076"/>
  <outline>
    <contour>
      <point x="954.0" y="894.0" type="curve" smooth="yes"/>
      <point x="614.0" y="143.0" type="line"/>
      <point x="274.0" y="894.0" type="line" smooth="yes"/>
      <point x="254.0" y="938.0"/>
      <point x="229.0" y="946.0"/>
      <point x="177.0" y="924.0" type="curve" smooth="yes"/>
      <point x="125.0" y="902.0"/>
      <point x="113.0" y="877.0"/>
      <point x="133.0" y="833.0" type="curve" smooth="yes"/>
      <point x="496.0" y="40.0" type="line" smooth="yes"/>
      <point x="516.0" y="-3.0"/>
      <point x="548.0" y="-22.0"/>
      <point x="614.0" y="-22.0" type="curve" smooth="yes"/>
      <point x="680.0" y="-22.0"/>
      <point x="712.0" y="-3.0"/>
      <point x="732.0" y="40.0" type="curve" smooth="yes"/>
      <point x="1095.0" y="833.0" type="line" smooth="yes"/>
      <point x="1115.0" y="877.0"/>
      <point x="1103.0" y="902.0"/>
      <point x="1051.0" y="924.0" type="curve" smooth="yes"/>
      <point x="999.0" y="946.0"/>
      <point x="974.0" y="938.0"/>
    </contour>
  </outline>
</glyph>
<glyph name="w" format="2">
  <advance width="1228"/>
  <unicode hex="0077"/>
  <outline>
    <contour>
      <point x="1023.0" y="883.0" type="curve" smooth="yes"/>
      <point x="864.0" y="210.0" type="line"/>
      <point x="689.0" y="743.0" type="line" smooth="yes"/>
      <point x="680.0" y="769.0"/>
      <point x="658.0" y="790.0"/>
      <point x="614.0" y="790.0" type="curve" smooth="yes"/>
      <point x="570.0" y="790.0"/>
      <point x="548.0" y="769.0"/>
      <point x="539.0" y="743.0" type="curve" smooth="yes"/>
      <point x="364.0" y="210.0" type="line"/>
      <point x="205.0" y="883.0" type="line" smooth="yes"/>
      <point x="194.0" y="930.0"/>
      <point x="173.0" y="941.0"/>
      <point x="118.0" y="930.0" type="curve" smooth="yes"/>
      <point x="62.0" y="919.0"/>
      <point x="50.0" y="896.0"/>
      <point x="62.0" y="849.0" type="curve" smooth="yes"/>
      <point x="261.0" y="43.0" type="line" smooth="yes"/>
      <point x="273.0" y="-4.0"/>
      <point x="292.0" y="-22.0"/>
      <point x="343.0" y="-22.0" type="curve" smooth="yes"/>
      <point x="400.0" y="-22.0"/>
      <point x="430.0" y="-3.0"/>
      <point x="445.0" y="43.0" type="curve" smooth="yes"/>
      <point x="614.0" y="555.0" type="line"/>
      <point x="783.0" y="43.0" type="line" smooth="yes"/>
      <point x="798.0" y="-3.0"/>
      <point x="828.0" y="-22.0"/>
      <point x="885.0" y="-22.0" type="curve" smooth="yes"/>
      <point x="936.0" y="-22.0"/>
      <point x="955.0" y="-4.0"/>
      <point x="967.0" y="43.0" type="curve" smooth="yes"/>
      <point x="1166.0" y="849.0" type="line" smooth="yes"/>
      <point x="1178.0" y="896.0"/>
      <point x="1166.0" y="919.0"/>
      <point x="1110.0" y="930.0" type="curve" smooth="yes"/>
      <point x="1055.0" y="941.0"/>
      <point x="1034.0" y="930.0"/>
    </contour>
  </outline>
</glyph>
<glyph name="x" format="2">
  <advance width="1228"/>
  <unicode hex="0078"/>
  <outline>
    <contour>
      <point x="906.0" y="909.0" type="curve" smooth="yes"/>
      <point x="620.0" y="576.7216796875" type="line"/>
      <point x="334.0" y="909.0" type="line" smooth="yes"/>
      <point x="303.0" y="945.0"/>
      <point x="275.0" y="947.0"/>
      <point x="224.0" y="924.0" type="curve" smooth="yes"/>
      <point x="178.0" y="903.0"/>
      <point x="165.0" y="872.0"/>
      <point x="197.0" y="835.0" type="curve" smooth="yes"/>
      <point x="511.7711181640625" y="471.1027526855469" type="line"/>
      <point x="184.0" y="89.0" type="line" smooth="yes"/>
      <point x="153.0" y="52.0"/>
      <point x="165.0" y="21.0"/>
      <point x="211.0" y="0.0" type="curve" smooth="yes"/>
      <point x="262.0" y="-23.0"/>
      <point x="290.0" y="-21.0"/>
      <point x="321.0" y="15.0" type="curve" smooth="yes"/>
      <point x="620.0" y="367.03363037109375" type="line"/>
      <point x="919.0" y="15.0" type="line" smooth="yes"/>
      <point x="950.0" y="-21.0"/>
      <point x="978.0" y="-23.0"/>
      <point x="1029.0" y="0.0" type="curve" smooth="yes"/>
      <point x="1075.0" y="21.0"/>
      <point x="1087.0" y="52.0"/>
      <point x="1056.0" y="89.0" type="curve" smooth="yes"/>
      <point x="728.2288818359375" y="471.1027526855469" type="line"/>
      <point x="1043.0" y="835.0" type="line" smooth="yes"/>
      <point x="1075.0" y="872.0"/>
      <point x="1062.0" y="903.0"/>
      <point x="1016.0" y="924.0" type="curve" smooth="yes"/>
      <point x="965.0" y="947.0"/>
      <point x="937.0" y="945.0"/>
    </contour>
  </outline>
</glyph>
<glyph name="y" format="2">
  <advance width="1228"/>
  <unicode hex="0079"/>
  <outline>
    <contour>
      <point x="954.0" y="894.0" type="curve" smooth="yes"/>
      <point x="615.0" y="211.0" type="line"/>
      <point x="274.0" y="894.0" type="line" smooth="yes"/>
      <point x="252.0" y="937.0"/>
      <point x="229.0" y="946.0"/>
      <point x="177.0" y="924.0" type="curve" smooth="yes"/>
      <point x="125.0" y="902.0"/>
      <point x="111.0" y="876.0"/>
      <point x="133.0" y="833.0" type="curve" smooth="yes"/>
      <point x="529.83447265625" y="43.0572509765625" type="line"/>
      <point x="359.0" y="-297.0" type="line" smooth="yes"/>
      <point x="337.0" y="-340.0"/>
      <point x="349.0" y="-366.0"/>
      <point x="401.0" y="-388.0" type="curve" smooth="yes"/>
      <point x="453.0" y="-410.0"/>
      <point x="475.0" y="-401.0"/>
      <point x="497.0" y="-358.0" type="curve" smooth="yes"/>
      <point x="1094.0" y="833.0" type="line" smooth="yes"/>
      <point x="1116.0" y="876.0"/>
      <point x="1103.0" y="902.0"/>
      <point x="1051.0" y="924.0" type="curve" smooth="yes"/>
      <point x="999.0" y="946.0"/>
      <point x="975.0" y="937.0"/>
    </contour>
  </outline>
</glyph>
<glyph name="z" format="2">
  <advance width="1228"/>
  <unicode hex="007A"/>
  <outline>
    <contour>
      <point x="261.0" y="924.0" type="line" smooth="yes"/>
      <point x="216.0" y="924.0"/>
      <point x="198.0" y="904.0"/>
      <point x="198.0" y="852.0" type="curve" smooth="yes"/>
      <point x="198.0" y="800.0"/>
      <point x="216.0" y="780.0"/>
      <point x="261.0" y="780.0" type="curve" smooth="yes"/>
      <point x="795.758544921875" y="780.0" type="line"/>
      <point x="192.0" y="113.0" type="line" smooth="yes"/>
      <point x="182.0" y="102.0"/>
      <point x="178.0" y="87.0"/>
      <point x="178.0" y="68.0" type="curve" smooth="yes"/>
      <point x="178.0" y="18.0"/>
      <point x="196.0" y="0.0"/>
      <point x="241.0" y="0.0" type="curve" smooth="yes"/>
      <point x="987.0" y="0.0" type="line" smooth="yes"/>
      <point x="1032.0" y="0.0"/>
      <point x="1050.0" y="20.0"/>
      <point x="1050.0" y="72.0" type="curve" smooth="yes"/>
      <point x="1050.0" y="124.0"/>
      <point x="1032.0" y="144.0"/>
      <point x="987.0" y="144.0" type="curve" smooth="yes"/>
      <point x="422.2403564453125" y="144.0" type="line"/>
      <point x="1025.0" y="810.0" type="line" smooth="yes"/>
      <point x="1034.0" y="820.0"/>
      <point x="1040.0" y="835.0"/>
      <point x="1040.0" y="856.0" type="curve" smooth="yes"/>
      <point x="1040.0" y="906.0"/>
      <point x="1022.0" y="924.0"/>
      <point x="977.0" y="924.0" type="curve" smooth="yes"/>
    </contour>
  </outline>
</glyph>
<glyph name="braceleft" format="2">
  <advance width="1228"/>
  <unicode hex="007B"/>
  <outline>
    <contour>
      <point x="505.0" y="959.0" type="curve" smooth="yes"/>
      <point x="510.0" y="885.0" type="line" smooth="yes"/>
      <point x="521.0" y="717.0"/>
      <point x="443.0" y="613.0"/>
      <point x="240.0" y="613.0" type="curve" smooth="yes"/>
      <point x="195.0" y="613.0"/>
      <point x="177.0" y="593.0"/>
      <point x="177.0" y="541.0" type="curve" smooth="yes"/>
      <point x="177.0" y="489.0"/>
      <point x="195.0" y="469.0"/>
      <point x="240.0" y="469.0" type="curve" smooth="yes"/>
      <point x="453.0" y="469.0"/>
      <point x="531.0" y="376.0"/>
      <point x="516.0" y="203.0" type="curve" smooth="yes"/>
      <point x="505.0" y="80.0" type="line" smooth="yes"/>
      <point x="480.0" y="-201.0"/>
      <point x="648.0" y="-333.0"/>
      <point x="927.0" y="-333.0" type="curve" smooth="yes"/>
      <point x="972.0" y="-333.0"/>
      <point x="990.0" y="-313.0"/>
      <point x="990.0" y="-261.0" type="curve" smooth="yes"/>
      <point x="990.0" y="-209.0"/>
      <point x="972.0" y="-189.0"/>
      <point x="927.0" y="-189.0" type="curve" smooth="yes"/>
      <point x="725.0" y="-189.0"/>
      <point x="642.0" y="-105.0"/>
      <point x="655.0" y="92.0" type="curve" smooth="yes"/>
      <point x="663.0" y="213.0" type="line" smooth="yes"/>
      <point x="674.0" y="374.0"/>
      <point x="609.0" y="481.0"/>
      <point x="425.0" y="536.0" type="curve"/>
      <point x="425.0" y="546.0" type="line"/>
      <point x="595.0" y="615.0"/>
      <point x="665.0" y="715.0"/>
      <point x="658.0" y="875.0" type="curve" smooth="yes"/>
      <point x="655.0" y="947.0" type="line" smooth="yes"/>
      <point x="647.0" y="1143.0"/>
      <point x="715.0" y="1228.0"/>
      <point x="927.0" y="1228.0" type="curve" smooth="yes"/>
      <point x="972.0" y="1228.0"/>
      <point x="990.0" y="1248.0"/>
      <point x="990.0" y="1300.0" type="curve" smooth="yes"/>
      <point x="990.0" y="1352.0"/>
      <point x="972.0" y="1372.0"/>
      <point x="927.0" y="1372.0" type="curve" smooth="yes"/>
      <point x="648.0" y="1372.0"/>
      <point x="486.0" y="1240.0"/>
    </contour>
  </outline>
</glyph>
<glyph name="asciitilde" format="2">
  <advance width="1228"/>
  <unicode hex="007E"/>
  <outline>
    <contour>
      <point x="157.0" y="568.0" type="curve" smooth="yes"/>
      <point x="142.0" y="543.0"/>
      <point x="151.0" y="514.0"/>
      <point x="182.0" y="491.0" type="curve" smooth="yes"/>
      <point x="214.0" y="467.0"/>
      <point x="243.0" y="469.0"/>
      <point x="263.0" y="493.0" type="curve" smooth="yes"/>
      <point x="309.0" y="548.0"/>
      <point x="359.0" y="577.0"/>
      <point x="418.0" y="577.0" type="curve" smooth="yes"/>
      <point x="541.0" y="577.0"/>
      <point x="647.0" y="429.0"/>
      <point x="810.0" y="429.0" type="curve" smooth="yes"/>
      <point x="917.0" y="429.0"/>
      <point x="1011.0" y="498.0"/>
      <point x="1071.0" y="596.0" type="curve" smooth="yes"/>
      <point x="1086.0" y="621.0"/>
      <point x="1077.0" y="650.0"/>
      <point x="1046.0" y="673.0" type="curve" smooth="yes"/>
      <point x="1014.0" y="697.0"/>
      <point x="985.0" y="695.0"/>
      <point x="965.0" y="671.0" type="curve" smooth="yes"/>
      <point x="919.0" y="616.0"/>
      <point x="869.0" y="587.0"/>
      <point x="810.0" y="587.0" type="curve" smooth="yes"/>
      <point x="686.0" y="587.0"/>
      <point x="581.0" y="735.0"/>
      <point x="418.0" y="735.0" type="curve" smooth="yes"/>
      <point x="311.0" y="735.0"/>
      <point x="217.0" y="666.0"/>
    </contour>
  </outline>
</glyph>
<glyph name="cent" format="2">
  <advance width="1228"/>
  <unicode hex="00A2"/>
  <outline>
    <contour>
      <point x="574.0" y="1247.0" type="curve" smooth="yes"/>
      <point x="574.0" y="-60.0" type="line" smooth="yes"/>
      <point x="574.0" y="-106.0"/>
      <point x="595.0" y="-125.0"/>
      <point x="644.0" y="-125.0" type="curve" smooth="yes"/>
      <point x="693.0" y="-125.0"/>
      <point x="714.0" y="-106.0"/>
      <point x="714.0" y="-60.0" type="curve" smooth="yes"/>
      <point x="714.0" y="1247.0" type="line" smooth="yes"/>
      <point x="714.0" y="1293.0"/>
      <point x="693.0" y="1312.0"/>
      <point x="644.0" y="1312.0" type="curve" smooth="yes"/>
      <point x="595.0" y="1312.0"/>
      <point x="574.0" y="1293.0"/>
    </contour>
    <component base="c" yOffset="140"/>
  </outline>
</glyph>
<glyph name="sterling" format="2">
  <advance width="1228"/>
  <unicode hex="00A3"/>
  <outline>
    <contour>
      <point x="290.0" y="884.0" type="curve" smooth="yes"/>
      <point x="290.0" y="793.4514770507812"/>
      <point x="328.5230712890625" y="720.0858764648438"/>
      <point x="365.0086364746094" y="648.0" type="curve"/>
      <point x="283.0" y="648.0" type="line" smooth="yes"/>
      <point x="238.0" y="648.0"/>
      <point x="220.0" y="628.0"/>
      <point x="220.0" y="576.0" type="curve" smooth="yes"/>
      <point x="220.0" y="524.0"/>
      <point x="238.0" y="504.0"/>
      <point x="283.0" y="504.0" type="curve" smooth="yes"/>
      <point x="422.58203125" y="504.0" type="line"/>
      <point x="426.65802001953125" y="484.96630859375"/>
      <point x="429.0" y="465.37908935546875"/>
      <point x="429.0" y="445.0" type="curve" smooth="yes"/>
      <point x="429.0" y="341.0"/>
      <point x="390.0" y="254.0"/>
      <point x="273.0" y="138.0" type="curve" smooth="yes"/>
      <point x="259.0" y="124.0"/>
      <point x="254.0" y="112.0"/>
      <point x="254.0" y="95.0" type="curve" smooth="yes"/>
      <point x="254.0" y="53.0"/>
      <point x="277.0" y="0.0"/>
      <point x="308.0" y="0.0" type="curve" smooth="yes"/>
      <point x="915.0" y="0.0" type="line" smooth="yes"/>
      <point x="960.0" y="0.0"/>
      <point x="978.0" y="20.0"/>
      <point x="978.0" y="72.0" type="curve" smooth="yes"/>
      <point x="978.0" y="124.0"/>
      <point x="960.0" y="144.0"/>
      <point x="915.0" y="144.0" type="curve" smooth="yes"/>
      <point x="456.0" y="144.0" type="line"/>
      <point x="537.0" y="236.0"/>
      <point x="581.0" y="336.0"/>
      <point x="581.0" y="446.0" type="curve" smooth="yes"/>
      <point x="581.0" y="466.3487548828125"/>
      <point x="579.6097412109375" y="485.63201904296875"/>
      <point x="577.1093139648438" y="504.0" type="curve"/>
      <point x="815.0" y="504.0" type="line" smooth="yes"/>
      <point x="860.0" y="504.0"/>
      <point x="878.0" y="524.0"/>
      <point x="878.0" y="576.0" type="curve" smooth="yes"/>
      <point x="878.0" y="628.0"/>
      <point x="860.0" y="648.0"/>
      <point x="815.0" y="648.0" type="curve" smooth="yes"/>
      <point x="532.5006103515625" y="648.0" type="line"/>
      <point x="493.0909118652344" y="732.6375732421875"/>
      <point x="444.0" y="800.7938842773438"/>
      <point x="444.0" y="884.0" type="curve" smooth="yes"/>
      <point x="444.0" y="982.0"/>
      <point x="513.0" y="1061.0"/>
      <point x="627.0" y="1061.0" type="curve" smooth="yes"/>
      <point x="711.0" y="1061.0"/>
      <point x="788.0" y="1035.0"/>
      <point x="856.0" y="990.0" type="curve" smooth="yes"/>
      <point x="885.0" y="971.0"/>
      <point x="916.0" y="971.0"/>
      <point x="943.0" y="1021.0" type="curve" smooth="yes"/>
      <point x="971.0" y="1072.0"/>
      <point x="960.0" y="1100.0"/>
      <point x="925.0" y="1122.0" type="curve" smooth="yes"/>
      <point x="839.0" y="1176.0"/>
      <point x="739.0" y="1209.0"/>
      <point x="628.0" y="1209.0" type="curve" smooth="yes"/>
      <point x="423.0" y="1209.0"/>
      <point x="290.0" y="1069.0"/>
    </contour>
  </outline>
</glyph>
<glyph name="currency" format="2">
  <advance width="1228"/>
  <unicode hex="00A4"/>
  <outline>
    <contour>
      <point x="204.0" y="602.0" type="curve" smooth="yes"/>
      <point x="204.0" y="511.7172546386719"/>
      <point x="230.19935607910156" y="430.9615783691406"/>
      <point x="275.82086181640625" y="365.82086181640625" type="curve"/>
      <point x="134.0" y="224.0" type="line" smooth="yes"/>
      <point x="102.0" y="192.0"/>
      <point x="103.0" y="165.0"/>
      <point x="140.0" y="128.0" type="curve" smooth="yes"/>
      <point x="177.0" y="91.0"/>
      <point x="204.0" y="90.0"/>
      <point x="236.0" y="122.0" type="curve" smooth="yes"/>
      <point x="379.4360046386719" y="265.4360046386719" type="line"/>
      <point x="445.0216979980469" y="222.39996337890625"/>
      <point x="525.3485107421875" y="198.0"/>
      <point x="614.0" y="198.0" type="curve" smooth="yes"/>
      <point x="702.6514892578125" y="198.0"/>
      <point x="782.978271484375" y="222.39996337890625"/>
      <point x="848.56396484375" y="265.4360046386719" type="curve"/>
      <point x="992.0" y="122.0" type="line" smooth="yes"/>
      <point x="1024.0" y="90.0"/>
      <point x="1051.0" y="91.0"/>
      <point x="1088.0" y="128.0" type="curve" smooth="yes"/>
      <point x="1125.0" y="165.0"/>
      <point x="1126.0" y="192.0"/>
      <point x="1094.0" y="224.0" type="curve" smooth="yes"/>
      <point x="952.1791381835938" y="365.82086181640625" type="line"/>
      <point x="997.8006591796875" y="430.9615783691406"/>
      <point x="1024.0" y="511.7172546386719"/>
      <point x="1024.0" y="602.0" type="curve" smooth="yes"/>
      <point x="1024.0" y="692.28271484375"/>
      <point x="997.8006591796875" y="773.0384521484375"/>
      <point x="952.1791381835938" y="838.1791381835938" type="curve"/>
      <point x="1094.0" y="980.0" type="line" smooth="yes"/>
      <point x="1126.0" y="1012.0"/>
      <point x="1125.0" y="1039.0"/>
      <point x="1088.0" y="1076.0" type="curve" smooth="yes"/>
      <point x="1051.0" y="1113.0"/>
      <point x="1024.0" y="1114.0"/>
      <point x="992.0" y="1082.0" type="curve" smooth="yes"/>
      <point x="848.56396484375" y="938.56396484375" type="line"/>
      <point x="782.978271484375" y="981.6000366210938"/>
      <point x="702.6514892578125" y="1006.0"/>
      <point x="614.0" y="1006.0" type="curve" smooth="yes"/>
      <point x="525.3485107421875" y="1006.0"/>
      <point x="445.0216979980469" y="981.6000366210938"/>
      <point x="379.4360046386719" y="938.56396484375" type="curve"/>
      <point x="236.0" y="1082.0" type="line" smooth="yes"/>
      <point x="204.0" y="1114.0"/>
      <point x="177.0" y="1113.0"/>
      <point x="140.0" y="1076.0" type="curve" smooth="yes"/>
      <point x="103.0" y="1039.0"/>
      <point x="102.0" y="1012.0"/>
      <point x="134.0" y="980.0" type="curve" smooth="yes"/>
      <point x="275.82086181640625" y="838.1791381835938" type="line"/>
      <point x="230.19935607910156" y="773.0384521484375"/>
      <point x="204.0" y="692.28271484375"/>
    </contour>
    <contour>
      <point x="876.0" y="602.0" type="curve" smooth="yes"/>
      <point x="876.0" y="450.0"/>
      <point x="771.0" y="340.0"/>
      <point x="614.0" y="340.0" type="curve" smooth="yes"/>
      <point x="457.0" y="340.0"/>
      <point x="352.0" y="450.0"/>
      <point x="352.0" y="602.0" type="curve" smooth="yes"/>
      <point x="352.0" y="754.0"/>
      <point x="457.0" y="864.0"/>
      <point x="614.0" y="864.0" type="curve" smooth="yes"/>
      <point x="771.0" y="864.0"/>
      <point x="876.0" y="754.0"/>
    </contour>
  </outline>
</glyph>
<glyph name="yen" format="2">
  <advance width="1228"/>
  <unicode hex="00A5"/>
  <outline>
    <contour>
      <point x="233.0" y="434.0" type="line" smooth="yes"/>
      <point x="188.0" y="434.0"/>
      <point x="170.0" y="414.0"/>
      <point x="170.0" y="362.0" type="curve" smooth="yes"/>
      <point x="170.0" y="310.0"/>
      <point x="188.0" y="290.0"/>
      <point x="233.0" y="290.0" type="curve" smooth="yes"/>
      <point x="539.0" y="290.0" type="line"/>
      <point x="539.0" y="55.0" type="line" smooth="yes"/>
      <point x="539.0" y="9.0"/>
      <point x="557.0" y="-10.0"/>
      <point x="613.0" y="-10.0" type="curve" smooth="yes"/>
      <point x="615.0" y="-10.0" type="line" smooth="yes"/>
      <point x="671.0" y="-10.0"/>
      <point x="689.0" y="9.0"/>
      <point x="689.0" y="55.0" type="curve" smooth="yes"/>
      <point x="689.0" y="290.0" type="line"/>
      <point x="995.0" y="290.0" type="line" smooth="yes"/>
      <point x="1040.0" y="290.0"/>
      <point x="1058.0" y="310.0"/>
      <point x="1058.0" y="362.0" type="curve" smooth="yes"/>
      <point x="1058.0" y="414.0"/>
      <point x="1040.0" y="434.0"/>
      <point x="995.0" y="434.0" type="curve" smooth="yes"/>
      <point x="689.0" y="434.0" type="line"/>
      <point x="689.0" y="487.4532470703125" type="line"/>
      <point x="762.79248046875" y="600.0" type="line"/>
      <point x="1015.0" y="600.0" type="line" smooth="yes"/>
      <point x="1060.0" y="600.0"/>
      <point x="1078.0" y="620.0"/>
      <point x="1078.0" y="672.0" type="curve" smooth="yes"/>
      <point x="1078.0" y="724.0"/>
      <point x="1060.0" y="744.0"/>
      <point x="1015.0" y="744.0" type="curve" smooth="yes"/>
      <point x="857.20751953125" y="744.0" type="line"/>
      <point x="1088.0" y="1096.0" type="line" smooth="yes"/>
      <point x="1114.0" y="1136.0"/>
      <point x="1107.0" y="1163.0"/>
      <point x="1055.0" y="1187.0" type="curve" smooth="yes"/>
      <point x="1005.0" y="1210.0"/>
      <point x="977.0" y="1205.0"/>
      <point x="955.0" y="1172.0" type="curve" smooth="yes"/>
      <point x="614.1995849609375" y="646.019775390625" type="line"/>
      <point x="273.0" y="1172.0" type="line" smooth="yes"/>
      <point x="252.0" y="1205.0"/>
      <point x="223.0" y="1210.0"/>
      <point x="173.0" y="1187.0" type="curve" smooth="yes"/>
      <point x="121.0" y="1163.0"/>
      <point x="114.0" y="1136.0"/>
      <point x="140.0" y="1096.0" type="curve" smooth="yes"/>
      <point x="370.5232849121094" y="744.0" type="line"/>
      <point x="213.0" y="744.0" type="line" smooth="yes"/>
      <point x="168.0" y="744.0"/>
      <point x="150.0" y="724.0"/>
      <point x="150.0" y="672.0" type="curve" smooth="yes"/>
      <point x="150.0" y="620.0"/>
      <point x="168.0" y="600.0"/>
      <point x="213.0" y="600.0" type="curve" smooth="yes"/>
      <point x="464.8282470703125" y="600.0" type="line"/>
      <point x="539.0" y="486.7426452636719" type="line"/>
      <point x="539.0" y="434.0" type="line"/>
    </contour>
  </outline>
</glyph>
<glyph name="brokenbar" format="2">
  <advance width="1228"/>
  <unicode hex="00A6"/>
  <outline>
    <contour>
      <point x="539.0" y="1329.0" type="curve" smooth="yes"/>
      <point x="539.0" y="730.0" type="line" smooth="yes"/>
      <point x="539.0" y="684.0"/>
      <point x="558.0" y="665.0"/>
      <point x="614.0" y="665.0" type="curve" smooth="yes"/>
      <point x="670.0" y="665.0"/>
      <point x="689.0" y="684.0"/>
      <point x="689.0" y="730.0" type="curve" smooth="yes"/>
      <point x="689.0" y="1329.0" type="line" smooth="yes"/>
      <point x="689.0" y="1375.0"/>
      <point x="670.0" y="1394.0"/>
      <point x="614.0" y="1394.0" type="curve" smooth="yes"/>
      <point x="558.0" y="1394.0"/>
      <point x="539.0" y="1375.0"/>
    </contour>
    <contour>
      <point x="539.0" y="309.0" type="curve" smooth="yes"/>
      <point x="539.0" y="-290.0" type="line" smooth="yes"/>
      <point x="539.0" y="-336.0"/>
      <point x="558.0" y="-355.0"/>
      <point x="614.0" y="-355.0" type="curve" smooth="yes"/>
      <point x="670.0" y="-355.0"/>
      <point x="689.0" y="-336.0"/>
      <point x="689.0" y="-290.0" type="curve" smooth="yes"/>
      <point x="689.0" y="309.0" type="line" smooth="yes"/>
      <point x="689.0" y="355.0"/>
      <point x="670.0" y="374.0"/>
      <point x="614.0" y="374.0" type="curve" smooth="yes"/>
      <point x="558.0" y="374.0"/>
      <point x="539.0" y="355.0"/>
    </contour>
  </outline>
</glyph>
<glyph name="section" format="2">
  <advance width="1228"/>
  <unicode hex="00A7"/>
  <outline>
    <contour>
      <point x="569.0" y="1187.0" type="line" smooth="yes"/>
      <point x="389.0" y="1187.0"/>
      <point x="294.0" y="1087.0"/>
      <point x="294.0" y="947.0" type="curve" smooth="yes"/>
      <point x="294.0" y="904.222412109375"/>
      <point x="301.2615966796875" y="867.0927124023438"/>
      <point x="314.4151306152344" y="834.5152587890625" type="curve"/>
      <point x="238.3590850830078" y="778.4807739257812"/>
      <point x="193.0" y="715.64013671875"/>
      <point x="193.0" y="624.0" type="curve" smooth="yes"/>
      <point x="193.0" y="505.0"/>
      <point x="245.0" y="422.0"/>
      <point x="356.0" y="353.0" type="curve" smooth="yes"/>
      <point x="689.0" y="147.0" type="line" smooth="yes"/>
      <point x="752.0" y="108.0"/>
      <point x="780.0" y="72.0"/>
      <point x="780.0" y="14.0" type="curve" smooth="yes"/>
      <point x="780.0" y="-50.0"/>
      <point x="734.0" y="-86.0"/>
      <point x="639.0" y="-86.0" type="curve" smooth="yes"/>
      <point x="333.0" y="-86.0" type="line" smooth="yes"/>
      <point x="288.0" y="-86.0"/>
      <point x="270.0" y="-106.0"/>
      <point x="270.0" y="-158.0" type="curve" smooth="yes"/>
      <point x="270.0" y="-210.0"/>
      <point x="288.0" y="-230.0"/>
      <point x="333.0" y="-230.0" type="curve" smooth="yes"/>
      <point x="659.0" y="-230.0" type="line" smooth="yes"/>
      <point x="839.0" y="-230.0"/>
      <point x="934.0" y="-130.0"/>
      <point x="934.0" y="10.0" type="curve" smooth="yes"/>
      <point x="934.0" y="52.7775764465332"/>
      <point x="926.7384033203125" y="89.9072494506836"/>
      <point x="913.5848388671875" y="122.48472595214844" type="curve"/>
      <point x="989.640869140625" y="178.51918029785156"/>
      <point x="1035.0" y="241.35987854003906"/>
      <point x="1035.0" y="333.0" type="curve" smooth="yes"/>
      <point x="1035.0" y="452.0"/>
      <point x="983.0" y="535.0"/>
      <point x="872.0" y="604.0" type="curve" smooth="yes"/>
      <point x="539.0" y="810.0" type="line" smooth="yes"/>
      <point x="476.0" y="849.0"/>
      <point x="448.0" y="885.0"/>
      <point x="448.0" y="943.0" type="curve" smooth="yes"/>
      <point x="448.0" y="1007.0"/>
      <point x="494.0" y="1043.0"/>
      <point x="589.0" y="1043.0" type="curve" smooth="yes"/>
      <point x="895.0" y="1043.0" type="line" smooth="yes"/>
      <point x="940.0" y="1043.0"/>
      <point x="958.0" y="1063.0"/>
      <point x="958.0" y="1115.0" type="curve" smooth="yes"/>
      <point x="958.0" y="1167.0"/>
      <point x="940.0" y="1187.0"/>
      <point x="895.0" y="1187.0" type="curve" smooth="yes"/>
    </contour>
    <contour>
      <point x="829.5859985351562" y="233.79859924316406" type="curve"/>
      <point x="814.2838745117188" y="246.46083068847656"/>
      <point x="797.6697387695312" y="258.1263122558594"/>
      <point x="780.0" y="269.0" type="curve" smooth="yes"/>
      <point x="447.0" y="475.0" type="line" smooth="yes"/>
      <point x="380.0" y="517.0"/>
      <point x="347.0" y="564.0"/>
      <point x="347.0" y="624.0" type="curve" smooth="yes"/>
      <point x="347.0" y="668.7813720703125"/>
      <point x="365.9396057128906" y="698.5224609375"/>
      <point x="398.41400146484375" y="723.201416015625" type="curve"/>
      <point x="413.7161560058594" y="710.5391845703125"/>
      <point x="430.3302307128906" y="698.8737182617188"/>
      <point x="448.0" y="688.0" type="curve" smooth="yes"/>
      <point x="781.0" y="482.0" type="line" smooth="yes"/>
      <point x="848.0" y="440.0"/>
      <point x="881.0" y="393.0"/>
      <point x="881.0" y="333.0" type="curve" smooth="yes"/>
      <point x="881.0" y="288.2186279296875"/>
      <point x="862.0604248046875" y="258.4775390625"/>
    </contour>
  </outline>
</glyph>
<glyph name="copyright" format="2">
  <advance width="1228"/>
  <unicode hex="00A9"/>
  <outline>
    <contour>
      <point x="36.0" y="594.0" type="curve" smooth="yes"/>
      <point x="36.0" y="251.0"/>
      <point x="274.0" y="-22.0"/>
      <point x="614.0" y="-22.0" type="curve" smooth="yes"/>
      <point x="954.0" y="-22.0"/>
      <point x="1192.0" y="251.0"/>
      <point x="1192.0" y="594.0" type="curve" smooth="yes"/>
      <point x="1192.0" y="937.0"/>
      <point x="954.0" y="1209.0"/>
      <point x="614.0" y="1209.0" type="curve" smooth="yes"/>
      <point x="274.0" y="1209.0"/>
      <point x="36.0" y="937.0"/>
    </contour>
    <contour>
      <point x="1070.0" y="594.0" type="curve" smooth="yes"/>
      <point x="1070.0" y="308.0"/>
      <point x="885.0" y="98.0"/>
      <point x="614.0" y="98.0" type="curve" smooth="yes"/>
      <point x="343.0" y="98.0"/>
      <point x="158.0" y="308.0"/>
      <point x="158.0" y="594.0" type="curve" smooth="yes"/>
      <point x="158.0" y="880.0"/>
      <point x="343.0" y="1089.0"/>
      <point x="614.0" y="1089.0" type="curve" smooth="yes"/>
      <point x="885.0" y="1089.0"/>
      <point x="1070.0" y="880.0"/>
    </contour>
    <contour>
      <point x="315.0" y="593.0" type="curve" smooth="yes"/>
      <point x="315.0" y="377.0"/>
      <point x="447.0" y="249.0"/>
      <point x="629.0" y="249.0" type="curve" smooth="yes"/>
      <point x="688.0" y="249.0"/>
      <point x="753.0" y="263.0"/>
      <point x="809.0" y="289.0" type="curve" smooth="yes"/>
      <point x="848.0" y="307.0"/>
      <point x="859.0" y="333.0"/>
      <point x="843.0" y="375.0" type="curve" smooth="yes"/>
      <point x="827.0" y="417.0"/>
      <point x="802.0" y="422.0"/>
      <point x="769.0" y="407.0" type="curve" smooth="yes"/>
      <point x="721.0" y="385.0"/>
      <point x="680.0" y="375.0"/>
      <point x="629.0" y="375.0" type="curve" smooth="yes"/>
      <point x="528.0" y="375.0"/>
      <point x="448.0" y="448.0"/>
      <point x="448.0" y="593.0" type="curve" smooth="yes"/>
      <point x="448.0" y="738.0"/>
      <point x="528.0" y="811.0"/>
      <point x="629.0" y="811.0" type="curve" smooth="yes"/>
      <point x="680.0" y="811.0"/>
      <point x="721.0" y="801.0"/>
      <point x="769.0" y="779.0" type="curve" smooth="yes"/>
      <point x="802.0" y="764.0"/>
      <point x="827.0" y="769.0"/>
      <point x="843.0" y="811.0" type="curve" smooth="yes"/>
      <point x="859.0" y="853.0"/>
      <point x="848.0" y="879.0"/>
      <point x="809.0" y="897.0" type="curve" smooth="yes"/>
      <point x="753.0" y="923.0"/>
      <point x="688.0" y="937.0"/>
      <point x="629.0" y="937.0" type="curve" smooth="yes"/>
      <point x="447.0" y="937.0"/>
      <point x="315.0" y="809.0"/>
    </contour>
  </outline>
</glyph>
<glyph name="ordfeminine" format="2">
  <advance width="1228"/>
  <unicode hex="00AA"/>
  <outline>
    <contour>
      <point x="345.0" y="1128.0" type="curve" smooth="yes"/>
      <point x="320.0" y="1112.0"/>
      <point x="313.0" y="1085.0"/>
      <point x="338.0" y="1042.0" type="curve" smooth="yes"/>
      <point x="359.0" y="1005.0"/>
      <point x="387.0" y="1000.0"/>
      <point x="412.0" y="1015.0" type="curve" smooth="yes"/>
      <point x="486.0" y="1058.0"/>
      <point x="563.0" y="1080.0"/>
      <point x="644.0" y="1080.0" type="curve" smooth="yes"/>
      <point x="750.0" y="1080.0"/>
      <point x="792.0" y="1029.0"/>
      <point x="792.0" y="950.0" type="curve" smooth="yes"/>
      <point x="792.0" y="899.0" type="line"/>
      <point x="719.0" y="919.0"/>
      <point x="641.0" y="927.0"/>
      <point x="558.0" y="927.0" type="curve" smooth="yes"/>
      <point x="390.0" y="927.0"/>
      <point x="252.0" y="859.0"/>
      <point x="252.0" y="687.0" type="curve" smooth="yes"/>
      <point x="252.0" y="541.0"/>
      <point x="368.0" y="465.0"/>
      <point x="522.0" y="465.0" type="curve" smooth="yes"/>
      <point x="632.0" y="465.0"/>
      <point x="728.0" y="511.0"/>
      <point x="807.0" y="578.0" type="curve"/>
      <point x="807.0" y="524.0" type="line" smooth="yes"/>
      <point x="807.0" y="489.0"/>
      <point x="824.0" y="474.0"/>
      <point x="866.0" y="474.0" type="curve" smooth="yes"/>
      <point x="868.0" y="474.0" type="line" smooth="yes"/>
      <point x="909.0" y="474.0"/>
      <point x="927.0" y="489.0"/>
      <point x="927.0" y="524.0" type="curve" smooth="yes"/>
      <point x="927.0" y="954.0" type="line" smooth="yes"/>
      <point x="927.0" y="1115.0"/>
      <point x="831.0" y="1209.0"/>
      <point x="644.0" y="1209.0" type="curve" smooth="yes"/>
      <point x="540.0" y="1209.0"/>
      <point x="427.0" y="1180.0"/>
    </contour>
    <contour>
      <point x="792.0" y="776.0" type="curve"/>
      <point x="792.0" y="707.0" type="line"/>
      <point x="716.0" y="632.0"/>
      <point x="630.0" y="590.0"/>
      <point x="526.0" y="590.0" type="curve" smooth="yes"/>
      <point x="445.0" y="590.0"/>
      <point x="393.0" y="625.0"/>
      <point x="393.0" y="690.0" type="curve" smooth="yes"/>
      <point x="393.0" y="772.0"/>
      <point x="466.0" y="801.0"/>
      <point x="569.0" y="801.0" type="curve" smooth="yes"/>
      <point x="648.0" y="801.0"/>
      <point x="722.0" y="792.0"/>
    </contour>
  </outline>
</glyph>
<glyph name="logicalnot" format="2">
  <advance width="1228"/>
  <unicode hex="00AC"/>
  <outline>
    <contour>
      <point x="203.0" y="849.0" type="line" smooth="yes"/>
      <point x="158.0" y="849.0"/>
      <point x="140.0" y="829.0"/>
      <point x="140.0" y="777.0" type="curve" smooth="yes"/>
      <point x="140.0" y="725.0"/>
      <point x="158.0" y="705.0"/>
      <point x="203.0" y="705.0" type="curve" smooth="yes"/>
      <point x="928.0" y="705.0" type="line"/>
      <point x="928.0" y="383.0" type="line" smooth="yes"/>
      <point x="928.0" y="337.0"/>
      <point x="947.0" y="318.0"/>
      <point x="1003.0" y="318.0" type="curve" smooth="yes"/>
      <point x="1059.0" y="318.0"/>
      <point x="1078.0" y="337.0"/>
      <point x="1078.0" y="383.0" type="curve" smooth="yes"/>
      <point x="1078.0" y="781.0" type="line" smooth="yes"/>
      <point x="1078.0" y="831.0"/>
      <point x="1060.0" y="849.0"/>
      <point x="1015.0" y="849.0" type="curve" smooth="yes"/>
    </contour>
  </outline>
</glyph>
<glyph name="registered" format="2">
  <advance width="1228"/>
  <unicode hex="00AE"/>
  <outline>
    <contour>
      <point x="36.0" y="594.0" type="curve" smooth="yes"/>
      <point x="36.0" y="251.0"/>
      <point x="274.0" y="-22.0"/>
      <point x="614.0" y="-22.0" type="curve" smooth="yes"/>
      <point x="954.0" y="-22.0"/>
      <point x="1192.0" y="251.0"/>
      <point x="1192.0" y="594.0" type="curve" smooth="yes"/>
      <point x="1192.0" y="937.0"/>
      <point x="954.0" y="1209.0"/>
      <point x="614.0" y="1209.0" type="curve" smooth="yes"/>
      <point x="274.0" y="1209.0"/>
      <point x="36.0" y="937.0"/>
    </contour>
    <contour>
      <point x="1070.0" y="594.0" type="curve" smooth="yes"/>
      <point x="1070.0" y="308.0"/>
      <point x="885.0" y="98.0"/>
      <point x="614.0" y="98.0" type="curve" smooth="yes"/>
      <point x="343.0" y="98.0"/>
      <point x="158.0" y="308.0"/>
      <point x="158.0" y="594.0" type="curve" smooth="yes"/>
      <point x="158.0" y="880.0"/>
      <point x="343.0" y="1089.0"/>
      <point x="614.0" y="1089.0" type="curve" smooth="yes"/>
      <point x="885.0" y="1089.0"/>
      <point x="1070.0" y="880.0"/>
    </contour>
    <contour>
      <point x="450.0" y="917.0" type="line" smooth="yes"/>
      <point x="405.0" y="917.0"/>
      <point x="385.0" y="899.0"/>
      <point x="385.0" y="854.0" type="curve" smooth="yes"/>
      <point x="385.0" y="335.0" type="line" smooth="yes"/>
      <point x="385.0" y="289.0"/>
      <point x="400.0" y="270.0"/>
      <point x="446.0" y="270.0" type="curve" smooth="yes"/>
      <point x="492.0" y="270.0"/>
      <point x="509.0" y="289.0"/>
      <point x="509.0" y="335.0" type="curve" smooth="yes"/>
      <point x="509.0" y="470.0" type="line"/>
      <point x="598.0" y="470.0" type="line"/>
      <point x="756.0" y="288.0" type="line" smooth="yes"/>
      <point x="779.0" y="261.0"/>
      <point x="813.0" y="255.0"/>
      <point x="845.0" y="284.0" type="curve" smooth="yes"/>
      <point x="879.0" y="315.0"/>
      <point x="871.0" y="345.0"/>
      <point x="841.0" y="378.0" type="curve" smooth="yes"/>
      <point x="734.0" y="494.0" type="line"/>
      <point x="826.0" y="525.0"/>
      <point x="879.0" y="596.0"/>
      <point x="879.0" y="695.0" type="curve" smooth="yes"/>
      <point x="879.0" y="825.0"/>
      <point x="785.0" y="917.0"/>
      <point x="637.0" y="917.0" type="curve" smooth="yes"/>
    </contour>
    <contour>
      <point x="749.0" y="695.0" type="curve" smooth="yes"/>
      <point x="749.0" y="627.0"/>
      <point x="705.0" y="587.0"/>
      <point x="615.0" y="587.0" type="curve" smooth="yes"/>
      <point x="509.0" y="587.0" type="line"/>
      <point x="509.0" y="800.0" type="line"/>
      <point x="624.0" y="800.0" type="line" smooth="yes"/>
      <point x="707.0" y="800.0"/>
      <point x="749.0" y="760.0"/>
    </contour>
  </outline>
</glyph>
<glyph name="macron" format="2">
  <advance width="1228"/>
  <unicode hex="00AF"/>
  <outline>
    <contour>
      <point x="353.0" y="1250.0" type="line" smooth="yes"/>
      <point x="308.0" y="1250.0"/>
      <point x="290.0" y="1230.0"/>
      <point x="290.0" y="1178.0" type="curve" smooth="yes"/>
      <point x="290.0" y="1126.0"/>
      <point x="308.0" y="1106.0"/>
      <point x="353.0" y="1106.0" type="curve" smooth="yes"/>
      <point x="875.0" y="1106.0" type="line" smooth="yes"/>
      <point x="920.0" y="1106.0"/>
      <point x="938.0" y="1126.0"/>
      <point x="938.0" y="1178.0" type="curve" smooth="yes"/>
      <point x="938.0" y="1230.0"/>
      <point x="920.0" y="1250.0"/>
      <point x="875.0" y="1250.0" type="curve" smooth="yes"/>
    </contour>
  </outline>
</glyph>
<glyph name="degree" format="2">
  <advance width="1228"/>
  <unicode hex="00B0"/>
  <outline>
    <contour>
      <point x="526.0" y="649.0" type="curve" smooth="yes"/>
      <point x="681.0" y="649.0"/>
      <point x="806.0" y="774.0"/>
      <point x="806.0" y="929.0" type="curve" smooth="yes"/>
      <point x="806.0" y="1084.0"/>
      <point x="681.0" y="1209.0"/>
      <point x="526.0" y="1209.0" type="curve" smooth="yes"/>
      <point x="371.0" y="1209.0"/>
      <point x="246.0" y="1084.0"/>
      <point x="246.0" y="929.0" type="curve" smooth="yes"/>
      <point x="246.0" y="774.0"/>
      <point x="371.0" y="649.0"/>
    </contour>
    <contour>
      <point x="526.0" y="1074.0" type="curve" smooth="yes"/>
      <point x="606.0" y="1074.0"/>
      <point x="671.0" y="1009.0"/>
      <point x="671.0" y="929.0" type="curve" smooth="yes"/>
      <point x="671.0" y="849.0"/>
      <point x="606.0" y="784.0"/>
      <point x="526.0" y="784.0" type="curve" smooth="yes"/>
      <point x="446.0" y="784.0"/>
      <point x="381.0" y="849.0"/>
      <point x="381.0" y="929.0" type="curve" smooth="yes"/>
      <point x="381.0" y="1009.0"/>
      <point x="446.0" y="1074.0"/>
    </contour>
  </outline>
</glyph>
<glyph name="plusminus" format="2">
  <advance width="1228"/>
  <unicode hex="00B1"/>
  <outline>
    <contour>
      <point x="233.0" y="814.0" type="line" smooth="yes"/>
      <point x="188.0" y="814.0"/>
      <point x="170.0" y="794.0"/>
      <point x="170.0" y="742.0" type="curve" smooth="yes"/>
      <point x="170.0" y="690.0"/>
      <point x="188.0" y="670.0"/>
      <point x="233.0" y="670.0" type="curve" smooth="yes"/>
      <point x="542.0" y="670.0" type="line"/>
      <point x="542.0" y="421.0" type="line" smooth="yes"/>
      <point x="542.0" y="376.0"/>
      <point x="562.0" y="358.0"/>
      <point x="614.0" y="358.0" type="curve" smooth="yes"/>
      <point x="666.0" y="358.0"/>
      <point x="686.0" y="376.0"/>
      <point x="686.0" y="421.0" type="curve" smooth="yes"/>
      <point x="686.0" y="670.0" type="line"/>
      <point x="995.0" y="670.0" type="line" smooth="yes"/>
      <point x="1040.0" y="670.0"/>
      <point x="1058.0" y="690.0"/>
      <point x="1058.0" y="742.0" type="curve" smooth="yes"/>
      <point x="1058.0" y="794.0"/>
      <point x="1040.0" y="814.0"/>
      <point x="995.0" y="814.0" type="curve" smooth="yes"/>
      <point x="686.0" y="814.0" type="line"/>
      <point x="686.0" y="1063.0" type="line" smooth="yes"/>
      <point x="686.0" y="1108.0"/>
      <point x="666.0" y="1126.0"/>
      <point x="614.0" y="1126.0" type="curve" smooth="yes"/>
      <point x="562.0" y="1126.0"/>
      <point x="542.0" y="1108.0"/>
      <point x="542.0" y="1063.0" type="curve" smooth="yes"/>
      <point x="542.0" y="814.0" type="line"/>
    </contour>
    <contour>
      <point x="233.0" y="254.0" type="line" smooth="yes"/>
      <point x="188.0" y="254.0"/>
      <point x="170.0" y="234.0"/>
      <point x="170.0" y="182.0" type="curve" smooth="yes"/>
      <point x="170.0" y="130.0"/>
      <point x="188.0" y="110.0"/>
      <point x="233.0" y="110.0" type="curve" smooth="yes"/>
      <point x="995.0" y="110.0" type="line" smooth="yes"/>
      <point x="1040.0" y="110.0"/>
      <point x="1058.0" y="130.0"/>
      <point x="1058.0" y="182.0" type="curve" smooth="yes"/>
      <point x="1058.0" y="234.0"/>
      <point x="1040.0" y="254.0"/>
      <point x="995.0" y="254.0" type="curve" smooth="yes"/>
    </contour>
  </outline>
</glyph>
<glyph name="uni00B2" format="2">
  <advance width="1228"/>
  <unicode hex="00B2"/>
  <outline>
    <contour>
      <point x="332.0" y="1264.0" type="curve" smooth="yes"/>
      <point x="305.0" y="1249.0"/>
      <point x="306.0" y="1216.0"/>
      <point x="319.0" y="1184.0" type="curve" smooth="yes"/>
      <point x="332.0" y="1151.0"/>
      <point x="356.0" y="1129.0"/>
      <point x="386.0" y="1144.0" type="curve" smooth="yes"/>
      <point x="451.0" y="1177.0"/>
      <point x="535.0" y="1205.0"/>
      <point x="607.0" y="1205.0" type="curve" smooth="yes"/>
      <point x="708.0" y="1205.0"/>
      <point x="761.0" y="1154.0"/>
      <point x="761.0" y="1078.0" type="curve" smooth="yes"/>
      <point x="761.0" y="1010.0"/>
      <point x="723.0" y="961.0"/>
      <point x="651.0" y="900.0" type="curve" smooth="yes"/>
      <point x="319.0" y="620.0" type="line" smooth="yes"/>
      <point x="300.0" y="604.0"/>
      <point x="288.0" y="584.0"/>
      <point x="288.0" y="555.0" type="curve" smooth="yes"/>
      <point x="288.0" y="509.0"/>
      <point x="303.0" y="483.0"/>
      <point x="335.0" y="483.0" type="curve" smooth="yes"/>
      <point x="886.0" y="483.0" type="line" smooth="yes"/>
      <point x="918.0" y="483.0"/>
      <point x="935.0" y="501.0"/>
      <point x="935.0" y="546.0" type="curve" smooth="yes"/>
      <point x="935.0" y="591.0"/>
      <point x="918.0" y="608.0"/>
      <point x="886.0" y="608.0" type="curve" smooth="yes"/>
      <point x="499.0" y="608.0" type="line"/>
      <point x="738.0" y="806.0" type="line" smooth="yes"/>
      <point x="844.0" y="894.0"/>
      <point x="901.0" y="971.0"/>
      <point x="901.0" y="1078.0" type="curve" smooth="yes"/>
      <point x="901.0" y="1233.0"/>
      <point x="794.0" y="1334.0"/>
      <point x="616.0" y="1334.0" type="curve" smooth="yes"/>
      <point x="522.0" y="1334.0"/>
      <point x="415.0" y="1309.0"/>
    </contour>
  </outline>
</glyph>
<glyph name="uni00B3" format="2">
  <advance width="1228"/>
  <unicode hex="00B3"/>
  <outline>
    <contour>
      <point x="333.0" y="1270.0" type="curve" smooth="yes"/>
      <point x="307.0" y="1256.0"/>
      <point x="306.0" y="1224.0"/>
      <point x="319.0" y="1192.0" type="curve" smooth="yes"/>
      <point x="336.0" y="1149.0"/>
      <point x="362.0" y="1137.0"/>
      <point x="387.0" y="1150.0" type="curve" smooth="yes"/>
      <point x="452.0" y="1183.0"/>
      <point x="521.0" y="1205.0"/>
      <point x="593.0" y="1205.0" type="curve" smooth="yes"/>
      <point x="695.0" y="1205.0"/>
      <point x="759.0" y="1165.0"/>
      <point x="759.0" y="1086.0" type="curve" smooth="yes"/>
      <point x="759.0" y="999.0"/>
      <point x="697.0" y="965.0"/>
      <point x="589.0" y="965.0" type="curve" smooth="yes"/>
      <point x="550.0" y="965.0" type="line" smooth="yes"/>
      <point x="518.0" y="965.0"/>
      <point x="506.0" y="937.0"/>
      <point x="506.0" y="902.0" type="curve" smooth="yes"/>
      <point x="506.0" y="866.0"/>
      <point x="518.0" y="840.0"/>
      <point x="550.0" y="840.0" type="curve" smooth="yes"/>
      <point x="602.0" y="840.0" type="line" smooth="yes"/>
      <point x="711.0" y="840.0"/>
      <point x="786.0" y="813.0"/>
      <point x="786.0" y="720.0" type="curve" smooth="yes"/>
      <point x="786.0" y="639.0"/>
      <point x="717.0" y="594.0"/>
      <point x="598.0" y="594.0" type="curve" smooth="yes"/>
      <point x="523.0" y="594.0"/>
      <point x="443.0" y="617.0"/>
      <point x="378.0" y="650.0" type="curve" smooth="yes"/>
      <point x="349.0" y="665.0"/>
      <point x="324.0" y="644.0"/>
      <point x="310.0" y="608.0" type="curve" smooth="yes"/>
      <point x="298.0" y="576.0"/>
      <point x="296.0" y="545.0"/>
      <point x="324.0" y="530.0" type="curve" smooth="yes"/>
      <point x="406.0" y="485.0"/>
      <point x="511.0" y="465.0"/>
      <point x="605.0" y="465.0" type="curve" smooth="yes"/>
      <point x="820.0" y="465.0"/>
      <point x="926.0" y="565.0"/>
      <point x="926.0" y="719.0" type="curve" smooth="yes"/>
      <point x="926.0" y="820.0"/>
      <point x="872.0" y="886.0"/>
      <point x="787.0" y="915.0" type="curve"/>
      <point x="858.0" y="953.0"/>
      <point x="899.0" y="1012.0"/>
      <point x="899.0" y="1096.0" type="curve" smooth="yes"/>
      <point x="899.0" y="1236.0"/>
      <point x="788.0" y="1334.0"/>
      <point x="604.0" y="1334.0" type="curve" smooth="yes"/>
      <point x="510.0" y="1334.0"/>
      <point x="411.0" y="1312.0"/>
    </contour>
  </outline>
</glyph>
<glyph name="acute" format="2">
  <advance width="1228"/>
  <unicode hex="00B4"/>
  <outline>
    <contour>
      <point x="433.0" y="1146.0" type="line" smooth="yes"/>
      <point x="408.0" y="1127.0"/>
      <point x="413.0" y="1095.0"/>
      <point x="441.0" y="1063.0" type="curve" smooth="yes"/>
      <point x="467.0" y="1034.0"/>
      <point x="493.0" y="1033.0"/>
      <point x="519.0" y="1048.0" type="curve" smooth="yes"/>
      <point x="893.0" y="1267.0" type="line" smooth="yes"/>
      <point x="921.0" y="1283.0"/>
      <point x="927.0" y="1321.0"/>
      <point x="885.0" y="1374.0" type="curve" smooth="yes"/>
      <point x="848.0" y="1420.0"/>
      <point x="811.0" y="1424.0"/>
      <point x="781.0" y="1402.0" type="curve" smooth="yes"/>
    </contour>
  </outline>
</glyph>
<glyph name="mu" format="2">
  <advance width="1228"/>
  <unicode hex="00B5"/>
  <outline>
    <contour>
      <point x="1051.0" y="61.0" type="curve" smooth="yes"/>
      <point x="1051.0" y="125.0"/>
      <point x="999.0" y="125.0"/>
      <point x="963.0" y="125.0" type="curve" smooth="yes"/>
      <point x="877.0" y="125.0" type="line"/>
      <point x="877.0" y="793.0" type="line" smooth="yes"/>
      <point x="877.0" y="864.0"/>
      <point x="862.0" y="881.0"/>
      <point x="788.0" y="881.0" type="curve" smooth="yes"/>
      <point x="647.0" y="881.0" type="line" smooth="yes"/>
      <point x="612.0" y="881.0"/>
      <point x="559.0" y="881.0"/>
      <point x="559.0" y="819.0" type="curve" smooth="yes"/>
      <point x="559.0" y="756.0"/>
      <point x="610.0" y="756.0"/>
      <point x="647.0" y="756.0" type="curve" smooth="yes"/>
      <point x="733.0" y="756.0" type="line"/>
      <point x="733.0" y="324.0" type="line" smooth="yes"/>
      <point x="733.0" y="281.0"/>
      <point x="733.0" y="219.0"/>
      <point x="668.0" y="166.0" type="curve" smooth="yes"/>
      <point x="600.0" y="113.0"/>
      <point x="530.0" y="113.0"/>
      <point x="502.0" y="113.0" type="curve" smooth="yes"/>
      <point x="340.0" y="113.0"/>
      <point x="340.0" y="178.0"/>
      <point x="340.0" y="248.0" type="curve" smooth="yes"/>
      <point x="340.0" y="793.0" type="line" smooth="yes"/>
      <point x="340.0" y="864.0"/>
      <point x="326.0" y="881.0"/>
      <point x="252.0" y="881.0" type="curve" smooth="yes"/>
      <point x="111.0" y="881.0" type="line" smooth="yes"/>
      <point x="76.0" y="881.0"/>
      <point x="23.0" y="881.0"/>
      <point x="23.0" y="819.0" type="curve" smooth="yes"/>
      <point x="23.0" y="756.0"/>
      <point x="74.0" y="756.0"/>
      <point x="111.0" y="756.0" type="curve" smooth="yes"/>
      <point x="197.0" y="756.0" type="line"/>
      <point x="197.0" y="-330.0" type="line"/>
      <point x="111.0" y="-330.0" type="line" smooth="yes"/>
      <point x="76.0" y="-330.0"/>
      <point x="23.0" y="-330.0"/>
      <point x="23.0" y="-391.0" type="curve" smooth="yes"/>
      <point x="23.0" y="-455.0"/>
      <point x="74.0" y="-455.0"/>
      <point x="111.0" y="-455.0" type="curve" smooth="yes"/>
      <point x="426.0" y="-455.0" type="line" smooth="yes"/>
      <point x="461.0" y="-455.0"/>
      <point x="514.0" y="-455.0"/>
      <point x="514.0" y="-393.0" type="curve" smooth="yes"/>
      <point x="514.0" y="-330.0"/>
      <point x="463.0" y="-330.0"/>
      <point x="426.0" y="-330.0" type="curve" smooth="yes"/>
      <point x="340.0" y="-330.0" type="line"/>
      <point x="340.0" y="10.0" type="line"/>
      <point x="399.0" y="-12.0"/>
      <point x="467.0" y="-12.0"/>
      <point x="489.0" y="-12.0" type="curve" smooth="yes"/>
      <point x="594.0" y="-12.0"/>
      <point x="668.0" y="16.0"/>
      <point x="731.0" y="63.0" type="curve"/>
      <point x="735.0" y="0.0"/>
      <point x="784.0" y="0.0"/>
      <point x="821.0" y="0.0" type="curve" smooth="yes"/>
      <point x="963.0" y="0.0" type="line" smooth="yes"/>
      <point x="997.0" y="0.0"/>
      <point x="1051.0" y="0.0"/>
    </contour>
  </outline>
</glyph>
<glyph name="paragraph" format="2">
  <advance width="1228"/>
  <unicode hex="00B6"/>
  <outline>
    <contour>
      <point x="548.0" y="1187.0" type="line" smooth="yes"/>
      <point x="303.0" y="1187.0"/>
      <point x="131.0" y="1060.0"/>
      <point x="131.0" y="844.0" type="curve" smooth="yes"/>
      <point x="131.0" y="635.0"/>
      <point x="293.0" y="509.0"/>
      <point x="526.0" y="502.0" type="curve"/>
      <point x="526.0" y="-345.0" type="line" smooth="yes"/>
      <point x="526.0" y="-391.0"/>
      <point x="545.0" y="-410.0"/>
      <point x="601.0" y="-410.0" type="curve" smooth="yes"/>
      <point x="657.0" y="-410.0"/>
      <point x="676.0" y="-391.0"/>
      <point x="676.0" y="-345.0" type="curve" smooth="yes"/>
      <point x="676.0" y="1043.0" type="line"/>
      <point x="836.0" y="1043.0" type="line"/>
      <point x="836.0" y="-345.0" type="line" smooth="yes"/>
      <point x="836.0" y="-391.0"/>
      <point x="855.0" y="-410.0"/>
      <point x="911.0" y="-410.0" type="curve" smooth="yes"/>
      <point x="967.0" y="-410.0"/>
      <point x="986.0" y="-391.0"/>
      <point x="986.0" y="-345.0" type="curve" smooth="yes"/>
      <point x="986.0" y="1043.0" type="line"/>
      <point x="1054.0" y="1043.0" type="line" smooth="yes"/>
      <point x="1099.0" y="1043.0"/>
      <point x="1117.0" y="1063.0"/>
      <point x="1117.0" y="1115.0" type="curve" smooth="yes"/>
      <point x="1117.0" y="1167.0"/>
      <point x="1099.0" y="1187.0"/>
      <point x="1054.0" y="1187.0" type="curve" smooth="yes"/>
    </contour>
  </outline>
</glyph>
<glyph name="cedilla" format="2">
  <advance width="1228"/>
  <unicode hex="00B8"/>
  <outline>
    <contour>
      <point x="531.0" y="28.0" type="line"/>
      <point x="531.0" y="-177.0" type="line" smooth="yes"/>
      <point x="531.0" y="-212.0"/>
      <point x="549.0" y="-222.0"/>
      <point x="567.0" y="-221.0" type="curve" smooth="yes"/>
      <point x="680.0" y="-214.0"/>
      <point x="720.0" y="-237.0"/>
      <point x="720.0" y="-285.0" type="curve" smooth="yes"/>
      <point x="720.0" y="-327.0"/>
      <point x="677.0" y="-349.0"/>
      <point x="611.0" y="-349.0" type="curve" smooth="yes"/>
      <point x="544.0" y="-349.0"/>
      <point x="470.0" y="-331.0"/>
      <point x="418.0" y="-311.0" type="curve" smooth="yes"/>
      <point x="393.0" y="-302.0"/>
      <point x="373.0" y="-318.0"/>
      <point x="359.0" y="-354.0" type="curve" smooth="yes"/>
      <point x="345.0" y="-389.0"/>
      <point x="349.0" y="-412.0"/>
      <point x="374.0" y="-424.0" type="curve" smooth="yes"/>
      <point x="443.0" y="-456.0"/>
      <point x="532.0" y="-472.0"/>
      <point x="621.0" y="-472.0" type="curve" smooth="yes"/>
      <point x="788.0" y="-472.0"/>
      <point x="866.0" y="-393.0"/>
      <point x="866.0" y="-281.0" type="curve" smooth="yes"/>
      <point x="866.0" y="-187.0"/>
      <point x="805.0" y="-111.0"/>
      <point x="663.0" y="-113.0" type="curve"/>
      <point x="663.0" y="28.0" type="line"/>
    </contour>
  </outline>
</glyph>
<glyph name="uni00B9" format="2">
  <advance width="1228"/>
  <unicode hex="00B9"/>
  <outline>
    <contour>
      <point x="569.0" y="608.0" type="line"/>
      <point x="365.0" y="608.0" type="line" smooth="yes"/>
      <point x="333.0" y="608.0"/>
      <point x="315.0" y="591.0"/>
      <point x="315.0" y="546.0" type="curve" smooth="yes"/>
      <point x="315.0" y="501.0"/>
      <point x="333.0" y="483.0"/>
      <point x="365.0" y="483.0" type="curve" smooth="yes"/>
      <point x="898.0" y="483.0" type="line" smooth="yes"/>
      <point x="930.0" y="483.0"/>
      <point x="947.0" y="501.0"/>
      <point x="947.0" y="546.0" type="curve" smooth="yes"/>
      <point x="947.0" y="591.0"/>
      <point x="930.0" y="608.0"/>
      <point x="898.0" y="608.0" type="curve" smooth="yes"/>
      <point x="704.0" y="608.0" type="line"/>
      <point x="704.0" y="1292.0" type="line" smooth="yes"/>
      <point x="704.0" y="1330.0"/>
      <point x="672.0" y="1341.0"/>
      <point x="638.0" y="1330.0" type="curve" smooth="yes"/>
      <point x="354.0" y="1239.0" type="line" smooth="yes"/>
      <point x="317.0" y="1227.0"/>
      <point x="312.0" y="1201.0"/>
      <point x="325.0" y="1163.0" type="curve" smooth="yes"/>
      <point x="339.0" y="1123.0"/>
      <point x="360.0" y="1110.0"/>
      <point x="395.0" y="1122.0" type="curve" smooth="yes"/>
      <point x="569.0" y="1179.0" type="line"/>
    </contour>
  </outline>
</glyph>
<glyph name="ordmasculine" format="2">
  <advance width="1228"/>
  <unicode hex="00BA"/>
  <outline>
    <contour>
      <point x="235.0" y="837.0" type="curve" smooth="yes"/>
      <point x="235.0" y="620.0"/>
      <point x="398.0" y="465.0"/>
      <point x="614.0" y="465.0" type="curve" smooth="yes"/>
      <point x="830.0" y="465.0"/>
      <point x="993.0" y="620.0"/>
      <point x="993.0" y="837.0" type="curve" smooth="yes"/>
      <point x="993.0" y="1053.0"/>
      <point x="830.0" y="1209.0"/>
      <point x="614.0" y="1209.0" type="curve" smooth="yes"/>
      <point x="398.0" y="1209.0"/>
      <point x="235.0" y="1053.0"/>
    </contour>
    <contour>
      <point x="853.0" y="837.0" type="curve" smooth="yes"/>
      <point x="853.0" y="697.0"/>
      <point x="758.0" y="597.0"/>
      <point x="614.0" y="597.0" type="curve" smooth="yes"/>
      <point x="471.0" y="597.0"/>
      <point x="375.0" y="697.0"/>
      <point x="375.0" y="837.0" type="curve" smooth="yes"/>
      <point x="375.0" y="976.0"/>
      <point x="471.0" y="1077.0"/>
      <point x="614.0" y="1077.0" type="curve" smooth="yes"/>
      <point x="758.0" y="1077.0"/>
      <point x="853.0" y="976.0"/>
    </contour>
  </outline>
</glyph>
<glyph name="onequarter" format="2">
  <advance width="1228"/>
  <unicode hex="00BC"/>
  <outline>
    <contour>
      <point x="961.0" y="458.0" type="curve" smooth="yes"/>
      <point x="644.0" y="81.0" type="line"/>
      <point x="634.0" y="67.0"/>
      <point x="630.0" y="56.0"/>
      <point x="630.0" y="36.0" type="curve" smooth="yes"/>
      <point x="630.0" y="-9.0"/>
      <point x="649.0" y="-29.0"/>
      <point x="675.0" y="-29.0" type="curve" smooth="yes"/>
      <point x="989.0" y="-29.0" type="line"/>
      <point x="989.0" y="-182.0" type="line" smooth="yes"/>
      <point x="989.0" y="-208.0"/>
      <point x="1005.0" y="-222.0"/>
      <point x="1046.0" y="-222.0" type="curve" smooth="yes"/>
      <point x="1088.0" y="-222.0"/>
      <point x="1102.0" y="-208.0"/>
      <point x="1102.0" y="-182.0" type="curve" smooth="yes"/>
      <point x="1102.0" y="-29.0" type="line"/>
      <point x="1193.0" y="-29.0" type="line" smooth="yes"/>
      <point x="1219.0" y="-29.0"/>
      <point x="1233.0" y="-14.0"/>
      <point x="1233.0" y="24.0" type="curve" smooth="yes"/>
      <point x="1233.0" y="62.0"/>
      <point x="1219.0" y="76.0"/>
      <point x="1193.0" y="76.0" type="curve" smooth="yes"/>
      <point x="1102.0" y="76.0" type="line"/>
      <point x="1102.0" y="448.0" type="line" smooth="yes"/>
      <point x="1102.0" y="476.0"/>
      <point x="1065.0" y="495.0"/>
      <point x="1028.0" y="495.0" type="curve" smooth="yes"/>
      <point x="998.0" y="495.0"/>
      <point x="980.0" y="482.0"/>
    </contour>
    <contour>
      <point x="213.0" y="788.0" type="line"/>
      <point x="43.0" y="788.0" type="line" smooth="yes"/>
      <point x="16.0" y="788.0"/>
      <point x="1.0" y="774.0"/>
      <point x="1.0" y="736.0" type="curve" smooth="yes"/>
      <point x="1.0" y="699.0"/>
      <point x="16.0" y="684.0"/>
      <point x="43.0" y="684.0" type="curve" smooth="yes"/>
      <point x="488.0" y="684.0" type="line" smooth="yes"/>
      <point x="515.0" y="684.0"/>
      <point x="529.0" y="699.0"/>
      <point x="529.0" y="736.0" type="curve" smooth="yes"/>
      <point x="529.0" y="774.0"/>
      <point x="515.0" y="788.0"/>
      <point x="488.0" y="788.0" type="curve" smooth="yes"/>
      <point x="326.0" y="788.0" type="line"/>
      <point x="326.0" y="1359.0" type="line" smooth="yes"/>
      <point x="326.0" y="1390.0"/>
      <point x="299.0" y="1399.0"/>
      <point x="271.0" y="1390.0" type="curve" smooth="yes"/>
      <point x="34.0" y="1314.0" type="line" smooth="yes"/>
      <point x="3.0" y="1304.0"/>
      <point x="-1.0" y="1283.0"/>
      <point x="9.0" y="1251.0" type="curve" smooth="yes"/>
      <point x="21.0" y="1218.0"/>
      <point x="39.0" y="1207.0"/>
      <point x="68.0" y="1217.0" type="curve" smooth="yes"/>
      <point x="213.0" y="1264.0" type="line"/>
    </contour>
    <contour>
      <point x="125.0" y="279.0" type="line" smooth="yes"/>
      <point x="106.0" y="267.0"/>
      <point x="106.0" y="240.0"/>
      <point x="125.0" y="214.0" type="curve" smooth="yes"/>
      <point x="144.0" y="188.0"/>
      <point x="168.0" y="180.0"/>
      <point x="185.0" y="190.0" type="curve" smooth="yes"/>
      <point x="1103.0" y="751.0" type="line" smooth="yes"/>
      <point x="1122.0" y="763.0"/>
      <point x="1122.0" y="790.0"/>
      <point x="1103.0" y="816.0" type="curve" smooth="yes"/>
      <point x="1084.0" y="842.0"/>
      <point x="1060.0" y="850.0"/>
      <point x="1043.0" y="840.0" type="curve" smooth="yes"/>
    </contour>
    <contour>
      <point x="989.0" y="76.0" type="line"/>
      <point x="773.0" y="76.0" type="line"/>
      <point x="994.0" y="342.0" type="line"/>
    </contour>
  </outline>
</glyph>
<glyph name="onehalf" format="2">
  <advance width="1228"/>
  <unicode hex="00BD"/>
  <outline>
    <contour>
      <point x="706.0" y="435.0" type="curve" smooth="yes"/>
      <point x="684.0" y="423.0"/>
      <point x="685.0" y="395.0"/>
      <point x="695.0" y="368.0" type="curve" smooth="yes"/>
      <point x="706.0" y="341.0"/>
      <point x="726.0" y="323.0"/>
      <point x="751.0" y="335.0" type="curve" smooth="yes"/>
      <point x="806.0" y="363.0"/>
      <point x="876.0" y="386.0"/>
      <point x="936.0" y="386.0" type="curve" smooth="yes"/>
      <point x="1020.0" y="386.0"/>
      <point x="1064.0" y="343.0"/>
      <point x="1064.0" y="280.0" type="curve" smooth="yes"/>
      <point x="1064.0" y="223.0"/>
      <point x="1033.0" y="182.0"/>
      <point x="973.0" y="132.0" type="curve" smooth="yes"/>
      <point x="695.0" y="-102.0" type="line" smooth="yes"/>
      <point x="679.0" y="-115.0"/>
      <point x="669.0" y="-132.0"/>
      <point x="669.0" y="-156.0" type="curve" smooth="yes"/>
      <point x="669.0" y="-194.0"/>
      <point x="682.0" y="-216.0"/>
      <point x="709.0" y="-216.0" type="curve" smooth="yes"/>
      <point x="1169.0" y="-216.0" type="line" smooth="yes"/>
      <point x="1196.0" y="-216.0"/>
      <point x="1210.0" y="-201.0"/>
      <point x="1210.0" y="-164.0" type="curve" smooth="yes"/>
      <point x="1210.0" y="-126.0"/>
      <point x="1196.0" y="-112.0"/>
      <point x="1169.0" y="-112.0" type="curve" smooth="yes"/>
      <point x="846.0" y="-112.0" type="line"/>
      <point x="1045.0" y="53.0" type="line" smooth="yes"/>
      <point x="1134.0" y="127.0"/>
      <point x="1181.0" y="191.0"/>
      <point x="1181.0" y="280.0" type="curve" smooth="yes"/>
      <point x="1181.0" y="409.0"/>
      <point x="1092.0" y="494.0"/>
      <point x="943.0" y="494.0" type="curve" smooth="yes"/>
      <point x="865.0" y="494.0"/>
      <point x="776.0" y="473.0"/>
    </contour>
    <contour>
      <point x="213.0" y="788.0" type="line"/>
      <point x="43.0" y="788.0" type="line" smooth="yes"/>
      <point x="16.0" y="788.0"/>
      <point x="1.0" y="774.0"/>
      <point x="1.0" y="736.0" type="curve" smooth="yes"/>
      <point x="1.0" y="699.0"/>
      <point x="16.0" y="684.0"/>
      <point x="43.0" y="684.0" type="curve" smooth="yes"/>
      <point x="488.0" y="684.0" type="line" smooth="yes"/>
      <point x="515.0" y="684.0"/>
      <point x="529.0" y="699.0"/>
      <point x="529.0" y="736.0" type="curve" smooth="yes"/>
      <point x="529.0" y="774.0"/>
      <point x="515.0" y="788.0"/>
      <point x="488.0" y="788.0" type="curve" smooth="yes"/>
      <point x="326.0" y="788.0" type="line"/>
      <point x="326.0" y="1359.0" type="line" smooth="yes"/>
      <point x="326.0" y="1390.0"/>
      <point x="299.0" y="1399.0"/>
      <point x="271.0" y="1390.0" type="curve" smooth="yes"/>
      <point x="34.0" y="1314.0" type="line" smooth="yes"/>
      <point x="3.0" y="1304.0"/>
      <point x="-1.0" y="1283.0"/>
      <point x="9.0" y="1251.0" type="curve" smooth="yes"/>
      <point x="21.0" y="1218.0"/>
      <point x="39.0" y="1207.0"/>
      <point x="68.0" y="1217.0" type="curve" smooth="yes"/>
      <point x="213.0" y="1264.0" type="line"/>
    </contour>
    <contour>
      <point x="125.0" y="329.0" type="line" smooth="yes"/>
      <point x="106.0" y="317.0"/>
      <point x="106.0" y="290.0"/>
      <point x="125.0" y="264.0" type="curve" smooth="yes"/>
      <point x="144.0" y="238.0"/>
      <point x="168.0" y="230.0"/>
      <point x="185.0" y="240.0" type="curve" smooth="yes"/>
      <point x="1103.0" y="801.0" type="line" smooth="yes"/>
      <point x="1122.0" y="813.0"/>
      <point x="1122.0" y="840.0"/>
      <point x="1103.0" y="866.0" type="curve" smooth="yes"/>
      <point x="1084.0" y="892.0"/>
      <point x="1060.0" y="900.0"/>
      <point x="1043.0" y="890.0" type="curve" smooth="yes"/>
    </contour>
  </outline>
</glyph>
<glyph name="threequarters" format="2">
  <advance width="1228"/>
  <unicode hex="00BE"/>
  <outline>
    <contour>
      <point x="961.0" y="458.0" type="curve" smooth="yes"/>
      <point x="644.0" y="81.0" type="line"/>
      <point x="634.0" y="67.0"/>
      <point x="630.0" y="56.0"/>
      <point x="630.0" y="36.0" type="curve" smooth="yes"/>
      <point x="630.0" y="-9.0"/>
      <point x="649.0" y="-29.0"/>
      <point x="675.0" y="-29.0" type="curve" smooth="yes"/>
      <point x="989.0" y="-29.0" type="line"/>
      <point x="989.0" y="-182.0" type="line" smooth="yes"/>
      <point x="989.0" y="-208.0"/>
      <point x="1005.0" y="-222.0"/>
      <point x="1046.0" y="-222.0" type="curve" smooth="yes"/>
      <point x="1088.0" y="-222.0"/>
      <point x="1102.0" y="-208.0"/>
      <point x="1102.0" y="-182.0" type="curve" smooth="yes"/>
      <point x="1102.0" y="-29.0" type="line"/>
      <point x="1193.0" y="-29.0" type="line" smooth="yes"/>
      <point x="1219.0" y="-29.0"/>
      <point x="1233.0" y="-14.0"/>
      <point x="1233.0" y="24.0" type="curve" smooth="yes"/>
      <point x="1233.0" y="62.0"/>
      <point x="1219.0" y="76.0"/>
      <point x="1193.0" y="76.0" type="curve" smooth="yes"/>
      <point x="1102.0" y="76.0" type="line"/>
      <point x="1102.0" y="448.0" type="line" smooth="yes"/>
      <point x="1102.0" y="476.0"/>
      <point x="1065.0" y="495.0"/>
      <point x="1028.0" y="495.0" type="curve" smooth="yes"/>
      <point x="998.0" y="495.0"/>
      <point x="980.0" y="482.0"/>
    </contour>
    <contour>
      <point x="47.0" y="1340.0" type="curve" smooth="yes"/>
      <point x="25.0" y="1329.0"/>
      <point x="25.0" y="1302.0"/>
      <point x="35.0" y="1275.0" type="curve" smooth="yes"/>
      <point x="50.0" y="1239.0"/>
      <point x="71.0" y="1229.0"/>
      <point x="92.0" y="1240.0" type="curve" smooth="yes"/>
      <point x="146.0" y="1268.0"/>
      <point x="204.0" y="1286.0"/>
      <point x="264.0" y="1286.0" type="curve" smooth="yes"/>
      <point x="349.0" y="1286.0"/>
      <point x="403.0" y="1253.0"/>
      <point x="403.0" y="1187.0" type="curve" smooth="yes"/>
      <point x="403.0" y="1114.0"/>
      <point x="351.0" y="1086.0"/>
      <point x="261.0" y="1086.0" type="curve" smooth="yes"/>
      <point x="228.0" y="1086.0" type="line" smooth="yes"/>
      <point x="202.0" y="1086.0"/>
      <point x="192.0" y="1062.0"/>
      <point x="192.0" y="1033.0" type="curve" smooth="yes"/>
      <point x="192.0" y="1003.0"/>
      <point x="202.0" y="982.0"/>
      <point x="228.0" y="982.0" type="curve" smooth="yes"/>
      <point x="272.0" y="982.0" type="line" smooth="yes"/>
      <point x="363.0" y="982.0"/>
      <point x="425.0" y="959.0"/>
      <point x="425.0" y="881.0" type="curve" smooth="yes"/>
      <point x="425.0" y="814.0"/>
      <point x="368.0" y="776.0"/>
      <point x="268.0" y="776.0" type="curve" smooth="yes"/>
      <point x="206.0" y="776.0"/>
      <point x="139.0" y="796.0"/>
      <point x="85.0" y="823.0" type="curve" smooth="yes"/>
      <point x="60.0" y="836.0"/>
      <point x="40.0" y="818.0"/>
      <point x="28.0" y="788.0" type="curve" smooth="yes"/>
      <point x="18.0" y="761.0"/>
      <point x="16.0" y="736.0"/>
      <point x="40.0" y="723.0" type="curve" smooth="yes"/>
      <point x="108.0" y="685.0"/>
      <point x="196.0" y="669.0"/>
      <point x="274.0" y="669.0" type="curve" smooth="yes"/>
      <point x="454.0" y="669.0"/>
      <point x="542.0" y="752.0"/>
      <point x="542.0" y="881.0" type="curve" smooth="yes"/>
      <point x="542.0" y="965.0"/>
      <point x="497.0" y="1020.0"/>
      <point x="426.0" y="1044.0" type="curve"/>
      <point x="485.0" y="1076.0"/>
      <point x="520.0" y="1125.0"/>
      <point x="520.0" y="1195.0" type="curve" smooth="yes"/>
      <point x="520.0" y="1312.0"/>
      <point x="427.0" y="1394.0"/>
      <point x="273.0" y="1394.0" type="curve" smooth="yes"/>
      <point x="195.0" y="1394.0"/>
      <point x="112.0" y="1375.0"/>
    </contour>
    <contour>
      <point x="125.0" y="289.0" type="line" smooth="yes"/>
      <point x="106.0" y="277.0"/>
      <point x="106.0" y="250.0"/>
      <point x="125.0" y="224.0" type="curve" smooth="yes"/>
      <point x="144.0" y="198.0"/>
      <point x="168.0" y="190.0"/>
      <point x="185.0" y="200.0" type="curve" smooth="yes"/>
      <point x="1103.0" y="761.0" type="line" smooth="yes"/>
      <point x="1122.0" y="773.0"/>
      <point x="1122.0" y="800.0"/>
      <point x="1103.0" y="826.0" type="curve" smooth="yes"/>
      <point x="1084.0" y="852.0"/>
      <point x="1060.0" y="860.0"/>
      <point x="1043.0" y="850.0" type="curve" smooth="yes"/>
    </contour>
    <contour>
      <point x="989.0" y="76.0" type="line"/>
      <point x="773.0" y="76.0" type="line"/>
      <point x="994.0" y="342.0" type="line"/>
    </contour>
  </outline>
</glyph>
<glyph name="AE" format="2">
  <advance width="1228"/>
  <unicode hex="00C6"/>
  <outline>
    <contour>
      <point x="519.0" y="1187.0" type="line" smooth="yes"/>
      <point x="474.0" y="1187.0"/>
      <point x="449.0" y="1169.0"/>
      <point x="430.0" y="1119.0" type="curve" smooth="yes"/>
      <point x="27.0" y="84.0" type="line" smooth="yes"/>
      <point x="10.0" y="40.0"/>
      <point x="23.0" y="15.0"/>
      <point x="76.0" y="-2.0" type="curve" smooth="yes"/>
      <point x="129.0" y="-19.0"/>
      <point x="154.0" y="-8.0"/>
      <point x="171.0" y="36.0" type="curve" smooth="yes"/>
      <point x="300.8414306640625" y="370.0" type="line"/>
      <point x="575.0" y="370.0" type="line"/>
      <point x="575.0" y="68.0" type="line" smooth="yes"/>
      <point x="575.0" y="18.0"/>
      <point x="593.0" y="0.0"/>
      <point x="638.0" y="0.0" type="curve" smooth="yes"/>
      <point x="1107.0" y="0.0" type="line" smooth="yes"/>
      <point x="1152.0" y="0.0"/>
      <point x="1170.0" y="20.0"/>
      <point x="1170.0" y="72.0" type="curve" smooth="yes"/>
      <point x="1170.0" y="124.0"/>
      <point x="1152.0" y="144.0"/>
      <point x="1107.0" y="144.0" type="curve" smooth="yes"/>
      <point x="725.0" y="144.0" type="line"/>
      <point x="725.0" y="540.0" type="line"/>
      <point x="1042.0" y="540.0" type="line" smooth="yes"/>
      <point x="1087.0" y="540.0"/>
      <point x="1105.0" y="560.0"/>
      <point x="1105.0" y="612.0" type="curve" smooth="yes"/>
      <point x="1105.0" y="664.0"/>
      <point x="1087.0" y="684.0"/>
      <point x="1042.0" y="684.0" type="curve" smooth="yes"/>
      <point x="725.0" y="684.0" type="line"/>
      <point x="725.0" y="1043.0" type="line"/>
      <point x="1087.0" y="1043.0" type="line" smooth="yes"/>
      <point x="1132.0" y="1043.0"/>
      <point x="1150.0" y="1063.0"/>
      <point x="1150.0" y="1115.0" type="curve" smooth="yes"/>
      <point x="1150.0" y="1167.0"/>
      <point x="1132.0" y="1187.0"/>
      <point x="1087.0" y="1187.0" type="curve" smooth="yes"/>
    </contour>
    <contour>
      <point x="354.86187744140625" y="514.0" type="line"/>
      <point x="550.0" y="1043.0" type="line"/>
      <point x="575.0" y="1043.0" type="line"/>
      <point x="575.0" y="514.0" type="line"/>
    </contour>
  </outline>
</glyph>
<glyph name="Eth" format="2">
  <advance width="1228"/>
  <unicode hex="00D0"/>
  <outline>
    <contour>
      <point x="288.0" y="1187.0" type="line" smooth="yes"/>
      <point x="243.0" y="1187.0"/>
      <point x="225.0" y="1169.0"/>
      <point x="225.0" y="1119.0" type="curve" smooth="yes"/>
      <point x="225.0" y="684.0" type="line"/>
      <point x="113.0" y="684.0" type="line" smooth="yes"/>
      <point x="68.0" y="684.0"/>
      <point x="50.0" y="664.0"/>
      <point x="50.0" y="612.0" type="curve" smooth="yes"/>
      <point x="50.0" y="560.0"/>
      <point x="68.0" y="540.0"/>
      <point x="113.0" y="540.0" type="curve" smooth="yes"/>
      <point x="225.0" y="540.0" type="line"/>
      <point x="225.0" y="68.0" type="line" smooth="yes"/>
      <point x="225.0" y="18.0"/>
      <point x="243.0" y="0.0"/>
      <point x="288.0" y="0.0" type="curve" smooth="yes"/>
      <point x="594.0" y="0.0" type="line" smooth="yes"/>
      <point x="909.0" y="0.0"/>
      <point x="1120.0" y="223.0"/>
      <point x="1120.0" y="593.0" type="curve" smooth="yes"/>
      <point x="1120.0" y="963.0"/>
      <point x="909.0" y="1187.0"/>
      <point x="594.0" y="1187.0" type="curve" smooth="yes"/>
    </contour>
    <contour>
      <point x="966.0" y="593.0" type="curve" smooth="yes"/>
      <point x="966.0" y="295.0"/>
      <point x="812.0" y="144.0"/>
      <point x="575.0" y="144.0" type="curve" smooth="yes"/>
      <point x="375.0" y="144.0" type="line"/>
      <point x="375.0" y="540.0" type="line"/>
      <point x="595.0" y="540.0" type="line" smooth="yes"/>
      <point x="640.0" y="540.0"/>
      <point x="658.0" y="560.0"/>
      <point x="658.0" y="612.0" type="curve" smooth="yes"/>
      <point x="658.0" y="664.0"/>
      <point x="640.0" y="684.0"/>
      <point x="595.0" y="684.0" type="curve" smooth="yes"/>
      <point x="375.0" y="684.0" type="line"/>
      <point x="375.0" y="1043.0" type="line"/>
      <point x="575.0" y="1043.0" type="line" smooth="yes"/>
      <point x="812.0" y="1043.0"/>
      <point x="966.0" y="891.0"/>
    </contour>
  </outline>
</glyph>
<glyph name="multiply" format="2">
  <advance width="1228"/>
  <unicode hex="00D7"/>
  <outline>
    <contour>
      <point x="254.0" y="840.0" type="curve" smooth="yes"/>
      <point x="512.0" y="582.0" type="line"/>
      <point x="254.0" y="324.0" type="line" smooth="yes"/>
      <point x="222.0" y="292.0"/>
      <point x="223.0" y="265.0"/>
      <point x="260.0" y="228.0" type="curve" smooth="yes"/>
      <point x="297.0" y="191.0"/>
      <point x="324.0" y="190.0"/>
      <point x="356.0" y="222.0" type="curve" smooth="yes"/>
      <point x="614.0" y="480.0" type="line"/>
      <point x="872.0" y="222.0" type="line" smooth="yes"/>
      <point x="904.0" y="190.0"/>
      <point x="931.0" y="191.0"/>
      <point x="968.0" y="228.0" type="curve" smooth="yes"/>
      <point x="1005.0" y="265.0"/>
      <point x="1006.0" y="292.0"/>
      <point x="974.0" y="324.0" type="curve" smooth="yes"/>
      <point x="716.0" y="582.0" type="line"/>
      <point x="974.0" y="840.0" type="line" smooth="yes"/>
      <point x="1006.0" y="872.0"/>
      <point x="1005.0" y="899.0"/>
      <point x="968.0" y="936.0" type="curve" smooth="yes"/>
      <point x="931.0" y="973.0"/>
      <point x="904.0" y="974.0"/>
      <point x="872.0" y="942.0" type="curve" smooth="yes"/>
      <point x="614.0" y="684.0" type="line"/>
      <point x="356.0" y="942.0" type="line" smooth="yes"/>
      <point x="324.0" y="974.0"/>
      <point x="297.0" y="973.0"/>
      <point x="260.0" y="936.0" type="curve" smooth="yes"/>
      <point x="223.0" y="899.0"/>
      <point x="222.0" y="872.0"/>
    </contour>
  </outline>
</glyph>
<glyph name="Oslash" format="2">
  <advance width="1228"/>
  <unicode hex="00D8"/>
  <outline>
    <contour>
      <point x="976.0" y="1239.0" type="curve" smooth="yes"/>
      <point x="137.0" y="30.0" type="line" smooth="yes"/>
      <point x="111.0" y="-8.0"/>
      <point x="117.0" y="-35.0"/>
      <point x="158.0" y="-63.0" type="curve" smooth="yes"/>
      <point x="198.0" y="-91.0"/>
      <point x="226.0" y="-88.0"/>
      <point x="252.0" y="-50.0" type="curve" smooth="yes"/>
      <point x="1091.0" y="1159.0" type="line" smooth="yes"/>
      <point x="1116.0" y="1196.0"/>
      <point x="1111.0" y="1224.0"/>
      <point x="1071.0" y="1252.0" type="curve" smooth="yes"/>
      <point x="1031.0" y="1280.0"/>
      <point x="1002.0" y="1277.0"/>
    </contour>
    <component base="O"/>
  </outline>
</glyph>
<glyph name="Thorn" format="2">
  <advance width="1228"/>
  <unicode hex="00DE"/>
  <outline>
    <contour>
      <point x="309.0" y="1197.0" type="line" smooth="yes"/>
      <point x="253.0" y="1197.0"/>
      <point x="235.0" y="1178.0"/>
      <point x="235.0" y="1132.0" type="curve" smooth="yes"/>
      <point x="235.0" y="55.0" type="line" smooth="yes"/>
      <point x="235.0" y="9.0"/>
      <point x="253.0" y="-10.0"/>
      <point x="309.0" y="-10.0" type="curve" smooth="yes"/>
      <point x="311.0" y="-10.0" type="line" smooth="yes"/>
      <point x="367.0" y="-10.0"/>
      <point x="385.0" y="9.0"/>
      <point x="385.0" y="55.0" type="curve" smooth="yes"/>
      <point x="385.0" y="254.0" type="line"/>
      <point x="680.0" y="254.0" type="line" smooth="yes"/>
      <point x="930.0" y="254.0"/>
      <point x="1062.0" y="403.0"/>
      <point x="1062.0" y="598.0" type="curve" smooth="yes"/>
      <point x="1062.0" y="794.0"/>
      <point x="930.0" y="946.0"/>
      <point x="680.0" y="946.0" type="curve" smooth="yes"/>
      <point x="385.0" y="946.0" type="line"/>
      <point x="385.0" y="1132.0" type="line" smooth="yes"/>
      <point x="385.0" y="1178.0"/>
      <point x="367.0" y="1197.0"/>
      <point x="311.0" y="1197.0" type="curve" smooth="yes"/>
    </contour>
    <contour>
      <point x="385.0" y="398.0" type="line"/>
      <point x="385.0" y="802.0" type="line"/>
      <point x="659.0" y="802.0" type="line" smooth="yes"/>
      <point x="826.0" y="802.0"/>
      <point x="904.0" y="719.0"/>
      <point x="904.0" y="598.0" type="curve" smooth="yes"/>
      <point x="904.0" y="469.0"/>
      <point x="816.0" y="398.0"/>
      <point x="659.0" y="398.0" type="curve" smooth="yes"/>
    </contour>
  </outline>
</glyph>
<glyph name="germandbls" format="2">
  <advance width="1228"/>
  <unicode hex="00DF"/>
  <outline>
    <contour>
      <point x="235.0" y="943.0" type="curve" smooth="yes"/>
      <point x="235.0" y="55.0" type="line" smooth="yes"/>
      <point x="235.0" y="9.0"/>
      <point x="253.0" y="-10.0"/>
      <point x="309.0" y="-10.0" type="curve" smooth="yes"/>
      <point x="311.0" y="-10.0" type="line" smooth="yes"/>
      <point x="367.0" y="-10.0"/>
      <point x="385.0" y="9.0"/>
      <point x="385.0" y="55.0" type="curve" smooth="yes"/>
      <point x="385.0" y="932.0" type="line" smooth="yes"/>
      <point x="385.0" y="1078.0"/>
      <point x="464.0" y="1169.0"/>
      <point x="602.0" y="1169.0" type="curve" smooth="yes"/>
      <point x="749.0" y="1169.0"/>
      <point x="828.0" y="1094.0"/>
      <point x="828.0" y="971.0" type="curve" smooth="yes"/>
      <point x="828.0" y="854.0"/>
      <point x="760.0" y="772.0"/>
      <point x="627.0" y="759.0" type="curve" smooth="yes"/>
      <point x="582.0" y="755.0"/>
      <point x="564.0" y="736.0"/>
      <point x="564.0" y="688.0" type="curve" smooth="yes"/>
      <point x="564.0" y="640.0"/>
      <point x="582.0" y="619.0"/>
      <point x="627.0" y="619.0" type="curve" smooth="yes"/>
      <point x="782.0" y="619.0"/>
      <point x="883.0" y="527.0"/>
      <point x="883.0" y="362.0" type="curve" smooth="yes"/>
      <point x="883.0" y="209.0"/>
      <point x="781.0" y="126.0"/>
      <point x="615.0" y="126.0" type="curve" smooth="yes"/>
      <point x="569.0" y="126.0"/>
      <point x="551.0" y="104.0"/>
      <point x="551.0" y="55.0" type="curve" smooth="yes"/>
      <point x="551.0" y="-2.0"/>
      <point x="566.0" y="-22.0"/>
      <point x="634.0" y="-22.0" type="curve" smooth="yes"/>
      <point x="876.0" y="-22.0"/>
      <point x="1037.0" y="120.0"/>
      <point x="1037.0" y="360.0" type="curve" smooth="yes"/>
      <point x="1037.0" y="525.0"/>
      <point x="952.0" y="648.0"/>
      <point x="810.0" y="702.0" type="curve"/>
      <point x="915.0" y="757.0"/>
      <point x="982.0" y="845.0"/>
      <point x="982.0" y="971.0" type="curve" smooth="yes"/>
      <point x="982.0" y="1164.0"/>
      <point x="856.0" y="1317.0"/>
      <point x="606.0" y="1317.0" type="curve" smooth="yes"/>
      <point x="373.0" y="1317.0"/>
      <point x="235.0" y="1162.0"/>
    </contour>
  </outline>
</glyph>
<glyph name="ae" format="2">
  <advance width="1228"/>
  <unicode hex="00E6"/>
  <outline>
    <contour>
      <point x="629.0" y="830.0" type="curve"/>
      <point x="586.0" y="903.0"/>
      <point x="515.0" y="946.0"/>
      <point x="408.0" y="946.0" type="curve" smooth="yes"/>
      <point x="314.0" y="946.0"/>
      <point x="224.0" y="913.0"/>
      <point x="139.0" y="840.0" type="curve" smooth="yes"/>
      <point x="109.0" y="814.0"/>
      <point x="108.0" y="775.0"/>
      <point x="137.0" y="742.0" type="curve" smooth="yes"/>
      <point x="166.0" y="710.0"/>
      <point x="202.0" y="710.0"/>
      <point x="231.0" y="732.0" type="curve" smooth="yes"/>
      <point x="292.0" y="779.0"/>
      <point x="347.0" y="801.0"/>
      <point x="408.0" y="801.0" type="curve" smooth="yes"/>
      <point x="514.0" y="801.0"/>
      <point x="539.0" y="726.0"/>
      <point x="539.0" y="602.0" type="curve" smooth="yes"/>
      <point x="539.0" y="580.0" type="line"/>
      <point x="261.0" y="580.0"/>
      <point x="75.0" y="468.0"/>
      <point x="75.0" y="240.0" type="curve" smooth="yes"/>
      <point x="75.0" y="79.0"/>
      <point x="178.0" y="-22.0"/>
      <point x="335.0" y="-22.0" type="curve" smooth="yes"/>
      <point x="443.0" y="-22.0"/>
      <point x="545.0" y="33.0"/>
      <point x="609.0" y="122.0" type="curve"/>
      <point x="664.0" y="24.0"/>
      <point x="748.0" y="-22.0"/>
      <point x="853.0" y="-22.0" type="curve" smooth="yes"/>
      <point x="948.0" y="-22.0"/>
      <point x="1038.0" y="14.0"/>
      <point x="1112.0" y="84.0" type="curve" smooth="yes"/>
      <point x="1144.0" y="114.0"/>
      <point x="1149.0" y="149.0"/>
      <point x="1118.0" y="187.0" type="curve" smooth="yes"/>
      <point x="1087.0" y="225.0"/>
      <point x="1048.0" y="226.0"/>
      <point x="1023.0" y="201.0" type="curve" smooth="yes"/>
      <point x="967.0" y="147.0"/>
      <point x="917.0" y="123.0"/>
      <point x="853.0" y="123.0" type="curve" smooth="yes"/>
      <point x="764.0" y="123.0"/>
      <point x="693.0" y="199.0"/>
      <point x="689.0" y="440.0" type="curve"/>
      <point x="1088.0" y="440.0" type="line" smooth="yes"/>
      <point x="1133.0" y="440.0"/>
      <point x="1152.0" y="457.0"/>
      <point x="1151.0" y="502.0" type="curve" smooth="yes"/>
      <point x="1144.0" y="769.0"/>
      <point x="1065.0" y="946.0"/>
      <point x="853.0" y="946.0" type="curve" smooth="yes"/>
      <point x="759.0" y="946.0"/>
      <point x="682.0" y="907.0"/>
    </contour>
    <contour>
      <point x="539.0" y="340.0" type="line" smooth="yes"/>
      <point x="539.0" y="211.0"/>
      <point x="452.0" y="119.0"/>
      <point x="339.0" y="119.0" type="curve" smooth="yes"/>
      <point x="272.0" y="119.0"/>
      <point x="228.0" y="163.0"/>
      <point x="228.0" y="240.0" type="curve" smooth="yes"/>
      <point x="228.0" y="371.0"/>
      <point x="322.0" y="440.0"/>
      <point x="539.0" y="440.0" type="curve"/>
    </contour>
    <contour>
      <point x="994.0" y="580.0" type="curve"/>
      <point x="694.0" y="580.0" type="line"/>
      <point x="710.0" y="739.0"/>
      <point x="763.0" y="801.0"/>
      <point x="855.0" y="801.0" type="curve" smooth="yes"/>
      <point x="946.0" y="801.0"/>
      <point x="985.0" y="717.0"/>
    </contour>
  </outline>
</glyph>
